Compagnon-Script.ufo
<glyph name="exclam" format="2">
	<advance width="600"/>
	<unicode hex="0021"/>
	<note>
		exclam
	</note>
	<outline>
		<contour>
			<point x="240" y="191" type="curve" smooth="yes"/>
			<point x="311" y="555" type="line" smooth="yes"/>
			<point x="317" y="588"/>
			<point x="347" y="607"/>
			<point x="379" y="603" type="curve" smooth="yes"/>
			<point x="416" y="598"/>
			<point x="426" y="570"/>
			<point x="417" y="542" type="curve" smooth="yes"/>
			<point x="307" y="187" type="line" smooth="yes"/>
			<point x="299" y="161"/>
			<point x="286" y="146"/>
			<point x="265" y="149" type="curve" smooth="yes"/>
			<point x="244" y="152"/>
			<point x="236" y="169"/>
		</contour>
		<contour>
			<point x="241" y="0" type="curve" smooth="yes"/>
			<point x="275" y="0"/>
			<point x="301" y="26"/>
			<point x="301" y="56" type="curve" smooth="yes"/>
			<point x="301" y="93"/>
			<point x="280" y="117"/>
			<point x="241" y="117" type="curve" smooth="yes"/>
			<point x="206" y="117"/>
			<point x="181" y="92"/>
			<point x="181" y="54" type="curve" smooth="yes"/>
			<point x="181" y="25"/>
			<point x="210" y="0"/>
		</contour>
	</outline>
</glyph>
<glyph name="quotedbl" format="2">
	<advance width="600"/>
	<unicode hex="0022"/>
	<note>
		quotedbl
	</note>
	<outline>
		<contour>
			<point x="351" y="603" type="curve" smooth="yes"/>
			<point x="316" y="603"/>
			<point x="291" y="578"/>
			<point x="291" y="540" type="curve" smooth="yes"/>
			<point x="291" y="523"/>
			<point x="302" y="507"/>
			<point x="317" y="497" type="curve"/>
			<point x="289" y="450"/>
			<point x="239" y="408"/>
			<point x="179" y="374" type="curve" smooth="yes"/>
			<point x="162" y="364"/>
			<point x="164" y="340"/>
			<point x="170" y="330" type="curve" smooth="yes"/>
			<point x="177" y="318"/>
			<point x="197" y="303"/>
			<point x="214" y="313" type="curve" smooth="yes"/>
			<point x="307" y="367"/>
			<point x="411" y="466"/>
			<point x="411" y="542" type="curve" smooth="yes"/>
			<point x="411" y="579"/>
			<point x="390" y="603"/>
		</contour>
		<contour>
			<point x="540" y="603" type="curve" smooth="yes"/>
			<point x="505" y="603"/>
			<point x="480" y="578"/>
			<point x="480" y="540" type="curve" smooth="yes"/>
			<point x="480" y="523"/>
			<point x="491" y="507"/>
			<point x="506" y="497" type="curve"/>
			<point x="478" y="450"/>
			<point x="428" y="408"/>
			<point x="368" y="374" type="curve" smooth="yes"/>
			<point x="351" y="364"/>
			<point x="353" y="340"/>
			<point x="359" y="330" type="curve" smooth="yes"/>
			<point x="366" y="318"/>
			<point x="386" y="303"/>
			<point x="403" y="313" type="curve" smooth="yes"/>
			<point x="496" y="367"/>
			<point x="600" y="466"/>
			<point x="600" y="542" type="curve" smooth="yes"/>
			<point x="600" y="579"/>
			<point x="579" y="603"/>
		</contour>
	</outline>
</glyph>
<glyph name="percent" format="2">
	<advance width="600"/>
	<unicode hex="0025"/>
	<note>
		percent
	</note>
	<outline>
		<contour>
			<point x="345" y="434" type="curve" smooth="yes"/>
			<point x="353" y="434"/>
			<point x="361" y="435"/>
			<point x="369" y="436" type="curve"/>
			<point x="37" y="-128" type="line"/>
			<point x="29" y="-144"/>
			<point x="31" y="-161"/>
			<point x="44" y="-169" type="curve" smooth="yes"/>
			<point x="60" y="-179"/>
			<point x="86" y="-168"/>
			<point x="96" y="-151" type="curve" smooth="yes"/>
			<point x="514" y="557" type="line" smooth="yes"/>
			<point x="522" y="570"/>
			<point x="521" y="590"/>
			<point x="504" y="599" type="curve" smooth="yes"/>
			<point x="491" y="606"/>
			<point x="470" y="603"/>
			<point x="460" y="588" type="curve"/>
			<point x="419" y="521"/>
			<point x="386" y="495"/>
			<point x="347" y="498" type="curve" smooth="yes"/>
			<point x="334" y="499"/>
			<point x="323" y="501"/>
			<point x="313" y="506" type="curve"/>
			<point x="303" y="536"/>
			<point x="270" y="567"/>
			<point x="229" y="567" type="curve" smooth="yes"/>
			<point x="133" y="567"/>
			<point x="56" y="478"/>
			<point x="56" y="369" type="curve" smooth="yes"/>
			<point x="56" y="312"/>
			<point x="97" y="266"/>
			<point x="148" y="266" type="curve" smooth="yes"/>
			<point x="234" y="266"/>
			<point x="307" y="342"/>
			<point x="320" y="438" type="curve"/>
			<point x="324" y="437"/>
			<point x="329" y="434"/>
		</contour>
		<contour>
			<point x="258" y="465" type="curve" smooth="yes"/>
			<point x="258" y="390"/>
			<point x="208" y="329"/>
			<point x="148" y="329" type="curve" smooth="yes"/>
			<point x="133" y="329"/>
			<point x="119" y="347"/>
			<point x="119" y="369" type="curve" smooth="yes"/>
			<point x="119" y="444"/>
			<point x="169" y="504"/>
			<point x="229" y="504" type="curve" smooth="yes"/>
			<point x="245" y="504"/>
			<point x="258" y="487"/>
		</contour>
		<contour>
			<point x="465" y="252" type="curve" smooth="yes"/>
			<point x="370" y="252"/>
			<point x="292" y="161"/>
			<point x="292" y="52" type="curve" smooth="yes"/>
			<point x="292" y="-4"/>
			<point x="333" y="-50"/>
			<point x="385" y="-50" type="curve" smooth="yes"/>
			<point x="480" y="-50"/>
			<point x="557" y="40"/>
			<point x="557" y="150" type="curve" smooth="yes"/>
			<point x="557" y="206"/>
			<point x="516" y="252"/>
		</contour>
		<contour>
			<point x="465" y="188" type="curve" smooth="yes"/>
			<point x="481" y="188"/>
			<point x="495" y="171"/>
			<point x="495" y="150" type="curve" smooth="yes"/>
			<point x="495" y="74"/>
			<point x="446" y="14"/>
			<point x="385" y="14" type="curve" smooth="yes"/>
			<point x="369" y="14"/>
			<point x="355" y="31"/>
			<point x="355" y="52" type="curve" smooth="yes"/>
			<point x="355" y="128"/>
			<point x="404" y="188"/>
		</contour>
	</outline>
</glyph>
<glyph name="ampersand" format="2">
	<advance width="600"/>
	<unicode hex="0026"/>
	<note>
		ampersand
	</note>
	<outline>
		<contour>
			<point x="540" y="294" type="curve" smooth="yes"/>
			<point x="450" y="294" type="line"/>
			<point x="422" y="261"/>
			<point x="396" y="231"/>
			<point x="371" y="205" type="curve"/>
			<point x="354" y="233"/>
			<point x="335" y="266"/>
			<point x="313" y="305" type="curve"/>
			<point x="392" y="377"/>
			<point x="440" y="412"/>
			<point x="452" y="474" type="curve" smooth="yes"/>
			<point x="466" y="546"/>
			<point x="389" y="594"/>
			<point x="309" y="594" type="curve" smooth="yes"/>
			<point x="235" y="594"/>
			<point x="151" y="553"/>
			<point x="151" y="473" type="curve" smooth="yes"/>
			<point x="151" y="437"/>
			<point x="170" y="404"/>
			<point x="211" y="330" type="curve"/>
			<point x="113" y="265"/>
			<point x="18" y="215"/>
			<point x="18" y="123" type="curve" smooth="yes"/>
			<point x="18" y="44"/>
			<point x="82" y="-11"/>
			<point x="174" y="-11" type="curve" smooth="yes"/>
			<point x="224" y="-11"/>
			<point x="291" y="36"/>
			<point x="354" y="97" type="curve"/>
			<point x="408" y="14" type="line" smooth="yes"/>
			<point x="426" y="-13"/>
			<point x="449" y="-18"/>
			<point x="464" y="-5" type="curve" smooth="yes"/>
			<point x="479" y="8"/>
			<point x="481" y="26"/>
			<point x="469" y="44" type="curve" smooth="yes"/>
			<point x="404" y="147" type="line"/>
			<point x="429" y="174"/>
			<point x="452" y="201"/>
			<point x="472" y="227" type="curve"/>
			<point x="540" y="227" type="line" smooth="yes"/>
			<point x="553" y="227"/>
			<point x="576" y="238"/>
			<point x="576" y="263" type="curve" smooth="yes"/>
			<point x="576" y="281"/>
			<point x="559" y="294"/>
		</contour>
		<contour>
			<point x="309" y="524" type="curve" smooth="yes"/>
			<point x="354" y="524"/>
			<point x="387" y="501"/>
			<point x="381" y="472" type="curve" smooth="yes"/>
			<point x="374" y="437"/>
			<point x="325" y="404"/>
			<point x="276" y="367" type="curve"/>
			<point x="235" y="433"/>
			<point x="221" y="449"/>
			<point x="221" y="476" type="curve" smooth="yes"/>
			<point x="221" y="527"/>
			<point x="280" y="524"/>
		</contour>
		<contour>
			<point x="174" y="59" type="curve" smooth="yes"/>
			<point x="125" y="59"/>
			<point x="90" y="87"/>
			<point x="90" y="123" type="curve" smooth="yes"/>
			<point x="90" y="171"/>
			<point x="108" y="183"/>
			<point x="251" y="273" type="curve"/>
			<point x="277" y="229"/>
			<point x="299" y="189"/>
			<point x="320" y="154" type="curve"/>
			<point x="254" y="92"/>
			<point x="203" y="59"/>
		</contour>
	</outline>
</glyph>
<glyph name="quotesingle" format="2">
	<advance width="600"/>
	<unicode hex="0027"/>
	<note>
		quotesingle
	</note>
	<outline>
		<contour>
			<point x="399" y="603" type="curve" smooth="yes"/>
			<point x="364" y="603"/>
			<point x="339" y="578"/>
			<point x="339" y="540" type="curve" smooth="yes"/>
			<point x="339" y="523"/>
			<point x="350" y="507"/>
			<point x="365" y="497" type="curve"/>
			<point x="337" y="450"/>
			<point x="287" y="408"/>
			<point x="227" y="374" type="curve" smooth="yes"/>
			<point x="210" y="364"/>
			<point x="212" y="340"/>
			<point x="218" y="330" type="curve" smooth="yes"/>
			<point x="225" y="318"/>
			<point x="245" y="303"/>
			<point x="262" y="313" type="curve" smooth="yes"/>
			<point x="355" y="367"/>
			<point x="459" y="466"/>
			<point x="459" y="542" type="curve" smooth="yes"/>
			<point x="459" y="579"/>
			<point x="438" y="603"/>
		</contour>
	</outline>
</glyph>
<glyph name="asterisk" format="2">
	<advance width="600"/>
	<unicode hex="002A"/>
	<note>
		asterisk
	</note>
	<outline>
		<contour>
			<point x="387" y="514" type="curve" smooth="yes"/>
			<point x="384" y="534"/>
			<point x="369" y="549"/>
			<point x="347" y="554" type="curve"/>
			<point x="347" y="555" type="line"/>
			<point x="352" y="576"/>
			<point x="347" y="603"/>
			<point x="321" y="603" type="curve" smooth="yes"/>
			<point x="297" y="603"/>
			<point x="277" y="585"/>
			<point x="271" y="558" type="curve"/>
			<point x="246" y="559" type="line" smooth="yes"/>
			<point x="225" y="560"/>
			<point x="209" y="544"/>
			<point x="211" y="524" type="curve" smooth="yes"/>
			<point x="213" y="504"/>
			<point x="231" y="486"/>
			<point x="255" y="484" type="curve"/>
			<point x="252" y="472" type="line" smooth="yes"/>
			<point x="247" y="450"/>
			<point x="260" y="430"/>
			<point x="281" y="430" type="curve" smooth="yes"/>
			<point x="302" y="430"/>
			<point x="323" y="444"/>
			<point x="328" y="469" type="curve"/>
			<point x="331" y="481" type="line"/>
			<point x="345" y="480" type="line"/>
			<point x="366" y="480"/>
			<point x="391" y="488"/>
		</contour>
	</outline>
</glyph>
<glyph name="slash" format="2">
	<advance width="600"/>
	<unicode hex="002F"/>
	<note>
		slash
	</note>
	<outline>
		<contour>
			<point x="176" y="-133" type="curve" smooth="yes"/>
			<point x="346" y="555" type="line"/>
			<point x="352" y="584"/>
			<point x="372" y="603"/>
			<point x="397" y="603" type="curve" smooth="yes"/>
			<point x="423" y="603"/>
			<point x="428" y="576"/>
			<point x="423" y="555" type="curve" smooth="yes"/>
			<point x="252" y="-136" type="line"/>
			<point x="247" y="-161"/>
			<point x="226" y="-178"/>
			<point x="205" y="-175" type="curve" smooth="yes"/>
			<point x="184" y="-172"/>
			<point x="171" y="-155"/>
		</contour>
	</outline>
</glyph>
<glyph name="colon" format="2">
	<advance width="600"/>
	<unicode hex="003A"/>
	<note>
		colon
	</note>
	<outline>
		<contour>
			<point x="434" y="430" type="curve" smooth="yes"/>
			<point x="399" y="430"/>
			<point x="374" y="405"/>
			<point x="374" y="367" type="curve" smooth="yes"/>
			<point x="374" y="338"/>
			<point x="403" y="313"/>
			<point x="434" y="313" type="curve" smooth="yes"/>
			<point x="468" y="313"/>
			<point x="494" y="339"/>
			<point x="494" y="369" type="curve" smooth="yes"/>
			<point x="494" y="406"/>
			<point x="473" y="430"/>
		</contour>
		<contour>
			<point x="344" y="117" type="curve" smooth="yes"/>
			<point x="343" y="117" type="line" smooth="yes"/>
			<point x="308" y="117"/>
			<point x="283" y="92"/>
			<point x="283" y="54" type="curve" smooth="yes"/>
			<point x="283" y="25"/>
			<point x="312" y="0"/>
			<point x="343" y="0" type="curve"/>
			<point x="343" y="0"/>
			<point x="343" y="0"/>
			<point x="344" y="0" type="curve" smooth="yes"/>
			<point x="378" y="0"/>
			<point x="404" y="26"/>
			<point x="404" y="56" type="curve" smooth="yes"/>
			<point x="404" y="93"/>
			<point x="383" y="117"/>
		</contour>
	</outline>
</glyph>
<glyph name="less" format="2">
	<advance width="600"/>
	<unicode hex="003C"/>
	<note>
		less
	</note>
	<outline>
		<contour>
			<point x="552" y="420" type="curve" smooth="yes"/>
			<point x="559" y="405"/>
			<point x="556" y="383"/>
			<point x="539" y="375" type="curve"/>
			<point x="186" y="226" type="line"/>
			<point x="540" y="53" type="line"/>
			<point x="569" y="37"/>
			<point x="569" y="15"/>
			<point x="561" y="0" type="curve" smooth="yes"/>
			<point x="552" y="-16"/>
			<point x="529" y="-20"/>
			<point x="508" y="-10" type="curve" smooth="yes"/>
			<point x="100" y="190" type="line" smooth="yes"/>
			<point x="85" y="198"/>
			<point x="77" y="215"/>
			<point x="77" y="228" type="curve" smooth="yes"/>
			<point x="77" y="243"/>
			<point x="85" y="256"/>
			<point x="101" y="263" type="curve" smooth="yes"/>
			<point x="509" y="438" type="line" smooth="yes"/>
			<point x="523" y="444"/>
			<point x="545" y="435"/>
		</contour>
	</outline>
</glyph>
<glyph name="equal" format="2">
	<advance width="600"/>
	<unicode hex="003D"/>
	<note>
		equal
	</note>
	<outline>
		<contour>
			<point x="505" y="276" type="curve" smooth="yes"/>
			<point x="87" y="276" type="line" smooth="yes"/>
			<point x="74" y="276"/>
			<point x="61" y="298"/>
			<point x="61" y="310" type="curve" smooth="yes"/>
			<point x="61" y="323"/>
			<point x="70" y="346"/>
			<point x="87" y="346" type="curve" smooth="yes"/>
			<point x="505" y="346" type="line" smooth="yes"/>
			<point x="526" y="346"/>
			<point x="539" y="323"/>
			<point x="539" y="310" type="curve" smooth="yes"/>
			<point x="539" y="298"/>
			<point x="525" y="276"/>
		</contour>
		<contour>
			<point x="505" y="84" type="curve" smooth="yes"/>
			<point x="87" y="84" type="line" smooth="yes"/>
			<point x="74" y="84"/>
			<point x="61" y="104"/>
			<point x="61" y="120" type="curve" smooth="yes"/>
			<point x="61" y="133"/>
			<point x="74" y="154"/>
			<point x="87" y="154" type="curve" smooth="yes"/>
			<point x="505" y="154" type="line" smooth="yes"/>
			<point x="529" y="154"/>
			<point x="539" y="133"/>
			<point x="539" y="120" type="curve" smooth="yes"/>
			<point x="539" y="108"/>
			<point x="529" y="84"/>
		</contour>
	</outline>
</glyph>
<glyph name="at" format="2">
	<advance width="600"/>
	<unicode hex="0040"/>
	<note>
		at
	</note>
	<outline>
		<contour>
			<point x="554" y="367" type="curve" smooth="yes"/>
			<point x="528" y="380"/>
			<point x="494" y="400"/>
			<point x="447" y="400" type="curve" smooth="yes"/>
			<point x="267" y="400"/>
			<point x="168" y="241"/>
			<point x="168" y="106" type="curve" smooth="yes"/>
			<point x="168" y="46"/>
			<point x="194" y="13"/>
			<point x="243" y="13" type="curve" smooth="yes"/>
			<point x="295" y="13"/>
			<point x="384" y="101"/>
			<point x="473" y="184" type="curve"/>
			<point x="439" y="39"/>
			<point x="326" y="-42"/>
			<point x="207" y="-42" type="curve" smooth="yes"/>
			<point x="107" y="-42"/>
			<point x="100" y="80"/>
			<point x="129" y="201" type="curve" smooth="yes"/>
			<point x="162" y="338"/>
			<point x="267" y="441"/>
			<point x="415" y="441" type="curve" smooth="yes"/>
			<point x="487" y="441"/>
			<point x="520" y="425"/>
			<point x="556" y="403" type="curve" smooth="yes"/>
			<point x="571" y="394"/>
			<point x="595" y="399"/>
			<point x="600" y="419" type="curve" smooth="yes"/>
			<point x="606" y="443"/>
			<point x="594" y="458"/>
			<point x="578" y="468" type="curve" smooth="yes"/>
			<point x="545" y="489"/>
			<point x="469" y="510"/>
			<point x="416" y="510" type="curve" smooth="yes"/>
			<point x="241" y="510"/>
			<point x="104" y="375"/>
			<point x="63" y="203" type="curve" smooth="yes"/>
			<point x="22" y="33"/>
			<point x="66" y="-113"/>
			<point x="205" y="-113" type="curve" smooth="yes"/>
			<point x="224" y="-113"/>
			<point x="335" y="-110"/>
			<point x="427" y="-25" type="curve" smooth="yes"/>
			<point x="484" y="27"/>
			<point x="525" y="105"/>
			<point x="559" y="245" type="curve" smooth="yes"/>
			<point x="564" y="267"/>
			<point x="543" y="289"/>
			<point x="517" y="289" type="curve" smooth="yes"/>
			<point x="497" y="289"/>
			<point x="482" y="277"/>
			<point x="462" y="259" type="curve" smooth="yes"/>
			<point x="309" y="122"/>
			<point x="262" y="78"/>
			<point x="243" y="78" type="curve" smooth="yes"/>
			<point x="239" y="78"/>
			<point x="235" y="88"/>
			<point x="235" y="106" type="curve" smooth="yes"/>
			<point x="235" y="224"/>
			<point x="327" y="335"/>
			<point x="447" y="335" type="curve" smooth="yes"/>
			<point x="481" y="335"/>
			<point x="508" y="324"/>
			<point x="530" y="311" type="curve" smooth="yes"/>
			<point x="553" y="297"/>
			<point x="570" y="300"/>
			<point x="576" y="324" type="curve" smooth="yes"/>
			<point x="582" y="348"/>
			<point x="568" y="360"/>
		</contour>
	</outline>
</glyph>
<glyph name="B" format="2">
	<advance width="600"/>
	<unicode hex="0042"/>
	<note>
		B
	</note>
	<outline>
		<contour>
			<point x="440" y="309" type="curve"/>
			<point x="523" y="344"/>
			<point x="574" y="406"/>
			<point x="574" y="476" type="curve" smooth="yes"/>
			<point x="574" y="554"/>
			<point x="533" y="604"/>
			<point x="442" y="604" type="curve" smooth="yes"/>
			<point x="363" y="604"/>
			<point x="283" y="501"/>
			<point x="233" y="428" type="curve"/>
			<point x="259" y="526" type="line" smooth="yes"/>
			<point x="275" y="585"/>
			<point x="274" y="603"/>
			<point x="239" y="603" type="curve" smooth="yes"/>
			<point x="201" y="603"/>
			<point x="194" y="579"/>
			<point x="187" y="551" type="curve" smooth="yes"/>
			<point x="56" y="45" type="line" smooth="yes"/>
			<point x="49" y="18"/>
			<point x="56" y="-13"/>
			<point x="85" y="-13" type="curve" smooth="yes"/>
			<point x="118" y="-13"/>
			<point x="124" y="12"/>
			<point x="134" y="49" type="curve" smooth="yes"/>
			<point x="183" y="235" type="line"/>
			<point x="233" y="329"/>
			<point x="367" y="534"/>
			<point x="442" y="534" type="curve" smooth="yes"/>
			<point x="488" y="534"/>
			<point x="504" y="515"/>
			<point x="504" y="476" type="curve" smooth="yes"/>
			<point x="504" y="435"/>
			<point x="469" y="394"/>
			<point x="388" y="358" type="curve" smooth="yes"/>
			<point x="369" y="349"/>
			<point x="328" y="333"/>
			<point x="328" y="311" type="curve" smooth="yes"/>
			<point x="328" y="287"/>
			<point x="357" y="279"/>
			<point x="378" y="269" type="curve" smooth="yes"/>
			<point x="441" y="239"/>
			<point x="471" y="212"/>
			<point x="471" y="162" type="curve" smooth="yes"/>
			<point x="471" y="104"/>
			<point x="425" y="54"/>
			<point x="348" y="54" type="curve" smooth="yes"/>
			<point x="280" y="54"/>
			<point x="254" y="114"/>
			<point x="218" y="62" type="curve" smooth="yes"/>
			<point x="189" y="20"/>
			<point x="280" y="-16"/>
			<point x="347" y="-16" type="curve" smooth="yes"/>
			<point x="469" y="-16"/>
			<point x="541" y="75"/>
			<point x="541" y="162" type="curve" smooth="yes"/>
			<point x="541" y="226"/>
			<point x="499" y="278"/>
		</contour>
	</outline>
</glyph>
<glyph name="C" format="2">
	<advance width="600"/>
	<unicode hex="0043"/>
	<note>
		C
	</note>
	<outline>
		<contour>
			<point x="368" y="603" type="curve" smooth="yes"/>
			<point x="176" y="603"/>
			<point x="35" y="439"/>
			<point x="35" y="236" type="curve" smooth="yes"/>
			<point x="35" y="121"/>
			<point x="109" y="-13"/>
			<point x="258" y="-13" type="curve" smooth="yes"/>
			<point x="382" y="-13"/>
			<point x="472" y="56"/>
			<point x="556" y="176" type="curve" smooth="yes"/>
			<point x="570" y="196"/>
			<point x="567" y="216"/>
			<point x="545" y="228" type="curve" smooth="yes"/>
			<point x="522" y="241"/>
			<point x="505" y="231"/>
			<point x="487" y="204" type="curve" smooth="yes"/>
			<point x="422" y="107"/>
			<point x="349" y="57"/>
			<point x="260" y="57" type="curve" smooth="yes"/>
			<point x="172" y="57"/>
			<point x="105" y="134"/>
			<point x="105" y="236" type="curve" smooth="yes"/>
			<point x="105" y="407"/>
			<point x="215" y="536"/>
			<point x="369" y="536" type="curve" smooth="yes"/>
			<point x="412" y="536"/>
			<point x="441" y="516"/>
			<point x="441" y="489" type="curve" smooth="yes"/>
			<point x="441" y="470"/>
			<point x="432" y="447"/>
			<point x="412" y="425" type="curve" smooth="yes"/>
			<point x="398" y="409"/>
			<point x="389" y="386"/>
			<point x="407" y="371" type="curve" smooth="yes"/>
			<point x="428" y="353"/>
			<point x="448" y="362"/>
			<point x="471" y="390" type="curve" smooth="yes"/>
			<point x="498" y="423"/>
			<point x="508" y="461"/>
			<point x="508" y="497" type="curve" smooth="yes"/>
			<point x="508" y="558"/>
			<point x="456" y="603"/>
		</contour>
	</outline>
</glyph>
<glyph name="D" format="2">
	<advance width="600"/>
	<unicode hex="0044"/>
	<note>
		D
	</note>
	<outline>
		<contour>
			<point x="169" y="437" type="curve" smooth="yes"/>
			<point x="78" y="80" type="line" smooth="yes"/>
			<point x="61" y="15"/>
			<point x="119" y="-13"/>
			<point x="234" y="-13" type="curve" smooth="yes"/>
			<point x="406" y="-13"/>
			<point x="571" y="137"/>
			<point x="571" y="335" type="curve" smooth="yes"/>
			<point x="571" y="509"/>
			<point x="456" y="603"/>
			<point x="288" y="603" type="curve" smooth="yes"/>
			<point x="196" y="603"/>
			<point x="126" y="581"/>
			<point x="60" y="528" type="curve" smooth="yes"/>
			<point x="30" y="504"/>
			<point x="19" y="483"/>
			<point x="38" y="462" type="curve" smooth="yes"/>
			<point x="55" y="444"/>
			<point x="77" y="451"/>
			<point x="104" y="473" type="curve" smooth="yes"/>
			<point x="157" y="516"/>
			<point x="212" y="535"/>
			<point x="285" y="535" type="curve" smooth="yes"/>
			<point x="408" y="535"/>
			<point x="498" y="471"/>
			<point x="498" y="332" type="curve" smooth="yes"/>
			<point x="498" y="181"/>
			<point x="373" y="57"/>
			<point x="228" y="57" type="curve" smooth="yes"/>
			<point x="199" y="57"/>
			<point x="181" y="60"/>
			<point x="156" y="69" type="curve"/>
			<point x="248" y="437" type="line" smooth="yes"/>
			<point x="250" y="445"/>
			<point x="251" y="452"/>
			<point x="251" y="458" type="curve" smooth="yes"/>
			<point x="251" y="479"/>
			<point x="240" y="489"/>
			<point x="221" y="489" type="curve" smooth="yes"/>
			<point x="195" y="489"/>
			<point x="181" y="482"/>
		</contour>
	</outline>
</glyph>
<glyph name="F" format="2">
	<advance width="600"/>
	<unicode hex="0046"/>
	<note>
		F
	</note>
	<outline>
		<contour>
			<point x="613" y="579" type="curve" smooth="yes"/>
			<point x="600" y="601"/>
			<point x="578" y="603"/>
			<point x="563" y="603" type="curve" smooth="yes"/>
			<point x="258" y="603" type="line" smooth="yes"/>
			<point x="92" y="603"/>
			<point x="0" y="541"/>
			<point x="0" y="430" type="curve" smooth="yes"/>
			<point x="0" y="405"/>
			<point x="10" y="383"/>
			<point x="36" y="383" type="curve" smooth="yes"/>
			<point x="60" y="383"/>
			<point x="71" y="406"/>
			<point x="71" y="430" type="curve" smooth="yes"/>
			<point x="71" y="502"/>
			<point x="140" y="533"/>
			<point x="257" y="533" type="curve" smooth="yes"/>
			<point x="320" y="533" type="line"/>
			<point x="270" y="336" type="line"/>
			<point x="148" y="336" type="line" smooth="yes"/>
			<point x="128" y="336"/>
			<point x="110" y="318"/>
			<point x="110" y="300" type="curve" smooth="yes"/>
			<point x="110" y="285"/>
			<point x="126" y="264"/>
			<point x="147" y="266" type="curve"/>
			<point x="171" y="266"/>
			<point x="215" y="266"/>
			<point x="252" y="267" type="curve"/>
			<point x="178" y="-13" type="line" smooth="yes"/>
			<point x="173" y="-33"/>
			<point x="168" y="-54"/>
			<point x="156" y="-71" type="curve" smooth="yes"/>
			<point x="141" y="-92"/>
			<point x="121" y="-101"/>
			<point x="81" y="-101" type="curve" smooth="yes"/>
			<point x="53" y="-101"/>
			<point x="40" y="-114"/>
			<point x="40" y="-138" type="curve" smooth="yes"/>
			<point x="40" y="-158"/>
			<point x="53" y="-172"/>
			<point x="81" y="-172" type="curve" smooth="yes"/>
			<point x="150" y="-172"/>
			<point x="193" y="-148"/>
			<point x="224" y="-99" type="curve" smooth="yes"/>
			<point x="242" y="-71"/>
			<point x="248" y="-54"/>
			<point x="258" y="-13" type="curve" smooth="yes"/>
			<point x="277" y="58"/>
			<point x="304" y="162"/>
			<point x="331" y="267" type="curve"/>
			<point x="363" y="266"/>
			<point x="400" y="266"/>
			<point x="425" y="266" type="curve"/>
			<point x="446" y="264"/>
			<point x="462" y="285"/>
			<point x="462" y="300" type="curve" smooth="yes"/>
			<point x="462" y="318"/>
			<point x="444" y="336"/>
			<point x="424" y="336" type="curve" smooth="yes"/>
			<point x="349" y="336" type="line"/>
			<point x="368" y="408"/>
			<point x="386" y="478"/>
			<point x="401" y="533" type="curve"/>
			<point x="544" y="533" type="line"/>
			<point x="524" y="455" type="line" smooth="yes"/>
			<point x="518" y="429"/>
			<point x="540" y="419"/>
			<point x="556" y="419" type="curve" smooth="yes"/>
			<point x="569" y="419"/>
			<point x="589" y="427"/>
			<point x="595" y="455" type="curve" smooth="yes"/>
			<point x="609" y="517" type="line" smooth="yes"/>
			<point x="614" y="541"/>
			<point x="621" y="566"/>
		</contour>
	</outline>
</glyph>
<glyph name="G" format="2">
	<advance width="600"/>
	<unicode hex="0047"/>
	<note>
		G
	</note>
	<outline>
		<contour>
			<point x="75" y="-120" type="curve" smooth="yes"/>
			<point x="125" y="-160"/>
			<point x="162" y="-173"/>
			<point x="229" y="-173" type="curve" smooth="yes"/>
			<point x="316" y="-173"/>
			<point x="415" y="-134"/>
			<point x="461" y="29" type="curve" smooth="yes"/>
			<point x="504" y="181" type="line" smooth="yes"/>
			<point x="510" y="203"/>
			<point x="512" y="223"/>
			<point x="493" y="231" type="curve" smooth="yes"/>
			<point x="470" y="241"/>
			<point x="455" y="237"/>
			<point x="437" y="214" type="curve" smooth="yes"/>
			<point x="365" y="121"/>
			<point x="306" y="57"/>
			<point x="227" y="57" type="curve" smooth="yes"/>
			<point x="167" y="57"/>
			<point x="125" y="94"/>
			<point x="125" y="206" type="curve" smooth="yes"/>
			<point x="125" y="388"/>
			<point x="271" y="536"/>
			<point x="405" y="536" type="curve" smooth="yes"/>
			<point x="448" y="536"/>
			<point x="477" y="516"/>
			<point x="477" y="489" type="curve" smooth="yes"/>
			<point x="477" y="470"/>
			<point x="468" y="447"/>
			<point x="448" y="425" type="curve" smooth="yes"/>
			<point x="434" y="409"/>
			<point x="425" y="386"/>
			<point x="443" y="371" type="curve" smooth="yes"/>
			<point x="464" y="353"/>
			<point x="484" y="362"/>
			<point x="507" y="390" type="curve" smooth="yes"/>
			<point x="534" y="423"/>
			<point x="544" y="461"/>
			<point x="544" y="497" type="curve" smooth="yes"/>
			<point x="544" y="558"/>
			<point x="492" y="603"/>
			<point x="404" y="603" type="curve" smooth="yes"/>
			<point x="232" y="603"/>
			<point x="55" y="420"/>
			<point x="55" y="206" type="curve" smooth="yes"/>
			<point x="55" y="81"/>
			<point x="104" y="-13"/>
			<point x="225" y="-13" type="curve" smooth="yes"/>
			<point x="306" y="-13"/>
			<point x="368" y="39"/>
			<point x="411" y="92" type="curve"/>
			<point x="399" y="41" type="line" smooth="yes"/>
			<point x="378" y="-49"/>
			<point x="314" y="-105"/>
			<point x="228" y="-105" type="curve" smooth="yes"/>
			<point x="181" y="-105"/>
			<point x="151" y="-94"/>
			<point x="115" y="-68" type="curve" smooth="yes"/>
			<point x="84" y="-46"/>
			<point x="45" y="-96"/>
		</contour>
	</outline>
</glyph>
<glyph name="N" format="2">
	<advance width="600"/>
	<unicode hex="004E"/>
	<note>
		N
	</note>
	<outline>
		<contour>
			<point x="573" y="194" type="curve" smooth="yes"/>
			<point x="561" y="202"/>
			<point x="551" y="203"/>
			<point x="533" y="188" type="curve" smooth="yes"/>
			<point x="497" y="158"/>
			<point x="448" y="116"/>
			<point x="415" y="88" type="curve"/>
			<point x="515" y="443" type="line" smooth="yes"/>
			<point x="543" y="541"/>
			<point x="528" y="602"/>
			<point x="421" y="602" type="curve" smooth="yes"/>
			<point x="367" y="602"/>
			<point x="287" y="567"/>
			<point x="194" y="412" type="curve"/>
			<point x="236" y="552" type="line" smooth="yes"/>
			<point x="245" y="582"/>
			<point x="240" y="599"/>
			<point x="215" y="602" type="curve" smooth="yes"/>
			<point x="198" y="604"/>
			<point x="173" y="599"/>
			<point x="165" y="566" type="curve" smooth="yes"/>
			<point x="161" y="550"/>
			<point x="155" y="530"/>
			<point x="26" y="69" type="curve" smooth="yes"/>
			<point x="11" y="14"/>
			<point x="8" y="-7"/>
			<point x="37" y="-13" type="curve" smooth="yes"/>
			<point x="68" y="-19"/>
			<point x="83" y="12"/>
			<point x="97" y="55" type="curve" smooth="yes"/>
			<point x="218" y="426"/>
			<point x="350" y="527"/>
			<point x="411" y="527" type="curve" smooth="yes"/>
			<point x="454" y="527"/>
			<point x="456" y="500"/>
			<point x="432" y="416" type="curve" smooth="yes"/>
			<point x="326" y="39" type="line" smooth="yes"/>
			<point x="319" y="13"/>
			<point x="334" y="-8"/>
			<point x="361" y="-13" type="curve" smooth="yes"/>
			<point x="383" y="-17"/>
			<point x="406" y="-2"/>
			<point x="427" y="15" type="curve" smooth="yes"/>
			<point x="494" y="69"/>
			<point x="537" y="108"/>
			<point x="576" y="141" type="curve" smooth="yes"/>
			<point x="589" y="152"/>
			<point x="590" y="183"/>
		</contour>
	</outline>
</glyph>
<glyph name="P" format="2">
	<advance width="600"/>
	<unicode hex="0050"/>
	<note>
		P
	</note>
	<outline>
		<contour>
			<point x="307" y="603" type="curve" smooth="yes"/>
			<point x="215" y="602"/>
			<point x="145" y="581"/>
			<point x="79" y="528" type="curve" smooth="yes"/>
			<point x="59" y="512"/>
			<point x="48" y="498"/>
			<point x="48" y="483" type="curve" smooth="yes"/>
			<point x="48" y="476"/>
			<point x="51" y="469"/>
			<point x="57" y="462" type="curve"/>
			<point x="64" y="455"/>
			<point x="71" y="452"/>
			<point x="79" y="452" type="curve" smooth="yes"/>
			<point x="92" y="452"/>
			<point x="107" y="460"/>
			<point x="123" y="473" type="curve" smooth="yes"/>
			<point x="176" y="516"/>
			<point x="231" y="534"/>
			<point x="304" y="534" type="curve" smooth="yes"/>
			<point x="397" y="534"/>
			<point x="494" y="502"/>
			<point x="494" y="404" type="curve" smooth="yes"/>
			<point x="494" y="290"/>
			<point x="437" y="177"/>
			<point x="332" y="175" type="curve" smooth="yes"/>
			<point x="308" y="175"/>
			<point x="280" y="180"/>
			<point x="248" y="192" type="curve"/>
			<point x="311" y="439" type="line" smooth="yes"/>
			<point x="313" y="446"/>
			<point x="314" y="453"/>
			<point x="314" y="458" type="curve" smooth="yes"/>
			<point x="314" y="479"/>
			<point x="303" y="489"/>
			<point x="284" y="489" type="curve" smooth="yes"/>
			<point x="258" y="489"/>
			<point x="244" y="482"/>
			<point x="232" y="437" type="curve" smooth="yes"/>
			<point x="88" y="-122" type="line" smooth="yes"/>
			<point x="86" y="-130"/>
			<point x="85" y="-136"/>
			<point x="85" y="-141" type="curve" smooth="yes"/>
			<point x="85" y="-164"/>
			<point x="100" y="-171"/>
			<point x="113" y="-171" type="curve" smooth="yes"/>
			<point x="130" y="-171"/>
			<point x="154" y="-168"/>
			<point x="163" y="-133" type="curve" smooth="yes"/>
			<point x="229" y="120" type="line"/>
			<point x="264" y="109"/>
			<point x="295" y="105"/>
			<point x="324" y="105" type="curve" smooth="yes"/>
			<point x="477" y="105"/>
			<point x="564" y="258"/>
			<point x="564" y="404" type="curve" smooth="yes"/>
			<point x="564" y="512"/>
			<point x="481" y="604"/>
		</contour>
	</outline>
</glyph>
<glyph name="Q" format="2">
	<advance width="600"/>
	<unicode hex="0051"/>
	<note>
		Q
	</note>
	<outline>
		<contour>
			<point x="23" y="100" type="curve" smooth="yes"/>
			<point x="23" y="23"/>
			<point x="86" y="-10"/>
			<point x="147" y="-10" type="curve" smooth="yes"/>
			<point x="163" y="-10"/>
			<point x="182" y="-9"/>
			<point x="205" y="-8" type="curve"/>
			<point x="205" y="-82"/>
			<point x="231" y="-171"/>
			<point x="373" y="-171" type="curve" smooth="yes"/>
			<point x="492" y="-171"/>
			<point x="578" y="-123"/>
			<point x="578" y="0" type="curve" smooth="yes"/>
			<point x="578" y="34"/>
			<point x="570" y="53"/>
			<point x="547" y="53" type="curve" smooth="yes"/>
			<point x="524" y="53"/>
			<point x="508" y="35"/>
			<point x="508" y="0" type="curve" smooth="yes"/>
			<point x="508" y="-69"/>
			<point x="456" y="-101"/>
			<point x="373" y="-101" type="curve" smooth="yes"/>
			<point x="287" y="-101"/>
			<point x="273" y="-53"/>
			<point x="273" y="0" type="curve"/>
			<point x="379" y="25"/>
			<point x="562" y="132"/>
			<point x="562" y="336" type="curve" smooth="yes"/>
			<point x="562" y="520"/>
			<point x="486" y="603"/>
			<point x="344" y="603" type="curve" smooth="yes"/>
			<point x="214" y="603"/>
			<point x="133" y="520"/>
			<point x="133" y="373" type="curve" smooth="yes"/>
			<point x="133" y="337"/>
			<point x="148" y="327"/>
			<point x="168" y="327" type="curve" smooth="yes"/>
			<point x="188" y="327"/>
			<point x="203" y="341"/>
			<point x="203" y="373" type="curve" smooth="yes"/>
			<point x="203" y="505"/>
			<point x="282" y="533"/>
			<point x="344" y="533" type="curve" smooth="yes"/>
			<point x="430" y="533"/>
			<point x="492" y="505"/>
			<point x="492" y="335" type="curve" smooth="yes"/>
			<point x="492" y="197"/>
			<point x="399" y="98"/>
			<point x="269" y="72" type="curve"/>
			<point x="269" y="145"/>
			<point x="222" y="205"/>
			<point x="141" y="205" type="curve" smooth="yes"/>
			<point x="90" y="205"/>
			<point x="23" y="175"/>
		</contour>
		<contour>
			<point x="93" y="100" type="curve" smooth="yes"/>
			<point x="93" y="127"/>
			<point x="119" y="135"/>
			<point x="141" y="135" type="curve" smooth="yes"/>
			<point x="191" y="135"/>
			<point x="199" y="108"/>
			<point x="201" y="63" type="curve"/>
			<point x="181" y="61"/>
			<point x="163" y="60"/>
			<point x="147" y="60" type="curve" smooth="yes"/>
			<point x="110" y="60"/>
			<point x="93" y="74"/>
		</contour>
	</outline>
</glyph>
<glyph name="R" format="2">
	<advance width="600"/>
	<unicode hex="0052"/>
	<note>
		R
	</note>
	<outline>
		<contour>
			<point x="554" y="194" type="curve" smooth="yes"/>
			<point x="542" y="202"/>
			<point x="532" y="203"/>
			<point x="514" y="188" type="curve" smooth="yes"/>
			<point x="478" y="158"/>
			<point x="429" y="116"/>
			<point x="396" y="88" type="curve"/>
			<point x="406" y="157" type="line"/>
			<point x="409" y="190"/>
			<point x="406" y="231"/>
			<point x="374" y="273" type="curve"/>
			<point x="456" y="320"/>
			<point x="552" y="394"/>
			<point x="552" y="476" type="curve" smooth="yes"/>
			<point x="552" y="554"/>
			<point x="511" y="604"/>
			<point x="420" y="604" type="curve" smooth="yes"/>
			<point x="341" y="604"/>
			<point x="261" y="501"/>
			<point x="211" y="428" type="curve"/>
			<point x="237" y="526" type="line" smooth="yes"/>
			<point x="253" y="585"/>
			<point x="252" y="603"/>
			<point x="217" y="603" type="curve" smooth="yes"/>
			<point x="179" y="603"/>
			<point x="172" y="579"/>
			<point x="165" y="551" type="curve" smooth="yes"/>
			<point x="34" y="45" type="line" smooth="yes"/>
			<point x="27" y="18"/>
			<point x="34" y="-13"/>
			<point x="63" y="-13" type="curve" smooth="yes"/>
			<point x="96" y="-13"/>
			<point x="102" y="12"/>
			<point x="112" y="49" type="curve" smooth="yes"/>
			<point x="161" y="235" type="line"/>
			<point x="211" y="329"/>
			<point x="345" y="534"/>
			<point x="420" y="534" type="curve" smooth="yes"/>
			<point x="466" y="534"/>
			<point x="482" y="515"/>
			<point x="482" y="476" type="curve" smooth="yes"/>
			<point x="482" y="411"/>
			<point x="330" y="329"/>
			<point x="267" y="291" type="curve"/>
			<point x="315" y="242" type="line" smooth="yes"/>
			<point x="346" y="210"/>
			<point x="343" y="170"/>
			<point x="328" y="116" type="curve" smooth="yes"/>
			<point x="307" y="39" type="line" smooth="yes"/>
			<point x="300" y="13"/>
			<point x="315" y="-8"/>
			<point x="342" y="-13" type="curve" smooth="yes"/>
			<point x="364" y="-17"/>
			<point x="387" y="-2"/>
			<point x="408" y="15" type="curve" smooth="yes"/>
			<point x="475" y="69"/>
			<point x="518" y="108"/>
			<point x="557" y="141" type="curve" smooth="yes"/>
			<point x="570" y="152"/>
			<point x="571" y="183"/>
		</contour>
	</outline>
</glyph>
<glyph name="S" format="2">
	<advance width="600"/>
	<unicode hex="0053"/>
	<note>
		S
	</note>
	<outline>
		<contour>
			<point x="32" y="0" type="curve" smooth="yes"/>
			<point x="32" y="-96"/>
			<point x="114" y="-173"/>
			<point x="219" y="-173" type="curve" smooth="yes"/>
			<point x="321" y="-173"/>
			<point x="432" y="-129"/>
			<point x="471" y="0" type="curve" smooth="yes"/>
			<point x="504" y="109"/>
			<point x="394" y="243"/>
			<point x="333" y="309" type="curve" smooth="yes"/>
			<point x="303" y="341"/>
			<point x="270" y="399"/>
			<point x="283" y="460" type="curve" smooth="yes"/>
			<point x="299" y="536"/>
			<point x="370" y="533"/>
			<point x="409" y="533" type="curve" smooth="yes"/>
			<point x="464" y="533"/>
			<point x="495" y="510"/>
			<point x="495" y="457" type="curve" smooth="yes"/>
			<point x="495" y="412"/>
			<point x="509" y="399"/>
			<point x="531" y="399" type="curve" smooth="yes"/>
			<point x="555" y="399"/>
			<point x="566" y="412"/>
			<point x="566" y="457" type="curve" smooth="yes"/>
			<point x="566" y="570"/>
			<point x="481" y="603"/>
			<point x="409" y="603" type="curve" smooth="yes"/>
			<point x="357" y="603"/>
			<point x="238" y="598"/>
			<point x="211" y="462" type="curve" smooth="yes"/>
			<point x="192" y="366"/>
			<point x="240" y="304"/>
			<point x="275" y="268" type="curve" smooth="yes"/>
			<point x="343" y="198"/>
			<point x="432" y="88"/>
			<point x="401" y="0" type="curve" smooth="yes"/>
			<point x="372" y="-83"/>
			<point x="280" y="-103"/>
			<point x="219" y="-103" type="curve" smooth="yes"/>
			<point x="159" y="-103"/>
			<point x="102" y="-60"/>
			<point x="102" y="0" type="curve" smooth="yes"/>
			<point x="102" y="44"/>
			<point x="111" y="107"/>
			<point x="198" y="107" type="curve" smooth="yes"/>
			<point x="234" y="107"/>
			<point x="254" y="118"/>
			<point x="254" y="142" type="curve" smooth="yes"/>
			<point x="254" y="172"/>
			<point x="234" y="177"/>
			<point x="198" y="177" type="curve" smooth="yes"/>
			<point x="72" y="177"/>
			<point x="32" y="88"/>
		</contour>
	</outline>
</glyph>
<glyph name="T" format="2">
	<advance width="600"/>
	<unicode hex="0054"/>
	<note>
		T
	</note>
	<outline>
		<contour>
			<point x="596" y="579" type="curve" smooth="yes"/>
			<point x="583" y="601"/>
			<point x="561" y="603"/>
			<point x="546" y="603" type="curve" smooth="yes"/>
			<point x="302" y="603" type="line" smooth="yes"/>
			<point x="123" y="603"/>
			<point x="46" y="531"/>
			<point x="46" y="430" type="curve" smooth="yes"/>
			<point x="46" y="405"/>
			<point x="56" y="383"/>
			<point x="82" y="383" type="curve" smooth="yes"/>
			<point x="106" y="383"/>
			<point x="117" y="406"/>
			<point x="117" y="430" type="curve" smooth="yes"/>
			<point x="117" y="494"/>
			<point x="171" y="533"/>
			<point x="318" y="533" type="curve"/>
			<point x="272" y="351"/>
			<point x="251" y="270"/>
			<point x="218" y="146" type="curve" smooth="yes"/>
			<point x="213" y="126"/>
			<point x="208" y="105"/>
			<point x="196" y="88" type="curve" smooth="yes"/>
			<point x="181" y="67"/>
			<point x="161" y="58"/>
			<point x="121" y="58" type="curve" smooth="yes"/>
			<point x="93" y="58"/>
			<point x="80" y="45"/>
			<point x="80" y="21" type="curve" smooth="yes"/>
			<point x="80" y="1"/>
			<point x="93" y="-13"/>
			<point x="121" y="-13" type="curve" smooth="yes"/>
			<point x="190" y="-13"/>
			<point x="233" y="11"/>
			<point x="264" y="60" type="curve" smooth="yes"/>
			<point x="282" y="88"/>
			<point x="288" y="105"/>
			<point x="298" y="146" type="curve" smooth="yes"/>
			<point x="334" y="281"/>
			<point x="361" y="388"/>
			<point x="399" y="533" type="curve"/>
			<point x="527" y="533" type="line"/>
			<point x="507" y="455" type="line" smooth="yes"/>
			<point x="501" y="429"/>
			<point x="523" y="419"/>
			<point x="539" y="419" type="curve" smooth="yes"/>
			<point x="552" y="419"/>
			<point x="572" y="427"/>
			<point x="578" y="455" type="curve" smooth="yes"/>
			<point x="592" y="517" type="line" smooth="yes"/>
			<point x="597" y="541"/>
			<point x="604" y="566"/>
		</contour>
	</outline>
</glyph>
<glyph name="V" format="2">
	<advance width="600"/>
	<unicode hex="0056"/>
	<note>
		V
	</note>
	<outline>
		<contour>
			<point x="559" y="476" type="curve" smooth="yes"/>
			<point x="519" y="476"/>
			<point x="499" y="485"/>
			<point x="484" y="506" type="curve" smooth="yes"/>
			<point x="472" y="523"/>
			<point x="467" y="544"/>
			<point x="462" y="564" type="curve"/>
			<point x="454" y="591"/>
			<point x="441" y="603"/>
			<point x="422" y="603" type="curve" smooth="yes"/>
			<point x="403" y="603"/>
			<point x="382" y="586"/>
			<point x="386" y="558" type="curve"/>
			<point x="396" y="517"/>
			<point x="398" y="506"/>
			<point x="416" y="478" type="curve" smooth="yes"/>
			<point x="428" y="460"/>
			<point x="441" y="445"/>
			<point x="457" y="433" type="curve"/>
			<point x="366" y="246"/>
			<point x="267" y="61"/>
			<point x="175" y="61" type="curve" smooth="yes"/>
			<point x="132" y="61"/>
			<point x="130" y="88"/>
			<point x="154" y="172" type="curve" smooth="yes"/>
			<point x="260" y="549" type="line" smooth="yes"/>
			<point x="267" y="575"/>
			<point x="252" y="596"/>
			<point x="225" y="601" type="curve" smooth="yes"/>
			<point x="203" y="605"/>
			<point x="180" y="590"/>
			<point x="159" y="573" type="curve" smooth="yes"/>
			<point x="92" y="519"/>
			<point x="129" y="548"/>
			<point x="90" y="515" type="curve" smooth="yes"/>
			<point x="77" y="504"/>
			<point x="76" y="473"/>
			<point x="93" y="462" type="curve" smooth="yes"/>
			<point x="105" y="454"/>
			<point x="115" y="453"/>
			<point x="133" y="468" type="curve" smooth="yes"/>
			<point x="171" y="500" type="line"/>
			<point x="71" y="145" type="line" smooth="yes"/>
			<point x="44" y="47"/>
			<point x="58" y="-14"/>
			<point x="165" y="-14" type="curve" smooth="yes"/>
			<point x="304" y="-14"/>
			<point x="361" y="97"/>
			<point x="520" y="408" type="curve"/>
			<point x="532" y="406"/>
			<point x="545" y="405"/>
			<point x="559" y="405" type="curve" smooth="yes"/>
			<point x="587" y="405"/>
			<point x="600" y="419"/>
			<point x="600" y="439" type="curve" smooth="yes"/>
			<point x="600" y="463"/>
			<point x="587" y="476"/>
		</contour>
	</outline>
</glyph>
<glyph name="W" format="2">
	<advance width="600"/>
	<unicode hex="0057"/>
	<note>
		W
	</note>
	<outline>
		<contour>
			<point x="559" y="476" type="curve" smooth="yes"/>
			<point x="519" y="476"/>
			<point x="499" y="485"/>
			<point x="484" y="506" type="curve" smooth="yes"/>
			<point x="472" y="523"/>
			<point x="467" y="544"/>
			<point x="462" y="564" type="curve"/>
			<point x="454" y="591"/>
			<point x="441" y="603"/>
			<point x="422" y="603" type="curve" smooth="yes"/>
			<point x="403" y="603"/>
			<point x="382" y="586"/>
			<point x="386" y="558" type="curve"/>
			<point x="396" y="517"/>
			<point x="398" y="506"/>
			<point x="416" y="478" type="curve" smooth="yes"/>
			<point x="434" y="451"/>
			<point x="454" y="432"/>
			<point x="481" y="420" type="curve"/>
			<point x="423" y="209"/>
			<point x="377" y="62"/>
			<point x="313" y="62" type="curve" smooth="yes"/>
			<point x="274" y="62"/>
			<point x="288" y="140"/>
			<point x="348" y="369" type="curve" smooth="yes"/>
			<point x="356" y="400"/>
			<point x="348" y="414"/>
			<point x="327" y="416" type="curve" smooth="yes"/>
			<point x="307" y="418"/>
			<point x="285" y="405"/>
			<point x="279" y="383" type="curve" smooth="yes"/>
			<point x="272" y="355"/>
			<point x="264" y="328"/>
			<point x="258" y="303" type="curve" smooth="yes"/>
			<point x="225" y="181"/>
			<point x="142" y="62"/>
			<point x="98" y="62" type="curve" smooth="yes"/>
			<point x="62" y="62"/>
			<point x="77" y="171"/>
			<point x="108" y="282" type="curve" smooth="yes"/>
			<point x="183" y="549" type="line" smooth="yes"/>
			<point x="190" y="575"/>
			<point x="175" y="596"/>
			<point x="148" y="601" type="curve" smooth="yes"/>
			<point x="126" y="605"/>
			<point x="103" y="590"/>
			<point x="82" y="573" type="curve" smooth="yes"/>
			<point x="15" y="519"/>
			<point x="52" y="548"/>
			<point x="13" y="515" type="curve" smooth="yes"/>
			<point x="0" y="504"/>
			<point x="-1" y="473"/>
			<point x="16" y="462" type="curve" smooth="yes"/>
			<point x="28" y="454"/>
			<point x="38" y="453"/>
			<point x="56" y="468" type="curve" smooth="yes"/>
			<point x="94" y="500" type="line"/>
			<point x="25" y="255" type="line" smooth="yes"/>
			<point x="-10" y="131"/>
			<point x="-12" y="-13"/>
			<point x="88" y="-13" type="curve" smooth="yes"/>
			<point x="135" y="-13"/>
			<point x="182" y="23"/>
			<point x="226" y="89" type="curve"/>
			<point x="232" y="33"/>
			<point x="254" y="-13"/>
			<point x="303" y="-13" type="curve" smooth="yes"/>
			<point x="440" y="-13"/>
			<point x="477" y="146"/>
			<point x="549" y="405" type="curve"/>
			<point x="559" y="405" type="line" smooth="yes"/>
			<point x="587" y="405"/>
			<point x="600" y="419"/>
			<point x="600" y="439" type="curve" smooth="yes"/>
			<point x="600" y="463"/>
			<point x="587" y="476"/>
		</contour>
	</outline>
</glyph>
<glyph name="backslash" format="2">
	<advance width="600"/>
	<unicode hex="005C"/>
	<note>
		backslash
	</note>
	<outline>
		<contour>
			<point x="254" y="555" type="curve"/>
			<point x="424" y="-133" type="line" smooth="yes"/>
			<point x="429" y="-155"/>
			<point x="416" y="-172"/>
			<point x="395" y="-175" type="curve" smooth="yes"/>
			<point x="374" y="-178"/>
			<point x="353" y="-161"/>
			<point x="348" y="-136" type="curve"/>
			<point x="177" y="555" type="line" smooth="yes"/>
			<point x="172" y="576"/>
			<point x="177" y="603"/>
			<point x="203" y="603" type="curve" smooth="yes"/>
			<point x="228" y="603"/>
			<point x="248" y="584"/>
		</contour>
	</outline>
</glyph>
<glyph name="asciicircum" format="2">
	<advance width="600"/>
	<unicode hex="005E"/>
	<note>
		asciicircum
	</note>
	<outline>
		<contour>
			<point x="472" y="456" type="curve" smooth="yes"/>
			<point x="300" y="603" type="line"/>
			<point x="128" y="456" type="line" smooth="yes"/>
			<point x="102" y="433"/>
			<point x="95" y="415"/>
			<point x="109" y="400" type="curve" smooth="yes"/>
			<point x="122" y="386"/>
			<point x="140" y="384"/>
			<point x="169" y="408" type="curve" smooth="yes"/>
			<point x="300" y="518" type="line"/>
			<point x="431" y="408" type="line" smooth="yes"/>
			<point x="460" y="384"/>
			<point x="478" y="386"/>
			<point x="491" y="400" type="curve" smooth="yes"/>
			<point x="505" y="415"/>
			<point x="498" y="433"/>
		</contour>
	</outline>
</glyph>
<glyph name="grave" format="2">
	<advance width="600"/>
	<unicode hex="0060"/>
	<note>
		grave
	</note>
	<outline>
		<contour>
			<point x="199" y="578" type="curve" smooth="yes"/>
			<point x="196" y="563"/>
			<point x="195" y="542"/>
			<point x="221" y="536" type="curve"/>
			<point x="462" y="499" type="line"/>
			<point x="490" y="492"/>
			<point x="500" y="507"/>
			<point x="502" y="521" type="curve" smooth="yes"/>
			<point x="504" y="533"/>
			<point x="497" y="550"/>
			<point x="472" y="555" type="curve" smooth="yes"/>
			<point x="238" y="602" type="line"/>
			<point x="215" y="608"/>
			<point x="201" y="588"/>
		</contour>
	</outline>
</glyph>
<glyph name="b" format="2">
	<advance width="600"/>
	<unicode hex="0062"/>
	<note>
		b
	</note>
	<outline>
		<contour>
			<point x="166" y="567" type="curve" smooth="yes"/>
			<point x="25" y="25" type="line" smooth="yes"/>
			<point x="20" y="5"/>
			<point x="32" y="-13"/>
			<point x="56" y="-13" type="curve" smooth="yes"/>
			<point x="79" y="-13"/>
			<point x="97" y="6"/>
			<point x="106" y="20" type="curve" smooth="yes"/>
			<point x="229" y="203"/>
			<point x="421" y="368"/>
			<point x="454" y="368" type="curve" smooth="yes"/>
			<point x="489" y="368"/>
			<point x="487" y="303"/>
			<point x="489" y="279" type="curve" smooth="yes"/>
			<point x="500" y="119"/>
			<point x="478" y="38"/>
			<point x="266" y="65" type="curve" smooth="yes"/>
			<point x="216" y="71"/>
			<point x="214" y="1"/>
			<point x="266" y="-5" type="curve" smooth="yes"/>
			<point x="384" y="-18"/>
			<point x="449" y="6"/>
			<point x="498" y="47" type="curve" smooth="yes"/>
			<point x="720" y="236" type="line" smooth="yes"/>
			<point x="740" y="253"/>
			<point x="752" y="273"/>
			<point x="742" y="292" type="curve" smooth="yes"/>
			<point x="733" y="309"/>
			<point x="712" y="310"/>
			<point x="694" y="295" type="curve" smooth="yes"/>
			<point x="557" y="179" type="line"/>
			<point x="561" y="209"/>
			<point x="562" y="243"/>
			<point x="561" y="277" type="curve" smooth="yes"/>
			<point x="559" y="343"/>
			<point x="536" y="442"/>
			<point x="449" y="442" type="curve" smooth="yes"/>
			<point x="384" y="442"/>
			<point x="261" y="307"/>
			<point x="145" y="192" type="curve"/>
			<point x="243" y="568" type="line" smooth="yes"/>
			<point x="246" y="580"/>
			<point x="237" y="603"/>
			<point x="210" y="603" type="curve" smooth="yes"/>
			<point x="188" y="603"/>
			<point x="170" y="582"/>
		</contour>
	</outline>
</glyph>
<glyph name="c" format="2">
	<advance width="600"/>
	<unicode hex="0063"/>
	<note>
		c
	</note>
	<outline>
		<contour>
			<point x="50" y="162" type="curve" smooth="yes"/>
			<point x="50" y="12"/>
			<point x="129" y="-13"/>
			<point x="238" y="-13" type="curve" smooth="yes"/>
			<point x="375" y="-13"/>
			<point x="496" y="46"/>
			<point x="637" y="165" type="curve" smooth="yes"/>
			<point x="710" y="227" type="line"/>
			<point x="720" y="236" type="line" smooth="yes"/>
			<point x="739" y="252"/>
			<point x="752" y="273"/>
			<point x="742" y="292" type="curve" smooth="yes"/>
			<point x="733" y="309"/>
			<point x="712" y="310"/>
			<point x="694" y="295" type="curve" smooth="yes"/>
			<point x="604" y="218" type="line" smooth="yes"/>
			<point x="484" y="116"/>
			<point x="352" y="51"/>
			<point x="243" y="51" type="curve" smooth="yes"/>
			<point x="152" y="51"/>
			<point x="119" y="84"/>
			<point x="119" y="166" type="curve" smooth="yes"/>
			<point x="119" y="258"/>
			<point x="240" y="383"/>
			<point x="340" y="383" type="curve" smooth="yes"/>
			<point x="420" y="383"/>
			<point x="405" y="297"/>
			<point x="335" y="241" type="curve" smooth="yes"/>
			<point x="318" y="227"/>
			<point x="320" y="205"/>
			<point x="335" y="194" type="curve" smooth="yes"/>
			<point x="353" y="181"/>
			<point x="379" y="191"/>
			<point x="405" y="213" type="curve" smooth="yes"/>
			<point x="508" y="301"/>
			<point x="481" y="444"/>
			<point x="338" y="444" type="curve" smooth="yes"/>
			<point x="202" y="444"/>
			<point x="50" y="293"/>
		</contour>
	</outline>
</glyph>
<glyph name="g" format="2">
	<advance width="600"/>
	<unicode hex="0067"/>
	<note>
		g
	</note>
	<outline>
		<contour>
			<point x="49" y="100" type="curve" smooth="yes"/>
			<point x="49" y="34"/>
			<point x="74" y="-12"/>
			<point x="138" y="-12" type="curve" smooth="yes"/>
			<point x="197" y="-12"/>
			<point x="302" y="127"/>
			<point x="407" y="244" type="curve"/>
			<point x="371" y="89" type="line" smooth="yes"/>
			<point x="353" y="11"/>
			<point x="338" y="-10"/>
			<point x="269" y="-69" type="curve" smooth="yes"/>
			<point x="239" y="-95"/>
			<point x="213" y="-109"/>
			<point x="184" y="-110" type="curve" smooth="yes"/>
			<point x="164" y="-111"/>
			<point x="149" y="-122"/>
			<point x="149" y="-139" type="curve" smooth="yes"/>
			<point x="149" y="-161"/>
			<point x="165" y="-173"/>
			<point x="191" y="-173" type="curve" smooth="yes"/>
			<point x="220" y="-173"/>
			<point x="252" y="-165"/>
			<point x="414" y="-26" type="curve" smooth="yes"/>
			<point x="720" y="236" type="line" smooth="yes"/>
			<point x="740" y="253"/>
			<point x="752" y="273"/>
			<point x="742" y="292" type="curve" smooth="yes"/>
			<point x="733" y="309"/>
			<point x="712" y="310"/>
			<point x="694" y="295" type="curve" smooth="yes"/>
			<point x="437" y="76" type="line"/>
			<point x="494" y="297" type="line" smooth="yes"/>
			<point x="501" y="324"/>
			<point x="483" y="345"/>
			<point x="457" y="345" type="curve" smooth="yes"/>
			<point x="434" y="345"/>
			<point x="413" y="333"/>
			<point x="402" y="322" type="curve" smooth="yes"/>
			<point x="199" y="119"/>
			<point x="177" y="62"/>
			<point x="150" y="62" type="curve" smooth="yes"/>
			<point x="129" y="62"/>
			<point x="121" y="74"/>
			<point x="121" y="98" type="curve" smooth="yes"/>
			<point x="121" y="241"/>
			<point x="230" y="374"/>
			<point x="397" y="374" type="curve" smooth="yes"/>
			<point x="442" y="374"/>
			<point x="472" y="363"/>
			<point x="498" y="352" type="curve" smooth="yes"/>
			<point x="508" y="348"/>
			<point x="529" y="351"/>
			<point x="538" y="365" type="curve" smooth="yes"/>
			<point x="548" y="380"/>
			<point x="549" y="398"/>
			<point x="538" y="407" type="curve"/>
			<point x="506" y="431"/>
			<point x="465" y="443"/>
			<point x="398" y="443" type="curve" smooth="yes"/>
			<point x="173" y="443"/>
			<point x="49" y="270"/>
		</contour>
	</outline>
</glyph>
<glyph name="h" format="2">
	<advance width="600"/>
	<unicode hex="0068"/>
	<note>
		h
	</note>
	<outline>
		<contour>
			<point x="168" y="570" type="curve" smooth="yes"/>
			<point x="33" y="40" type="line" smooth="yes"/>
			<point x="25" y="9"/>
			<point x="38" y="-13"/>
			<point x="68" y="-13" type="curve" smooth="yes"/>
			<point x="94" y="-13"/>
			<point x="113" y="5"/>
			<point x="131" y="34" type="curve" smooth="yes"/>
			<point x="303" y="316"/>
			<point x="366" y="374"/>
			<point x="408" y="374" type="curve" smooth="yes"/>
			<point x="429" y="374"/>
			<point x="436" y="363"/>
			<point x="431" y="342" type="curve" smooth="yes"/>
			<point x="357" y="58" type="line" smooth="yes"/>
			<point x="345" y="12"/>
			<point x="355" y="-13"/>
			<point x="391" y="-13" type="curve" smooth="yes"/>
			<point x="427" y="-13"/>
			<point x="443" y="-1"/>
			<point x="485" y="35" type="curve" smooth="yes"/>
			<point x="720" y="236" type="line" smooth="yes"/>
			<point x="740" y="254"/>
			<point x="752" y="273"/>
			<point x="742" y="292" type="curve" smooth="yes"/>
			<point x="733" y="309"/>
			<point x="712" y="310"/>
			<point x="694" y="295" type="curve" smooth="yes"/>
			<point x="437" y="76" type="line"/>
			<point x="505" y="337" type="line" smooth="yes"/>
			<point x="522" y="402"/>
			<point x="495" y="446"/>
			<point x="434" y="446" type="curve" smooth="yes"/>
			<point x="363" y="446"/>
			<point x="325" y="419"/>
			<point x="279" y="367" type="curve" smooth="yes"/>
			<point x="241" y="325"/>
			<point x="196" y="259"/>
			<point x="137" y="160" type="curve"/>
			<point x="244" y="562" type="line" smooth="yes"/>
			<point x="248" y="576"/>
			<point x="243" y="602"/>
			<point x="213" y="602" type="curve" smooth="yes"/>
			<point x="194" y="602"/>
			<point x="173" y="591"/>
		</contour>
	</outline>
</glyph>
<glyph name="j" format="2">
	<advance width="600"/>
	<unicode hex="006A"/>
	<note>
		j
	</note>
	<outline>
		<contour>
			<point x="392" y="489" type="curve" smooth="yes"/>
			<point x="426" y="489"/>
			<point x="452" y="515"/>
			<point x="452" y="545" type="curve" smooth="yes"/>
			<point x="452" y="582"/>
			<point x="431" y="606"/>
			<point x="392" y="606" type="curve" smooth="yes"/>
			<point x="357" y="606"/>
			<point x="332" y="581"/>
			<point x="332" y="543" type="curve" smooth="yes"/>
			<point x="332" y="514"/>
			<point x="361" y="489"/>
		</contour>
		<contour>
			<point x="29" y="-139" type="curve" smooth="yes"/>
			<point x="29" y="-161"/>
			<point x="45" y="-173"/>
			<point x="71" y="-173" type="curve" smooth="yes"/>
			<point x="183" y="-173"/>
			<point x="269" y="-64"/>
			<point x="300" y="4" type="curve"/>
			<point x="320" y="-13"/>
			<point x="343" y="-13"/>
			<point x="359" y="-13" type="curve" smooth="yes"/>
			<point x="403" y="-13"/>
			<point x="452" y="7"/>
			<point x="497" y="45" type="curve" smooth="yes"/>
			<point x="734" y="246" type="line"/>
			<point x="733" y="245"/>
			<point x="746" y="256"/>
			<point x="746" y="272" type="curve" smooth="yes"/>
			<point x="746" y="279"/>
			<point x="745" y="287"/>
			<point x="737" y="295" type="curve" smooth="yes"/>
			<point x="717" y="315"/>
			<point x="717" y="297"/>
			<point x="691" y="291" type="curve"/>
			<point x="552" y="173"/>
			<point x="483" y="111"/>
			<point x="440" y="79" type="curve" smooth="yes"/>
			<point x="408" y="55"/>
			<point x="391" y="48"/>
			<point x="371" y="48" type="curve" smooth="yes"/>
			<point x="337" y="48"/>
			<point x="311" y="70"/>
			<point x="325" y="127" type="curve" smooth="yes"/>
			<point x="378" y="346" type="line" smooth="yes"/>
			<point x="391" y="399"/>
			<point x="353" y="444"/>
			<point x="299" y="444" type="curve" smooth="yes"/>
			<point x="278" y="444"/>
			<point x="258" y="435"/>
			<point x="239" y="419" type="curve" smooth="yes"/>
			<point x="74" y="278" type="line"/>
			<point x="36" y="243"/>
			<point x="76" y="199"/>
			<point x="112" y="229" type="curve" smooth="yes"/>
			<point x="258" y="354" type="line" smooth="yes"/>
			<point x="274" y="368"/>
			<point x="282" y="374"/>
			<point x="292" y="374" type="curve" smooth="yes"/>
			<point x="309" y="374"/>
			<point x="316" y="360"/>
			<point x="310" y="336" type="curve" smooth="yes"/>
			<point x="251" y="89" type="line" smooth="yes"/>
			<point x="224" y="-24"/>
			<point x="142" y="-107"/>
			<point x="64" y="-110" type="curve" smooth="yes"/>
			<point x="44" y="-111"/>
			<point x="29" y="-122"/>
		</contour>
	</outline>
</glyph>
<glyph name="k" format="2">
	<advance width="600"/>
	<unicode hex="006B"/>
	<note>
		k
	</note>
	<outline>
		<contour>
			<point x="168" y="570" type="curve" smooth="yes"/>
			<point x="33" y="40" type="line" smooth="yes"/>
			<point x="25" y="9"/>
			<point x="38" y="-13"/>
			<point x="68" y="-13" type="curve" smooth="yes"/>
			<point x="94" y="-13"/>
			<point x="114" y="5"/>
			<point x="131" y="34" type="curve" smooth="yes"/>
			<point x="166" y="92"/>
			<point x="196" y="141"/>
			<point x="222" y="181" type="curve"/>
			<point x="298" y="69" type="line" smooth="yes"/>
			<point x="333" y="15"/>
			<point x="362" y="-13"/>
			<point x="391" y="-13" type="curve" smooth="yes"/>
			<point x="427" y="-13"/>
			<point x="443" y="-1"/>
			<point x="485" y="35" type="curve" smooth="yes"/>
			<point x="720" y="236" type="line" smooth="yes"/>
			<point x="740" y="254"/>
			<point x="752" y="273"/>
			<point x="742" y="292" type="curve" smooth="yes"/>
			<point x="733" y="309"/>
			<point x="712" y="310"/>
			<point x="694" y="295" type="curve" smooth="yes"/>
			<point x="625" y="236"/>
			<point x="552" y="174"/>
			<point x="484" y="115" type="curve"/>
			<point x="472" y="107"/>
			<point x="421" y="56"/>
			<point x="397" y="56" type="curve" smooth="yes"/>
			<point x="383" y="56"/>
			<point x="336" y="134"/>
			<point x="306" y="184" type="curve"/>
			<point x="435" y="201"/>
			<point x="512" y="274"/>
			<point x="512" y="362" type="curve" smooth="yes"/>
			<point x="512" y="413"/>
			<point x="476" y="443"/>
			<point x="425" y="443" type="curve" smooth="yes"/>
			<point x="353" y="443"/>
			<point x="287" y="412"/>
			<point x="137" y="160" type="curve"/>
			<point x="242" y="564" type="line" smooth="yes"/>
			<point x="247" y="582"/>
			<point x="243" y="603"/>
			<point x="215" y="603" type="curve" smooth="yes"/>
			<point x="192" y="603"/>
			<point x="173" y="590"/>
		</contour>
		<contour>
			<point x="265" y="242" type="curve" smooth="yes"/>
			<point x="263" y="242" type="line"/>
			<point x="338" y="347"/>
			<point x="378" y="374"/>
			<point x="406" y="374" type="curve" smooth="yes"/>
			<point x="427" y="374"/>
			<point x="436" y="359"/>
			<point x="436" y="344" type="curve" smooth="yes"/>
			<point x="436" y="279"/>
			<point x="342" y="242"/>
		</contour>
	</outline>
</glyph>
<glyph name="l" format="2">
	<advance width="600"/>
	<unicode hex="006C"/>
	<note>
		l
	</note>
	<outline>
		<contour>
			<point x="742" y="292" type="curve" smooth="yes"/>
			<point x="733" y="309"/>
			<point x="712" y="310"/>
			<point x="694" y="295" type="curve" smooth="yes"/>
			<point x="507" y="136" type="line" smooth="yes"/>
			<point x="443" y="81"/>
			<point x="367" y="55"/>
			<point x="321" y="55" type="curve" smooth="yes"/>
			<point x="270" y="55"/>
			<point x="255" y="83"/>
			<point x="267" y="133" type="curve" smooth="yes"/>
			<point x="336" y="416" type="line"/>
			<point x="408" y="472"/>
			<point x="442" y="512"/>
			<point x="442" y="551" type="curve" smooth="yes"/>
			<point x="442" y="577"/>
			<point x="425" y="603"/>
			<point x="388" y="603" type="curve" smooth="yes"/>
			<point x="336" y="603"/>
			<point x="295" y="571"/>
			<point x="281" y="512" type="curve" smooth="yes"/>
			<point x="263" y="438" type="line"/>
			<point x="13" y="226" type="line" smooth="yes"/>
			<point x="1" y="216"/>
			<point x="-6" y="201"/>
			<point x="10" y="183" type="curve" smooth="yes"/>
			<point x="27" y="164"/>
			<point x="45" y="173"/>
			<point x="58" y="183" type="curve"/>
			<point x="242" y="343" type="line"/>
			<point x="242" y="341" type="line"/>
			<point x="193" y="137" type="line" smooth="yes"/>
			<point x="172" y="49"/>
			<point x="207" y="-13"/>
			<point x="313" y="-13" type="curve" smooth="yes"/>
			<point x="363" y="-13"/>
			<point x="457" y="11"/>
			<point x="549" y="90" type="curve" smooth="yes"/>
			<point x="720" y="236" type="line" smooth="yes"/>
			<point x="740" y="253"/>
			<point x="752" y="273"/>
		</contour>
	</outline>
</glyph>
<glyph name="m" format="2">
	<advance width="600"/>
	<unicode hex="006D"/>
	<note>
		m
	</note>
	<outline>
		<contour>
			<point x="112" y="407" type="curve" smooth="yes"/>
			<point x="16" y="42" type="line" smooth="yes"/>
			<point x="8" y="11"/>
			<point x="16" y="-13"/>
			<point x="44" y="-13" type="curve" smooth="yes"/>
			<point x="72" y="-13"/>
			<point x="80" y="19"/>
			<point x="86" y="41" type="curve" smooth="yes"/>
			<point x="147" y="274" type="line"/>
			<point x="173" y="340"/>
			<point x="263" y="391"/>
			<point x="278" y="376" type="curve" smooth="yes"/>
			<point x="286" y="368"/>
			<point x="268" y="299"/>
			<point x="260" y="270" type="curve" smooth="yes"/>
			<point x="200" y="42" type="line" smooth="yes"/>
			<point x="192" y="11"/>
			<point x="200" y="-13"/>
			<point x="228" y="-13" type="curve" smooth="yes"/>
			<point x="255" y="-13"/>
			<point x="264" y="19"/>
			<point x="270" y="41" type="curve" smooth="yes"/>
			<point x="330" y="265" type="line" smooth="yes"/>
			<point x="349" y="336"/>
			<point x="447" y="393"/>
			<point x="462" y="376" type="curve" smooth="yes"/>
			<point x="469" y="368"/>
			<point x="451" y="300"/>
			<point x="443" y="271" type="curve" smooth="yes"/>
			<point x="383" y="42" type="line" smooth="yes"/>
			<point x="375" y="11"/>
			<point x="383" y="-13"/>
			<point x="411" y="-13" type="curve" smooth="yes"/>
			<point x="429" y="-13"/>
			<point x="434" y="-8"/>
			<point x="444" y="0" type="curve" smooth="yes"/>
			<point x="720" y="236" type="line" smooth="yes"/>
			<point x="740" y="253"/>
			<point x="752" y="273"/>
			<point x="742" y="292" type="curve" smooth="yes"/>
			<point x="733" y="309"/>
			<point x="712" y="310"/>
			<point x="694" y="295" type="curve" smooth="yes"/>
			<point x="470" y="105" type="line"/>
			<point x="514" y="265" type="line" smooth="yes"/>
			<point x="531" y="328"/>
			<point x="545" y="387"/>
			<point x="510" y="426" type="curve" smooth="yes"/>
			<point x="480" y="459"/>
			<point x="407" y="438"/>
			<point x="346" y="388" type="curve"/>
			<point x="331" y="461"/>
			<point x="254" y="453"/>
			<point x="181" y="402" type="curve"/>
			<point x="189" y="433"/>
			<point x="183" y="443"/>
			<point x="156" y="443" type="curve" smooth="yes"/>
			<point x="132" y="443"/>
			<point x="118" y="428"/>
		</contour>
	</outline>
</glyph>
<glyph name="r" format="2">
	<advance width="600"/>
	<unicode hex="0072"/>
	<note>
		r
	</note>
	<outline>
		<contour>
			<point x="3" y="184" type="curve" smooth="yes"/>
			<point x="14" y="158"/>
			<point x="38" y="167"/>
			<point x="54" y="181" type="curve" smooth="yes"/>
			<point x="280" y="377" type="line"/>
			<point x="335" y="353" type="line" smooth="yes"/>
			<point x="352" y="346"/>
			<point x="364" y="330"/>
			<point x="349" y="303" type="curve" smooth="yes"/>
			<point x="266" y="152" type="line" smooth="yes"/>
			<point x="214" y="57"/>
			<point x="256" y="-13"/>
			<point x="344" y="-13" type="curve" smooth="yes"/>
			<point x="404" y="-13"/>
			<point x="459" y="12"/>
			<point x="505" y="52" type="curve" smooth="yes"/>
			<point x="720" y="236" type="line" smooth="yes"/>
			<point x="740" y="253"/>
			<point x="752" y="273"/>
			<point x="742" y="292" type="curve" smooth="yes"/>
			<point x="733" y="309"/>
			<point x="712" y="310"/>
			<point x="694" y="295" type="curve" smooth="yes"/>
			<point x="456" y="92" type="line"/>
			<point x="424" y="67"/>
			<point x="389" y="48"/>
			<point x="358" y="48" type="curve" smooth="yes"/>
			<point x="312" y="48"/>
			<point x="300" y="82"/>
			<point x="325" y="128" type="curve" smooth="yes"/>
			<point x="428" y="319" type="line" smooth="yes"/>
			<point x="454" y="367"/>
			<point x="403" y="400"/>
			<point x="353" y="420" type="curve" smooth="yes"/>
			<point x="298" y="442" type="line"/>
			<point x="278" y="541" type="line" smooth="yes"/>
			<point x="271" y="575"/>
			<point x="201" y="569"/>
			<point x="212" y="522" type="curve" smooth="yes"/>
			<point x="236" y="419" type="line"/>
			<point x="30" y="242" type="line" smooth="yes"/>
			<point x="11" y="226"/>
			<point x="-5" y="203"/>
		</contour>
	</outline>
</glyph>
<glyph name="t" format="2">
	<advance width="600"/>
	<unicode hex="0074"/>
	<note>
		t
	</note>
	<outline>
		<contour>
			<point x="742" y="292" type="curve" smooth="yes"/>
			<point x="733" y="309"/>
			<point x="712" y="310"/>
			<point x="694" y="295" type="curve" smooth="yes"/>
			<point x="444" y="82" type="line" smooth="yes"/>
			<point x="413" y="57"/>
			<point x="391" y="48"/>
			<point x="371" y="48" type="curve" smooth="yes"/>
			<point x="337" y="48"/>
			<point x="311" y="70"/>
			<point x="325" y="127" type="curve" smooth="yes"/>
			<point x="385" y="374" type="line"/>
			<point x="564" y="374" type="line" smooth="yes"/>
			<point x="603" y="374"/>
			<point x="620" y="443"/>
			<point x="564" y="443" type="curve" smooth="yes"/>
			<point x="401" y="443" type="line"/>
			<point x="412" y="487"/>
			<point x="422" y="533"/>
			<point x="427" y="551" type="curve" smooth="yes"/>
			<point x="435" y="584"/>
			<point x="433" y="603"/>
			<point x="405" y="603" type="curve" smooth="yes"/>
			<point x="387" y="603"/>
			<point x="371" y="590"/>
			<point x="364" y="558" type="curve" smooth="yes"/>
			<point x="336" y="443" type="line"/>
			<point x="299" y="443" type="line" smooth="yes"/>
			<point x="278" y="443"/>
			<point x="258" y="435"/>
			<point x="239" y="419" type="curve" smooth="yes"/>
			<point x="74" y="278" type="line"/>
			<point x="36" y="243"/>
			<point x="75" y="199"/>
			<point x="112" y="229" type="curve" smooth="yes"/>
			<point x="258" y="354" type="line" smooth="yes"/>
			<point x="274" y="368"/>
			<point x="282" y="374"/>
			<point x="292" y="374" type="curve" smooth="yes"/>
			<point x="319" y="374" type="line"/>
			<point x="256" y="110" type="line" smooth="yes"/>
			<point x="238" y="35"/>
			<point x="287" y="-13"/>
			<point x="359" y="-13" type="curve" smooth="yes"/>
			<point x="403" y="-13"/>
			<point x="452" y="7"/>
			<point x="497" y="45" type="curve" smooth="yes"/>
			<point x="720" y="236" type="line" smooth="yes"/>
			<point x="740" y="253"/>
			<point x="752" y="273"/>
		</contour>
	</outline>
</glyph>
<glyph name="u" format="2">
	<advance width="600"/>
	<unicode hex="0075"/>
	<note>
		u
	</note>
	<outline>
		<contour>
			<point x="40" y="92" type="curve" smooth="yes"/>
			<point x="32" y="24"/>
			<point x="92" y="-13"/>
			<point x="143" y="-13" type="curve" smooth="yes"/>
			<point x="232" y="-13"/>
			<point x="304" y="79"/>
			<point x="408" y="254" type="curve"/>
			<point x="357" y="58" type="line" smooth="yes"/>
			<point x="345" y="12"/>
			<point x="355" y="-13"/>
			<point x="391" y="-13" type="curve" smooth="yes"/>
			<point x="427" y="-13"/>
			<point x="443" y="-1"/>
			<point x="485" y="35" type="curve" smooth="yes"/>
			<point x="720" y="236" type="line" smooth="yes"/>
			<point x="740" y="254"/>
			<point x="752" y="273"/>
			<point x="742" y="292" type="curve" smooth="yes"/>
			<point x="733" y="309"/>
			<point x="712" y="310"/>
			<point x="694" y="295" type="curve" smooth="yes"/>
			<point x="437" y="76" type="line"/>
			<point x="501" y="321"/>
			<point x="511" y="358"/>
			<point x="516" y="390" type="curve" smooth="yes"/>
			<point x="522" y="432"/>
			<point x="500" y="443"/>
			<point x="480" y="443" type="curve" smooth="yes"/>
			<point x="456" y="443"/>
			<point x="442" y="429"/>
			<point x="425" y="402" type="curve" smooth="yes"/>
			<point x="256" y="134"/>
			<point x="219" y="57"/>
			<point x="156" y="57" type="curve" smooth="yes"/>
			<point x="135" y="57"/>
			<point x="103" y="76"/>
			<point x="107" y="106" type="curve" smooth="yes"/>
			<point x="119" y="195"/>
			<point x="147" y="260"/>
			<point x="200" y="405" type="curve" smooth="yes"/>
			<point x="207" y="424"/>
			<point x="192" y="443"/>
			<point x="172" y="443" type="curve" smooth="yes"/>
			<point x="153" y="443"/>
			<point x="138" y="431"/>
			<point x="128" y="406" type="curve" smooth="yes"/>
			<point x="96" y="326"/>
			<point x="53" y="204"/>
		</contour>
	</outline>
</glyph>
<glyph name="v" format="2">
	<advance width="600"/>
	<unicode hex="0076"/>
	<note>
		v
	</note>
	<outline>
		<contour>
			<point x="128" y="411" type="curve" smooth="yes"/>
			<point x="52" y="95" type="line" smooth="yes"/>
			<point x="32" y="12"/>
			<point x="77" y="-11"/>
			<point x="140" y="-11" type="curve" smooth="yes"/>
			<point x="196" y="-11"/>
			<point x="265" y="24"/>
			<point x="328" y="74" type="curve"/>
			<point x="350" y="65"/>
			<point x="376" y="61"/>
			<point x="407" y="61" type="curve" smooth="yes"/>
			<point x="481" y="61"/>
			<point x="564" y="103"/>
			<point x="638" y="166" type="curve" smooth="yes"/>
			<point x="720" y="236" type="line" smooth="yes"/>
			<point x="740" y="253"/>
			<point x="752" y="273"/>
			<point x="742" y="292" type="curve" smooth="yes"/>
			<point x="733" y="309"/>
			<point x="712" y="310"/>
			<point x="694" y="295" type="curve" smooth="yes"/>
			<point x="589" y="205" type="line" smooth="yes"/>
			<point x="516" y="146"/>
			<point x="460" y="115"/>
			<point x="385" y="126" type="curve"/>
			<point x="450" y="193"/>
			<point x="498" y="271"/>
			<point x="498" y="331" type="curve" smooth="yes"/>
			<point x="498" y="409"/>
			<point x="444" y="443"/>
			<point x="384" y="443" type="curve" smooth="yes"/>
			<point x="299" y="443"/>
			<point x="231" y="372"/>
			<point x="231" y="261" type="curve" smooth="yes"/>
			<point x="231" y="194"/>
			<point x="245" y="143"/>
			<point x="276" y="109" type="curve"/>
			<point x="230" y="74"/>
			<point x="184" y="51"/>
			<point x="150" y="51" type="curve" smooth="yes"/>
			<point x="124" y="51"/>
			<point x="112" y="58"/>
			<point x="122" y="100" type="curve" smooth="yes"/>
			<point x="198" y="411" type="line" smooth="yes"/>
			<point x="202" y="426"/>
			<point x="194" y="443"/>
			<point x="173" y="443" type="curve" smooth="yes"/>
			<point x="149" y="443"/>
			<point x="133" y="432"/>
		</contour>
		<contour>
			<point x="301" y="270" type="curve" smooth="yes"/>
			<point x="301" y="343"/>
			<point x="339" y="386"/>
			<point x="384" y="386" type="curve" smooth="yes"/>
			<point x="413" y="386"/>
			<point x="429" y="365"/>
			<point x="429" y="329" type="curve" smooth="yes"/>
			<point x="429" y="279"/>
			<point x="384" y="211"/>
			<point x="327" y="154" type="curve"/>
			<point x="306" y="180"/>
			<point x="301" y="220"/>
		</contour>
	</outline>
</glyph>
<glyph name="w" format="2">
	<advance width="600"/>
	<unicode hex="0077"/>
	<note>
		w
	</note>
	<outline>
		<contour>
			<point x="742" y="292" type="curve" smooth="yes"/>
			<point x="733" y="309"/>
			<point x="712" y="310"/>
			<point x="694" y="295" type="curve" smooth="yes"/>
			<point x="600" y="215" type="line" smooth="yes"/>
			<point x="579" y="197"/>
			<point x="549" y="167"/>
			<point x="535" y="167" type="curve" smooth="yes"/>
			<point x="526" y="167"/>
			<point x="521" y="171"/>
			<point x="514" y="178" type="curve"/>
			<point x="554" y="236"/>
			<point x="591" y="299"/>
			<point x="592" y="337" type="curve" smooth="yes"/>
			<point x="595" y="415"/>
			<point x="561" y="443"/>
			<point x="498" y="443" type="curve" smooth="yes"/>
			<point x="421" y="443"/>
			<point x="397" y="388"/>
			<point x="397" y="336" type="curve" smooth="yes"/>
			<point x="397" y="287"/>
			<point x="410" y="231"/>
			<point x="433" y="185" type="curve"/>
			<point x="403" y="146"/>
			<point x="374" y="109"/>
			<point x="356" y="89" type="curve" smooth="yes"/>
			<point x="331" y="62" type="line"/>
			<point x="367" y="272"/>
			<point x="368" y="305"/>
			<point x="333" y="313" type="curve" smooth="yes"/>
			<point x="306" y="319"/>
			<point x="286" y="305"/>
			<point x="269" y="281" type="curve" smooth="yes"/>
			<point x="119" y="67" type="line"/>
			<point x="198" y="405" type="line" smooth="yes"/>
			<point x="202" y="421"/>
			<point x="198" y="444"/>
			<point x="173" y="444" type="curve" smooth="yes"/>
			<point x="142" y="444"/>
			<point x="127" y="426"/>
			<point x="123" y="405" type="curve" smooth="yes"/>
			<point x="67" y="143" type="line" smooth="yes"/>
			<point x="54" y="80"/>
			<point x="34" y="-12"/>
			<point x="97" y="-12" type="curve" smooth="yes"/>
			<point x="157" y="-12"/>
			<point x="193" y="58"/>
			<point x="280" y="181" type="curve"/>
			<point x="253" y="53"/>
			<point x="260" y="-13"/>
			<point x="323" y="-13" type="curve" smooth="yes"/>
			<point x="350" y="-13"/>
			<point x="380" y="11"/>
			<point x="412" y="45" type="curve"/>
			<point x="423" y="58"/>
			<point x="449" y="89"/>
			<point x="478" y="128" type="curve"/>
			<point x="495" y="113"/>
			<point x="515" y="105"/>
			<point x="537" y="105" type="curve" smooth="yes"/>
			<point x="576" y="105"/>
			<point x="607" y="139"/>
			<point x="720" y="237" type="curve" smooth="yes"/>
			<point x="740" y="255"/>
			<point x="752" y="273"/>
		</contour>
		<contour>
			<point x="465" y="336" type="curve" smooth="yes"/>
			<point x="465" y="377"/>
			<point x="491" y="380"/>
			<point x="501" y="380" type="curve" smooth="yes"/>
			<point x="513" y="380"/>
			<point x="526" y="369"/>
			<point x="526" y="337" type="curve" smooth="yes"/>
			<point x="526" y="322"/>
			<point x="509" y="285"/>
			<point x="482" y="245" type="curve"/>
			<point x="473" y="275"/>
			<point x="465" y="311"/>
		</contour>
	</outline>
</glyph>
<glyph name="bar" format="2">
	<advance width="600"/>
	<unicode hex="007C"/>
	<note>
		bar
	</note>
	<outline>
		<contour>
			<point x="366" y="579" type="curve"/>
			<point x="166" y="-145" type="line"/>
			<point x="161" y="-160"/>
			<point x="176" y="-179"/>
			<point x="190" y="-183" type="curve" smooth="yes"/>
			<point x="206" y="-188"/>
			<point x="228" y="-181"/>
			<point x="233" y="-163" type="curve" smooth="yes"/>
			<point x="434" y="561" type="line" smooth="yes"/>
			<point x="440" y="581"/>
			<point x="426" y="597"/>
			<point x="412" y="602" type="curve" smooth="yes"/>
			<point x="397" y="607"/>
			<point x="370" y="596"/>
		</contour>
	</outline>
</glyph>
<glyph name="braceright" format="2">
	<advance width="600"/>
	<unicode hex="007D"/>
	<note>
		braceright
	</note>
	<outline>
		<contour>
			<point x="58" y="-172" type="curve" smooth="yes"/>
			<point x="271" y="-174" type="line" smooth="yes"/>
			<point x="298" y="-174"/>
			<point x="342" y="-133"/>
			<point x="337" y="-101" type="curve" smooth="yes"/>
			<point x="327" y="-41"/>
			<point x="258" y="11"/>
			<point x="499" y="101" type="curve" smooth="yes"/>
			<point x="577" y="130"/>
			<point x="578" y="208"/>
			<point x="501" y="245" type="curve" smooth="yes"/>
			<point x="388" y="299"/>
			<point x="398" y="393"/>
			<point x="514" y="527" type="curve" smooth="yes"/>
			<point x="531" y="546"/>
			<point x="526" y="602"/>
			<point x="487" y="602" type="curve" smooth="yes"/>
			<point x="269" y="603" type="line"/>
			<point x="240" y="605"/>
			<point x="212" y="600"/>
			<point x="212" y="566" type="curve" smooth="yes"/>
			<point x="212" y="541"/>
			<point x="229" y="532"/>
			<point x="251" y="532" type="curve" smooth="yes"/>
			<point x="429" y="530" type="line"/>
			<point x="350" y="429"/>
			<point x="269" y="291"/>
			<point x="483" y="170" type="curve"/>
			<point x="247" y="83"/>
			<point x="228" y="1"/>
			<point x="254" y="-103" type="curve"/>
			<point x="76" y="-101" type="line"/>
			<point x="47" y="-99"/>
			<point x="19" y="-101"/>
			<point x="19" y="-135" type="curve" smooth="yes"/>
			<point x="19" y="-160"/>
			<point x="36" y="-172"/>
		</contour>
	</outline>
</glyph>
<glyph name="exclamdown" format="2">
	<advance width="600"/>
	<unicode hex="00A1"/>
	<note>
		exclamdown
	</note>
	<outline>
		<contour>
			<point x="360" y="595" type="curve" smooth="yes"/>
			<point x="326" y="595"/>
			<point x="300" y="569"/>
			<point x="300" y="539" type="curve" smooth="yes"/>
			<point x="300" y="502"/>
			<point x="321" y="478"/>
			<point x="360" y="478" type="curve" smooth="yes"/>
			<point x="395" y="478"/>
			<point x="420" y="503"/>
			<point x="420" y="541" type="curve" smooth="yes"/>
			<point x="420" y="570"/>
			<point x="391" y="595"/>
		</contour>
		<contour>
			<point x="361" y="404" type="curve" smooth="yes"/>
			<point x="290" y="40" type="line" smooth="yes"/>
			<point x="284" y="7"/>
			<point x="254" y="-12"/>
			<point x="222" y="-8" type="curve" smooth="yes"/>
			<point x="185" y="-3"/>
			<point x="175" y="25"/>
			<point x="184" y="53" type="curve" smooth="yes"/>
			<point x="294" y="408" type="line" smooth="yes"/>
			<point x="302" y="434"/>
			<point x="315" y="449"/>
			<point x="336" y="446" type="curve" smooth="yes"/>
			<point x="357" y="443"/>
			<point x="365" y="426"/>
		</contour>
	</outline>
</glyph>
<glyph name="cent" format="2">
	<advance width="600"/>
	<unicode hex="00A2"/>
	<note>
		cent
	</note>
	<outline>
		<contour>
			<point x="494" y="137" type="curve" smooth="yes"/>
			<point x="411" y="85"/>
			<point x="326" y="54"/>
			<point x="252" y="51" type="curve"/>
			<point x="333" y="383" type="line"/>
			<point x="340" y="383" type="line" smooth="yes"/>
			<point x="420" y="383"/>
			<point x="405" y="297"/>
			<point x="335" y="241" type="curve" smooth="yes"/>
			<point x="318" y="227"/>
			<point x="320" y="205"/>
			<point x="335" y="194" type="curve" smooth="yes"/>
			<point x="353" y="181"/>
			<point x="379" y="191"/>
			<point x="405" y="213" type="curve" smooth="yes"/>
			<point x="506" y="299"/>
			<point x="482" y="438"/>
			<point x="347" y="444" type="curve"/>
			<point x="357" y="484" type="line" smooth="yes"/>
			<point x="360" y="495"/>
			<point x="362" y="517"/>
			<point x="337" y="517" type="curve" smooth="yes"/>
			<point x="316" y="517"/>
			<point x="301" y="507"/>
			<point x="295" y="482" type="curve" smooth="yes"/>
			<point x="284" y="437" type="line"/>
			<point x="165" y="405"/>
			<point x="50" y="276"/>
			<point x="50" y="162" type="curve" smooth="yes"/>
			<point x="50" y="42"/>
			<point x="100" y="2"/>
			<point x="176" y="-9" type="curve"/>
			<point x="165" y="-55" type="line" smooth="yes"/>
			<point x="160" y="-74"/>
			<point x="176" y="-88"/>
			<point x="188" y="-88" type="curve" smooth="yes"/>
			<point x="206" y="-88"/>
			<point x="221" y="-77"/>
			<point x="228" y="-50" type="curve" smooth="yes"/>
			<point x="237" y="-13" type="line"/>
			<point x="238" y="-13" type="line" smooth="yes"/>
			<point x="330" y="-13"/>
			<point x="414" y="13"/>
			<point x="502" y="67" type="curve" smooth="yes"/>
			<point x="546" y="93"/>
			<point x="531" y="160"/>
		</contour>
		<contour>
			<point x="120" y="166" type="curve" smooth="yes"/>
			<point x="120" y="236"/>
			<point x="189" y="325"/>
			<point x="266" y="364" type="curve"/>
			<point x="192" y="56" type="line"/>
			<point x="140" y="68"/>
			<point x="120" y="102"/>
		</contour>
	</outline>
</glyph>
<glyph name="registered" format="2">
	<advance width="600"/>
	<unicode hex="00AE"/>
	<note>
		registered
	</note>
	<outline>
		<contour>
			<point x="442" y="602" type="curve" smooth="yes"/>
			<point x="395" y="602"/>
			<point x="356" y="563"/>
			<point x="357" y="517" type="curve" smooth="yes"/>
			<point x="358" y="470"/>
			<point x="395" y="431"/>
			<point x="442" y="431" type="curve" smooth="yes"/>
			<point x="489" y="431"/>
			<point x="528" y="470"/>
			<point x="528" y="517" type="curve" smooth="yes"/>
			<point x="528" y="563"/>
			<point x="489" y="602"/>
		</contour>
		<contour>
			<point x="442" y="446" type="curve" smooth="yes"/>
			<point x="403" y="448"/>
			<point x="371" y="478"/>
			<point x="371" y="517" type="curve" smooth="yes"/>
			<point x="371" y="556"/>
			<point x="403" y="588"/>
			<point x="442" y="588" type="curve" smooth="yes"/>
			<point x="481" y="588"/>
			<point x="513" y="556"/>
			<point x="513" y="517" type="curve" smooth="yes"/>
			<point x="513" y="478"/>
			<point x="481" y="445"/>
		</contour>
		<contour>
			<point x="472" y="503" type="curve" smooth="yes"/>
			<point x="468" y="499"/>
			<point x="462" y="494"/>
			<point x="457" y="490" type="curve"/>
			<point x="458" y="497" type="line" smooth="yes"/>
			<point x="459" y="503"/>
			<point x="458" y="509"/>
			<point x="454" y="514" type="curve"/>
			<point x="466" y="521"/>
			<point x="480" y="532"/>
			<point x="480" y="545" type="curve" smooth="yes"/>
			<point x="480" y="558"/>
			<point x="473" y="564"/>
			<point x="459" y="565" type="curve" smooth="yes"/>
			<point x="449" y="566"/>
			<point x="439" y="556"/>
			<point x="432" y="546" type="curve"/>
			<point x="434" y="553" type="line" smooth="yes"/>
			<point x="436" y="560"/>
			<point x="436" y="564"/>
			<point x="429" y="565" type="curve" smooth="yes"/>
			<point x="422" y="566"/>
			<point x="421" y="560"/>
			<point x="420" y="556" type="curve" smooth="yes"/>
			<point x="401" y="480" type="line" smooth="yes"/>
			<point x="400" y="476"/>
			<point x="401" y="471"/>
			<point x="406" y="471" type="curve" smooth="yes"/>
			<point x="412" y="471"/>
			<point x="413" y="475"/>
			<point x="414" y="481" type="curve"/>
			<point x="422" y="510" type="line"/>
			<point x="430" y="524"/>
			<point x="449" y="551"/>
			<point x="459" y="553" type="curve"/>
			<point x="465" y="553"/>
			<point x="467" y="550"/>
			<point x="467" y="545" type="curve" smooth="yes"/>
			<point x="467" y="536"/>
			<point x="446" y="522"/>
			<point x="435" y="516" type="curve"/>
			<point x="437" y="514"/>
			<point x="449" y="508"/>
			<point x="442" y="480" type="curve"/>
			<point x="441" y="475"/>
			<point x="442" y="471"/>
			<point x="448" y="471" type="curve" smooth="yes"/>
			<point x="451" y="471"/>
			<point x="454" y="472"/>
			<point x="459" y="475" type="curve"/>
			<point x="481" y="493" type="line"/>
			<point x="484" y="496"/>
			<point x="484" y="500"/>
			<point x="481" y="503" type="curve" smooth="yes"/>
			<point x="478" y="506"/>
			<point x="474" y="505"/>
		</contour>
	</outline>
</glyph>
<glyph name="degree" format="2">
	<advance width="600"/>
	<unicode hex="00B0"/>
	<note>
		degree
	</note>
	<outline>
		<contour>
			<point x="186" y="603" type="curve" smooth="yes"/>
			<point x="108" y="603"/>
			<point x="38" y="535"/>
			<point x="38" y="459" type="curve" smooth="yes"/>
			<point x="38" y="383"/>
			<point x="108" y="316"/>
			<point x="186" y="316" type="curve" smooth="yes"/>
			<point x="265" y="316"/>
			<point x="331" y="382"/>
			<point x="331" y="459" type="curve" smooth="yes"/>
			<point x="331" y="536"/>
			<point x="264" y="603"/>
		</contour>
		<contour>
			<point x="105" y="460" type="curve" smooth="yes"/>
			<point x="105" y="501"/>
			<point x="143" y="538"/>
			<point x="186" y="538" type="curve" smooth="yes"/>
			<point x="230" y="538"/>
			<point x="267" y="502"/>
			<point x="267" y="460" type="curve" smooth="yes"/>
			<point x="267" y="418"/>
			<point x="230" y="381"/>
			<point x="185" y="379" type="curve" smooth="yes"/>
			<point x="145" y="377"/>
			<point x="105" y="417"/>
		</contour>
	</outline>
</glyph>
<glyph name="paragraph" format="2">
	<advance width="600"/>
	<unicode hex="00B6"/>
	<note>
		paragraph
	</note>
	<outline>
		<contour>
			<point x="58" y="120" type="curve" smooth="yes"/>
			<point x="58" y="134"/>
			<point x="60" y="164"/>
			<point x="85" y="164" type="curve" smooth="yes"/>
			<point x="108" y="164"/>
			<point x="108" y="137"/>
			<point x="108" y="119" type="curve" smooth="yes"/>
			<point x="108" y="64"/>
			<point x="154" y="35"/>
			<point x="217" y="35" type="curve" smooth="yes"/>
			<point x="289" y="35"/>
			<point x="327" y="124"/>
			<point x="327" y="246" type="curve"/>
			<point x="179" y="246"/>
			<point x="115" y="288"/>
			<point x="115" y="394" type="curve" smooth="yes"/>
			<point x="115" y="535"/>
			<point x="256" y="603"/>
			<point x="369" y="603" type="curve" smooth="yes"/>
			<point x="574" y="603" type="line" smooth="yes"/>
			<point x="585" y="603"/>
			<point x="600" y="596"/>
			<point x="600" y="582" type="curve" smooth="yes"/>
			<point x="600" y="564"/>
			<point x="588" y="557"/>
			<point x="574" y="557" type="curve" smooth="yes"/>
			<point x="528" y="557" type="line"/>
			<point x="481" y="223" type="line" smooth="yes"/>
			<point x="459" y="70"/>
			<point x="376" y="-13"/>
			<point x="217" y="-13" type="curve" smooth="yes"/>
			<point x="103" y="-13"/>
			<point x="58" y="55"/>
		</contour>
		<contour>
			<point x="396" y="557" type="line"/>
			<point x="368" y="223" type="line" smooth="yes"/>
			<point x="358" y="104"/>
			<point x="320" y="28"/>
			<point x="281" y="28" type="curve"/>
			<point x="330" y="28"/>
			<point x="419" y="79"/>
			<point x="438" y="223" type="curve" smooth="yes"/>
			<point x="481" y="557" type="line"/>
		</contour>
	</outline>
</glyph>
<glyph name="Acircumflex" format="2">
	<advance width="600"/>
	<unicode hex="00C2"/>
	<note>
		Acircumflex
	</note>
	<outline>
		<contour>
			<point x="286" y="660" type="curve" smooth="yes"/>
			<point x="290" y="647"/>
			<point x="306" y="632"/>
			<point x="326" y="641" type="curve" smooth="yes"/>
			<point x="477" y="710" type="line"/>
			<point x="628" y="641" type="line" smooth="yes"/>
			<point x="648" y="632"/>
			<point x="664" y="647"/>
			<point x="668" y="660" type="curve" smooth="yes"/>
			<point x="673" y="675"/>
			<point x="670" y="697"/>
			<point x="649" y="706" type="curve" smooth="yes"/>
			<point x="477" y="781" type="line"/>
			<point x="305" y="706" type="line" smooth="yes"/>
			<point x="284" y="697"/>
			<point x="281" y="675"/>
		</contour>
		<contour>
			<point x="477" y="603" type="curve" smooth="yes"/>
			<point x="448" y="603"/>
			<point x="419" y="589"/>
			<point x="370" y="517" type="curve" smooth="yes"/>
			<point x="216" y="293" type="line"/>
			<point x="100" y="294" type="line" smooth="yes"/>
			<point x="81" y="294"/>
			<point x="61" y="281"/>
			<point x="61" y="260" type="curve" smooth="yes"/>
			<point x="61" y="237"/>
			<point x="74" y="225"/>
			<point x="100" y="225" type="curve" smooth="yes"/>
			<point x="169" y="225" type="line"/>
			<point x="65" y="74" type="line"/>
			<point x="49" y="48"/>
			<point x="27" y="19"/>
			<point x="51" y="-1" type="curve" smooth="yes"/>
			<point x="73" y="-19"/>
			<point x="101" y="0"/>
			<point x="123" y="36" type="curve"/>
			<point x="250" y="225" type="line"/>
			<point x="456" y="225" type="line"/>
			<point x="434" y="47" type="line" smooth="yes"/>
			<point x="430" y="12"/>
			<point x="440" y="-12"/>
			<point x="461" y="-12" type="curve" smooth="yes"/>
			<point x="484" y="-12"/>
			<point x="499" y="3"/>
			<point x="504" y="48" type="curve" smooth="yes"/>
			<point x="556" y="501" type="line" smooth="yes"/>
			<point x="561" y="541"/>
			<point x="554" y="603"/>
		</contour>
		<contour>
			<point x="464" y="293" type="curve"/>
			<point x="295" y="293" type="line"/>
			<point x="418" y="475" type="line" smooth="yes"/>
			<point x="451" y="525"/>
			<point x="463" y="533"/>
			<point x="474" y="533" type="curve" smooth="yes"/>
			<point x="498" y="533"/>
			<point x="492" y="523"/>
		</contour>
	</outline>
</glyph>
<glyph name="Ccedilla" format="2">
	<advance width="600"/>
	<unicode hex="00C7"/>
	<note>
		Ccedilla
	</note>
	<outline>
		<contour>
			<point x="545" y="228" type="curve" smooth="yes"/>
			<point x="522" y="241"/>
			<point x="505" y="231"/>
			<point x="487" y="204" type="curve" smooth="yes"/>
			<point x="422" y="107"/>
			<point x="349" y="57"/>
			<point x="260" y="57" type="curve" smooth="yes"/>
			<point x="172" y="57"/>
			<point x="105" y="134"/>
			<point x="105" y="236" type="curve" smooth="yes"/>
			<point x="105" y="407"/>
			<point x="215" y="536"/>
			<point x="369" y="536" type="curve" smooth="yes"/>
			<point x="412" y="536"/>
			<point x="441" y="516"/>
			<point x="441" y="489" type="curve" smooth="yes"/>
			<point x="441" y="470"/>
			<point x="432" y="447"/>
			<point x="412" y="425" type="curve" smooth="yes"/>
			<point x="398" y="409"/>
			<point x="389" y="386"/>
			<point x="407" y="371" type="curve" smooth="yes"/>
			<point x="428" y="353"/>
			<point x="448" y="362"/>
			<point x="471" y="390" type="curve" smooth="yes"/>
			<point x="498" y="423"/>
			<point x="508" y="461"/>
			<point x="508" y="497" type="curve" smooth="yes"/>
			<point x="508" y="558"/>
			<point x="456" y="603"/>
			<point x="368" y="603" type="curve" smooth="yes"/>
			<point x="176" y="603"/>
			<point x="35" y="439"/>
			<point x="35" y="236" type="curve" smooth="yes"/>
			<point x="35" y="131"/>
			<point x="96" y="11"/>
			<point x="219" y="-10" type="curve"/>
			<point x="206" y="-56" type="line"/>
			<point x="255" y="-74"/>
			<point x="289" y="-83"/>
			<point x="289" y="-100" type="curve" smooth="yes"/>
			<point x="289" y="-141"/>
			<point x="231" y="-130"/>
			<point x="166" y="-83" type="curve" smooth="yes"/>
			<point x="154" y="-74"/>
			<point x="134" y="-79"/>
			<point x="126" y="-91" type="curve"/>
			<point x="119" y="-105"/>
			<point x="122" y="-122"/>
			<point x="134" y="-130" type="curve" smooth="yes"/>
			<point x="178" y="-160"/>
			<point x="218" y="-176"/>
			<point x="255" y="-176" type="curve" smooth="yes"/>
			<point x="294" y="-176"/>
			<point x="342" y="-148"/>
			<point x="342" y="-100" type="curve" smooth="yes"/>
			<point x="342" y="-63"/>
			<point x="322" y="-50"/>
			<point x="273" y="-23" type="curve"/>
			<point x="276" y="-13" type="line"/>
			<point x="391" y="-6"/>
			<point x="476" y="62"/>
			<point x="556" y="176" type="curve" smooth="yes"/>
			<point x="570" y="196"/>
			<point x="567" y="216"/>
		</contour>
	</outline>
</glyph>
<glyph name="Egrave" format="2">
	<advance width="600"/>
	<unicode hex="00C8"/>
	<note>
		Egrave
	</note>
	<outline>
		<contour>
			<point x="206" y="750" type="curve" smooth="yes"/>
			<point x="203" y="735"/>
			<point x="202" y="714"/>
			<point x="228" y="708" type="curve"/>
			<point x="469" y="671" type="line"/>
			<point x="497" y="664"/>
			<point x="507" y="679"/>
			<point x="509" y="693" type="curve" smooth="yes"/>
			<point x="511" y="705"/>
			<point x="504" y="722"/>
			<point x="479" y="727" type="curve" smooth="yes"/>
			<point x="245" y="774" type="line"/>
			<point x="222" y="780"/>
			<point x="208" y="760"/>
		</contour>
		<contour>
			<point x="467" y="458" type="curve" smooth="yes"/>
			<point x="462" y="432"/>
			<point x="465" y="421"/>
			<point x="487" y="417" type="curve" smooth="yes"/>
			<point x="508" y="413"/>
			<point x="521" y="419"/>
			<point x="530" y="456" type="curve" smooth="yes"/>
			<point x="549" y="535"/>
			<point x="480" y="604"/>
			<point x="377" y="603" type="curve" smooth="yes"/>
			<point x="288" y="602"/>
			<point x="204" y="562"/>
			<point x="204" y="459" type="curve" smooth="yes"/>
			<point x="204" y="414"/>
			<point x="234" y="370"/>
			<point x="278" y="350" type="curve"/>
			<point x="124" y="354"/>
			<point x="64" y="245"/>
			<point x="64" y="159" type="curve" smooth="yes"/>
			<point x="64" y="66"/>
			<point x="149" y="-16"/>
			<point x="277" y="-16" type="curve" smooth="yes"/>
			<point x="394" y="-16"/>
			<point x="473" y="29"/>
			<point x="542" y="115" type="curve" smooth="yes"/>
			<point x="558" y="135"/>
			<point x="568" y="164"/>
			<point x="547" y="179" type="curve" smooth="yes"/>
			<point x="525" y="194"/>
			<point x="506" y="178"/>
			<point x="491" y="159" type="curve" smooth="yes"/>
			<point x="431" y="83"/>
			<point x="362" y="50"/>
			<point x="281" y="50" type="curve" smooth="yes"/>
			<point x="194" y="50"/>
			<point x="140" y="96"/>
			<point x="140" y="166" type="curve" smooth="yes"/>
			<point x="140" y="241"/>
			<point x="196" y="306"/>
			<point x="352" y="291" type="curve" smooth="yes"/>
			<point x="383" y="288"/>
			<point x="394" y="309"/>
			<point x="394" y="328" type="curve" smooth="yes"/>
			<point x="394" y="350"/>
			<point x="387" y="359"/>
			<point x="364" y="368" type="curve" smooth="yes"/>
			<point x="305" y="391"/>
			<point x="276" y="421"/>
			<point x="276" y="461" type="curve" smooth="yes"/>
			<point x="276" y="514"/>
			<point x="310" y="540"/>
			<point x="372" y="541" type="curve" smooth="yes"/>
			<point x="440" y="542"/>
			<point x="474" y="496"/>
		</contour>
	</outline>
</glyph>
<glyph name="Ecircumflex" format="2">
	<advance width="600"/>
	<unicode hex="00CA"/>
	<note>
		Ecircumflex
	</note>
	<outline>
		<contour>
			<point x="186" y="660" type="curve" smooth="yes"/>
			<point x="190" y="647"/>
			<point x="206" y="632"/>
			<point x="226" y="641" type="curve" smooth="yes"/>
			<point x="377" y="710" type="line"/>
			<point x="528" y="641" type="line" smooth="yes"/>
			<point x="548" y="632"/>
			<point x="564" y="647"/>
			<point x="568" y="660" type="curve" smooth="yes"/>
			<point x="573" y="675"/>
			<point x="570" y="697"/>
			<point x="549" y="706" type="curve" smooth="yes"/>
			<point x="377" y="781" type="line"/>
			<point x="205" y="706" type="line" smooth="yes"/>
			<point x="184" y="697"/>
			<point x="181" y="675"/>
		</contour>
		<contour>
			<point x="467" y="458" type="curve" smooth="yes"/>
			<point x="462" y="432"/>
			<point x="465" y="421"/>
			<point x="487" y="417" type="curve" smooth="yes"/>
			<point x="508" y="413"/>
			<point x="521" y="419"/>
			<point x="530" y="456" type="curve" smooth="yes"/>
			<point x="549" y="535"/>
			<point x="480" y="604"/>
			<point x="377" y="603" type="curve" smooth="yes"/>
			<point x="288" y="602"/>
			<point x="204" y="562"/>
			<point x="204" y="459" type="curve" smooth="yes"/>
			<point x="204" y="414"/>
			<point x="234" y="370"/>
			<point x="278" y="350" type="curve"/>
			<point x="124" y="354"/>
			<point x="64" y="245"/>
			<point x="64" y="159" type="curve" smooth="yes"/>
			<point x="64" y="66"/>
			<point x="149" y="-16"/>
			<point x="277" y="-16" type="curve" smooth="yes"/>
			<point x="394" y="-16"/>
			<point x="473" y="29"/>
			<point x="542" y="115" type="curve" smooth="yes"/>
			<point x="558" y="135"/>
			<point x="568" y="164"/>
			<point x="547" y="179" type="curve" smooth="yes"/>
			<point x="525" y="194"/>
			<point x="506" y="178"/>
			<point x="491" y="159" type="curve" smooth="yes"/>
			<point x="431" y="83"/>
			<point x="362" y="50"/>
			<point x="281" y="50" type="curve" smooth="yes"/>
			<point x="194" y="50"/>
			<point x="140" y="96"/>
			<point x="140" y="166" type="curve" smooth="yes"/>
			<point x="140" y="241"/>
			<point x="196" y="306"/>
			<point x="352" y="291" type="curve" smooth="yes"/>
			<point x="383" y="288"/>
			<point x="394" y="309"/>
			<point x="394" y="328" type="curve" smooth="yes"/>
			<point x="394" y="350"/>
			<point x="387" y="359"/>
			<point x="364" y="368" type="curve" smooth="yes"/>
			<point x="305" y="391"/>
			<point x="276" y="421"/>
			<point x="276" y="461" type="curve" smooth="yes"/>
			<point x="276" y="514"/>
			<point x="310" y="540"/>
			<point x="372" y="541" type="curve" smooth="yes"/>
			<point x="440" y="542"/>
			<point x="474" y="496"/>
		</contour>
	</outline>
</glyph>
<glyph name="Icircumflex" format="2">
	<advance width="600"/>
	<unicode hex="00CE"/>
	<note>
		Icircumflex
	</note>
	<outline>
		<contour>
			<point x="228" y="662" type="curve" smooth="yes"/>
			<point x="232" y="649"/>
			<point x="248" y="634"/>
			<point x="268" y="643" type="curve" smooth="yes"/>
			<point x="419" y="712" type="line"/>
			<point x="570" y="643" type="line" smooth="yes"/>
			<point x="590" y="634"/>
			<point x="606" y="649"/>
			<point x="610" y="662" type="curve" smooth="yes"/>
			<point x="615" y="677"/>
			<point x="612" y="699"/>
			<point x="591" y="708" type="curve" smooth="yes"/>
			<point x="419" y="783" type="line"/>
			<point x="247" y="708" type="line" smooth="yes"/>
			<point x="226" y="699"/>
			<point x="223" y="677"/>
		</contour>
		<contour>
			<point x="460" y="73" type="curve" smooth="yes"/>
			<point x="454" y="80"/>
			<point x="430" y="87"/>
			<point x="415" y="72" type="curve" smooth="yes"/>
			<point x="388" y="45"/>
			<point x="364" y="45"/>
			<point x="344" y="62" type="curve" smooth="yes"/>
			<point x="330" y="74"/>
			<point x="318" y="89"/>
			<point x="334" y="148" type="curve" smooth="yes"/>
			<point x="436" y="531" type="line" smooth="yes"/>
			<point x="443" y="557"/>
			<point x="459" y="604"/>
			<point x="420" y="605" type="curve" smooth="yes"/>
			<point x="419" y="605" type="line" smooth="yes"/>
			<point x="393" y="605"/>
			<point x="383" y="594"/>
			<point x="342" y="557" type="curve" smooth="yes"/>
			<point x="216" y="443" type="line"/>
			<point x="201" y="428"/>
			<point x="175" y="404"/>
			<point x="189" y="381" type="curve" smooth="yes"/>
			<point x="197" y="368"/>
			<point x="211" y="344"/>
			<point x="245" y="374" type="curve" smooth="yes"/>
			<point x="347" y="466" type="line"/>
			<point x="270" y="177" type="line" smooth="yes"/>
			<point x="251" y="105"/>
			<point x="251" y="57"/>
			<point x="294" y="15" type="curve" smooth="yes"/>
			<point x="344" y="-33"/>
			<point x="420" y="-12"/>
			<point x="456" y="24" type="curve" smooth="yes"/>
			<point x="471" y="39"/>
			<point x="471" y="60"/>
		</contour>
	</outline>
</glyph>
<glyph name="Ntilde" format="2">
	<advance width="600"/>
	<unicode hex="00D1"/>
	<note>
		Ntilde
	</note>
	<outline>
		<contour>
			<point x="485" y="654" type="curve"/>
			<point x="460" y="655"/>
			<point x="437" y="667"/>
			<point x="423" y="680" type="curve" smooth="yes"/>
			<point x="398" y="703"/>
			<point x="387" y="717"/>
			<point x="363" y="717" type="curve" smooth="yes"/>
			<point x="350" y="717"/>
			<point x="325" y="696"/>
			<point x="296" y="664" type="curve" smooth="yes"/>
			<point x="286" y="653"/>
			<point x="263" y="651"/>
			<point x="251" y="664" type="curve"/>
			<point x="242" y="673"/>
			<point x="241" y="691"/>
			<point x="251" y="702" type="curve" smooth="yes"/>
			<point x="295" y="750"/>
			<point x="330" y="775"/>
			<point x="364" y="775" type="curve" smooth="yes"/>
			<point x="387" y="775"/>
			<point x="410" y="765"/>
			<point x="428" y="749" type="curve" smooth="yes"/>
			<point x="451" y="728"/>
			<point x="467" y="713"/>
			<point x="485" y="713" type="curve" smooth="yes"/>
			<point x="508" y="713"/>
			<point x="523" y="730"/>
			<point x="551" y="764" type="curve" smooth="yes"/>
			<point x="560" y="775"/>
			<point x="583" y="778"/>
			<point x="594" y="770" type="curve"/>
			<point x="608" y="759"/>
			<point x="607" y="738"/>
			<point x="598" y="727" type="curve" smooth="yes"/>
			<point x="558" y="678"/>
			<point x="522" y="654"/>
		</contour>
		<contour>
			<point x="573" y="194" type="curve" smooth="yes"/>
			<point x="561" y="202"/>
			<point x="551" y="203"/>
			<point x="533" y="188" type="curve" smooth="yes"/>
			<point x="497" y="158"/>
			<point x="448" y="116"/>
			<point x="415" y="88" type="curve"/>
			<point x="515" y="443" type="line" smooth="yes"/>
			<point x="543" y="541"/>
			<point x="528" y="602"/>
			<point x="421" y="602" type="curve" smooth="yes"/>
			<point x="367" y="602"/>
			<point x="287" y="567"/>
			<point x="194" y="412" type="curve"/>
			<point x="236" y="552" type="line" smooth="yes"/>
			<point x="245" y="582"/>
			<point x="240" y="599"/>
			<point x="215" y="602" type="curve" smooth="yes"/>
			<point x="198" y="604"/>
			<point x="173" y="599"/>
			<point x="165" y="566" type="curve" smooth="yes"/>
			<point x="161" y="550"/>
			<point x="155" y="530"/>
			<point x="26" y="69" type="curve" smooth="yes"/>
			<point x="11" y="14"/>
			<point x="8" y="-7"/>
			<point x="37" y="-13" type="curve" smooth="yes"/>
			<point x="68" y="-19"/>
			<point x="83" y="12"/>
			<point x="97" y="55" type="curve" smooth="yes"/>
			<point x="218" y="426"/>
			<point x="350" y="527"/>
			<point x="411" y="527" type="curve" smooth="yes"/>
			<point x="454" y="527"/>
			<point x="456" y="500"/>
			<point x="432" y="416" type="curve" smooth="yes"/>
			<point x="326" y="39" type="line" smooth="yes"/>
			<point x="319" y="13"/>
			<point x="334" y="-8"/>
			<point x="361" y="-13" type="curve" smooth="yes"/>
			<point x="383" y="-17"/>
			<point x="406" y="-2"/>
			<point x="427" y="15" type="curve" smooth="yes"/>
			<point x="494" y="69"/>
			<point x="537" y="108"/>
			<point x="576" y="141" type="curve" smooth="yes"/>
			<point x="589" y="152"/>
			<point x="590" y="183"/>
		</contour>
	</outline>
</glyph>
<glyph name="Ograve" format="2">
	<advance width="600"/>
	<unicode hex="00D2"/>
	<note>
		Ograve
	</note>
	<outline>
		<contour>
			<point x="203" y="748" type="curve" smooth="yes"/>
			<point x="200" y="733"/>
			<point x="199" y="712"/>
			<point x="225" y="706" type="curve"/>
			<point x="466" y="669" type="line"/>
			<point x="494" y="662"/>
			<point x="504" y="677"/>
			<point x="506" y="691" type="curve" smooth="yes"/>
			<point x="508" y="703"/>
			<point x="501" y="720"/>
			<point x="476" y="725" type="curve" smooth="yes"/>
			<point x="242" y="772" type="line"/>
			<point x="219" y="778"/>
			<point x="205" y="758"/>
		</contour>
		<contour>
			<point x="356" y="464" type="curve" smooth="yes"/>
			<point x="356" y="488"/>
			<point x="318" y="499"/>
			<point x="296" y="499" type="curve" smooth="yes"/>
			<point x="240" y="499"/>
			<point x="165" y="461"/>
			<point x="114" y="405" type="curve" smooth="yes"/>
			<point x="61" y="346"/>
			<point x="29" y="267"/>
			<point x="29" y="187" type="curve" smooth="yes"/>
			<point x="29" y="64"/>
			<point x="108" y="-13"/>
			<point x="231" y="-13" type="curve" smooth="yes"/>
			<point x="414" y="-13"/>
			<point x="563" y="159"/>
			<point x="563" y="351" type="curve" smooth="yes"/>
			<point x="563" y="488"/>
			<point x="503" y="603"/>
			<point x="325" y="603" type="curve" smooth="yes"/>
			<point x="293" y="603"/>
			<point x="275" y="585"/>
			<point x="275" y="568" type="curve" smooth="yes"/>
			<point x="275" y="538"/>
			<point x="305" y="533"/>
			<point x="325" y="533" type="curve" smooth="yes"/>
			<point x="414" y="533"/>
			<point x="493" y="475"/>
			<point x="493" y="351" type="curve" smooth="yes"/>
			<point x="493" y="194"/>
			<point x="384" y="57"/>
			<point x="231" y="57" type="curve" smooth="yes"/>
			<point x="165" y="57"/>
			<point x="99" y="90"/>
			<point x="99" y="187" type="curve" smooth="yes"/>
			<point x="99" y="250"/>
			<point x="133" y="323"/>
			<point x="180" y="369" type="curve" smooth="yes"/>
			<point x="212" y="401"/>
			<point x="258" y="428"/>
			<point x="296" y="429" type="curve" smooth="yes"/>
			<point x="334" y="430"/>
			<point x="356" y="436"/>
		</contour>
	</outline>
</glyph>
<glyph name="Odieresis" format="2">
	<advance width="600"/>
	<unicode hex="00D6"/>
	<note>
		Odieresis
	</note>
	<outline>
		<contour>
			<point x="276" y="657" type="curve" smooth="yes"/>
			<point x="310" y="657"/>
			<point x="336" y="683"/>
			<point x="336" y="713" type="curve" smooth="yes"/>
			<point x="336" y="750"/>
			<point x="315" y="774"/>
			<point x="276" y="774" type="curve" smooth="yes"/>
			<point x="241" y="774"/>
			<point x="216" y="749"/>
			<point x="216" y="711" type="curve" smooth="yes"/>
			<point x="216" y="682"/>
			<point x="245" y="657"/>
		</contour>
		<contour>
			<point x="475" y="657" type="curve" smooth="yes"/>
			<point x="509" y="657"/>
			<point x="535" y="683"/>
			<point x="535" y="713" type="curve" smooth="yes"/>
			<point x="535" y="750"/>
			<point x="514" y="774"/>
			<point x="475" y="774" type="curve" smooth="yes"/>
			<point x="440" y="774"/>
			<point x="415" y="749"/>
			<point x="415" y="711" type="curve" smooth="yes"/>
			<point x="415" y="682"/>
			<point x="444" y="657"/>
		</contour>
		<contour>
			<point x="356" y="464" type="curve" smooth="yes"/>
			<point x="356" y="488"/>
			<point x="318" y="499"/>
			<point x="296" y="499" type="curve" smooth="yes"/>
			<point x="240" y="499"/>
			<point x="165" y="461"/>
			<point x="114" y="405" type="curve" smooth="yes"/>
			<point x="61" y="346"/>
			<point x="29" y="267"/>
			<point x="29" y="187" type="curve" smooth="yes"/>
			<point x="29" y="64"/>
			<point x="108" y="-13"/>
			<point x="231" y="-13" type="curve" smooth="yes"/>
			<point x="414" y="-13"/>
			<point x="563" y="159"/>
			<point x="563" y="351" type="curve" smooth="yes"/>
			<point x="563" y="488"/>
			<point x="503" y="603"/>
			<point x="325" y="603" type="curve" smooth="yes"/>
			<point x="293" y="603"/>
			<point x="275" y="585"/>
			<point x="275" y="568" type="curve" smooth="yes"/>
			<point x="275" y="538"/>
			<point x="305" y="533"/>
			<point x="325" y="533" type="curve" smooth="yes"/>
			<point x="414" y="533"/>
			<point x="493" y="475"/>
			<point x="493" y="351" type="curve" smooth="yes"/>
			<point x="493" y="194"/>
			<point x="384" y="57"/>
			<point x="231" y="57" type="curve" smooth="yes"/>
			<point x="165" y="57"/>
			<point x="99" y="90"/>
			<point x="99" y="187" type="curve" smooth="yes"/>
			<point x="99" y="250"/>
			<point x="133" y="323"/>
			<point x="180" y="369" type="curve" smooth="yes"/>
			<point x="212" y="401"/>
			<point x="258" y="428"/>
			<point x="296" y="429" type="curve" smooth="yes"/>
			<point x="334" y="430"/>
			<point x="356" y="436"/>
		</contour>
	</outline>
</glyph>
<glyph name="Thorn" format="2">
	<advance width="600"/>
	<unicode hex="00DE"/>
	<note>
		Thorn
	</note>
	<outline>
		<contour>
			<point x="315" y="454" type="curve"/>
			<point x="337" y="541"/>
			<point x="345" y="573"/>
			<point x="345" y="576" type="curve" smooth="yes"/>
			<point x="345" y="597"/>
			<point x="334" y="607"/>
			<point x="315" y="607" type="curve" smooth="yes"/>
			<point x="289" y="607"/>
			<point x="275" y="600"/>
			<point x="263" y="555" type="curve" smooth="yes"/>
			<point x="237" y="456" type="line"/>
			<point x="157" y="452"/>
			<point x="94" y="430"/>
			<point x="34" y="382" type="curve" smooth="yes"/>
			<point x="14" y="366"/>
			<point x="3" y="352"/>
			<point x="3" y="337" type="curve" smooth="yes"/>
			<point x="3" y="330"/>
			<point x="6" y="323"/>
			<point x="12" y="316" type="curve"/>
			<point x="19" y="309"/>
			<point x="26" y="306"/>
			<point x="34" y="306" type="curve" smooth="yes"/>
			<point x="47" y="306"/>
			<point x="62" y="314"/>
			<point x="78" y="327" type="curve" smooth="yes"/>
			<point x="121" y="362"/>
			<point x="165" y="380"/>
			<point x="219" y="386" type="curve"/>
			<point x="88" y="-122" type="line" smooth="yes"/>
			<point x="86" y="-130"/>
			<point x="85" y="-136"/>
			<point x="85" y="-141" type="curve" smooth="yes"/>
			<point x="85" y="-164"/>
			<point x="100" y="-171"/>
			<point x="113" y="-171" type="curve" smooth="yes"/>
			<point x="130" y="-171"/>
			<point x="154" y="-168"/>
			<point x="163" y="-133" type="curve" smooth="yes"/>
			<point x="173" y="-96"/>
			<point x="182" y="-61"/>
			<point x="190" y="-28" type="curve"/>
			<point x="223" y="-37"/>
			<point x="252" y="-41"/>
			<point x="279" y="-41" type="curve" smooth="yes"/>
			<point x="432" y="-41"/>
			<point x="519" y="112"/>
			<point x="519" y="258" type="curve" smooth="yes"/>
			<point x="519" y="354"/>
			<point x="453" y="439"/>
		</contour>
		<contour>
			<point x="287" y="29" type="curve" smooth="yes"/>
			<point x="264" y="29"/>
			<point x="238" y="34"/>
			<point x="209" y="44" type="curve"/>
			<point x="248" y="195"/>
			<point x="277" y="306"/>
			<point x="297" y="386" type="curve"/>
			<point x="377" y="378"/>
			<point x="449" y="343"/>
			<point x="449" y="258" type="curve" smooth="yes"/>
			<point x="449" y="144"/>
			<point x="392" y="29"/>
		</contour>
	</outline>
</glyph>
<glyph name="aacute" format="2">
	<advance width="600"/>
	<unicode hex="00E1"/>
	<note>
		aacute
	</note>
	<outline>
		<contour>
			<point x="490" y="589" type="curve" smooth="yes"/>
			<point x="488" y="599"/>
			<point x="474" y="619"/>
			<point x="451" y="613" type="curve"/>
			<point x="217" y="566" type="line" smooth="yes"/>
			<point x="192" y="561"/>
			<point x="185" y="544"/>
			<point x="187" y="532" type="curve" smooth="yes"/>
			<point x="189" y="518"/>
			<point x="199" y="503"/>
			<point x="227" y="510" type="curve"/>
			<point x="468" y="547" type="line"/>
			<point x="494" y="553"/>
			<point x="493" y="574"/>
		</contour>
		<contour>
			<point x="31" y="100" type="curve" smooth="yes"/>
			<point x="31" y="34"/>
			<point x="56" y="-12"/>
			<point x="120" y="-12" type="curve" smooth="yes"/>
			<point x="179" y="-12"/>
			<point x="288" y="126"/>
			<point x="390" y="245" type="curve"/>
			<point x="357" y="58" type="line" smooth="yes"/>
			<point x="349" y="14"/>
			<point x="355" y="-13"/>
			<point x="391" y="-13" type="curve" smooth="yes"/>
			<point x="427" y="-13"/>
			<point x="443" y="-1"/>
			<point x="485" y="35" type="curve" smooth="yes"/>
			<point x="720" y="236" type="line" smooth="yes"/>
			<point x="740" y="254"/>
			<point x="752" y="273"/>
			<point x="742" y="292" type="curve" smooth="yes"/>
			<point x="733" y="309"/>
			<point x="712" y="310"/>
			<point x="694" y="295" type="curve" smooth="yes"/>
			<point x="434" y="74" type="line"/>
			<point x="476" y="297" type="line" smooth="yes"/>
			<point x="481" y="324"/>
			<point x="465" y="345"/>
			<point x="439" y="345" type="curve" smooth="yes"/>
			<point x="416" y="345"/>
			<point x="395" y="334"/>
			<point x="384" y="322" type="curve" smooth="yes"/>
			<point x="197" y="119"/>
			<point x="147" y="58"/>
			<point x="120" y="58" type="curve" smooth="yes"/>
			<point x="107" y="58"/>
			<point x="102" y="76"/>
			<point x="102" y="100" type="curve" smooth="yes"/>
			<point x="102" y="243"/>
			<point x="212" y="372"/>
			<point x="379" y="372" type="curve" smooth="yes"/>
			<point x="424" y="372"/>
			<point x="455" y="363"/>
			<point x="481" y="353" type="curve" smooth="yes"/>
			<point x="491" y="349"/>
			<point x="511" y="351"/>
			<point x="520" y="365" type="curve" smooth="yes"/>
			<point x="530" y="380"/>
			<point x="529" y="403"/>
			<point x="518" y="412" type="curve"/>
			<point x="486" y="436"/>
			<point x="447" y="443"/>
			<point x="380" y="443" type="curve" smooth="yes"/>
			<point x="155" y="443"/>
			<point x="31" y="270"/>
		</contour>
	</outline>
</glyph>
<glyph name="aring" format="2">
	<advance width="600"/>
	<unicode hex="00E5"/>
	<note>
		aring
	</note>
	<outline>
		<contour>
			<point x="300" y="486" type="curve" smooth="yes"/>
			<point x="334" y="486"/>
			<point x="360" y="512"/>
			<point x="360" y="542" type="curve" smooth="yes"/>
			<point x="360" y="579"/>
			<point x="339" y="603"/>
			<point x="300" y="603" type="curve" smooth="yes"/>
			<point x="265" y="603"/>
			<point x="240" y="578"/>
			<point x="240" y="540" type="curve" smooth="yes"/>
			<point x="240" y="511"/>
			<point x="269" y="486"/>
		</contour>
		<contour>
			<point x="300" y="525" type="curve" smooth="yes"/>
			<point x="290" y="525"/>
			<point x="280" y="534"/>
			<point x="280" y="543" type="curve" smooth="yes"/>
			<point x="280" y="555"/>
			<point x="289" y="564"/>
			<point x="300" y="564" type="curve" smooth="yes"/>
			<point x="313" y="564"/>
			<point x="320" y="556"/>
			<point x="320" y="544" type="curve" smooth="yes"/>
			<point x="320" y="534"/>
			<point x="311" y="525"/>
		</contour>
		<contour>
			<point x="31" y="100" type="curve" smooth="yes"/>
			<point x="31" y="34"/>
			<point x="56" y="-12"/>
			<point x="120" y="-12" type="curve" smooth="yes"/>
			<point x="179" y="-12"/>
			<point x="288" y="126"/>
			<point x="390" y="245" type="curve"/>
			<point x="357" y="58" type="line" smooth="yes"/>
			<point x="349" y="14"/>
			<point x="355" y="-13"/>
			<point x="391" y="-13" type="curve" smooth="yes"/>
			<point x="427" y="-13"/>
			<point x="443" y="-1"/>
			<point x="485" y="35" type="curve" smooth="yes"/>
			<point x="720" y="236" type="line" smooth="yes"/>
			<point x="740" y="254"/>
			<point x="752" y="273"/>
			<point x="742" y="292" type="curve" smooth="yes"/>
			<point x="733" y="309"/>
			<point x="712" y="310"/>
			<point x="694" y="295" type="curve" smooth="yes"/>
			<point x="434" y="74" type="line"/>
			<point x="476" y="297" type="line" smooth="yes"/>
			<point x="481" y="324"/>
			<point x="465" y="345"/>
			<point x="439" y="345" type="curve" smooth="yes"/>
			<point x="416" y="345"/>
			<point x="395" y="334"/>
			<point x="384" y="322" type="curve" smooth="yes"/>
			<point x="197" y="119"/>
			<point x="147" y="58"/>
			<point x="120" y="58" type="curve" smooth="yes"/>
			<point x="107" y="58"/>
			<point x="102" y="76"/>
			<point x="102" y="100" type="curve" smooth="yes"/>
			<point x="102" y="243"/>
			<point x="212" y="372"/>
			<point x="379" y="372" type="curve" smooth="yes"/>
			<point x="424" y="372"/>
			<point x="455" y="363"/>
			<point x="481" y="353" type="curve" smooth="yes"/>
			<point x="491" y="349"/>
			<point x="511" y="351"/>
			<point x="520" y="365" type="curve" smooth="yes"/>
			<point x="530" y="380"/>
			<point x="529" y="403"/>
			<point x="518" y="412" type="curve"/>
			<point x="486" y="436"/>
			<point x="447" y="443"/>
			<point x="380" y="443" type="curve" smooth="yes"/>
			<point x="155" y="443"/>
			<point x="31" y="270"/>
		</contour>
	</outline>
</glyph>
<glyph name="egrave" format="2">
	<advance width="600"/>
	<unicode hex="00E8"/>
	<note>
		egrave
	</note>
	<outline>
		<contour>
			<point x="163" y="577" type="curve" smooth="yes"/>
			<point x="160" y="562"/>
			<point x="159" y="541"/>
			<point x="185" y="535" type="curve"/>
			<point x="426" y="498" type="line"/>
			<point x="454" y="491"/>
			<point x="464" y="506"/>
			<point x="466" y="520" type="curve" smooth="yes"/>
			<point x="468" y="532"/>
			<point x="461" y="549"/>
			<point x="436" y="554" type="curve" smooth="yes"/>
			<point x="202" y="601" type="line"/>
			<point x="179" y="607"/>
			<point x="165" y="587"/>
		</contour>
		<contour>
			<point x="742" y="292" type="curve" smooth="yes"/>
			<point x="733" y="309"/>
			<point x="712" y="310"/>
			<point x="694" y="295" type="curve" smooth="yes"/>
			<point x="604" y="218" type="line" smooth="yes"/>
			<point x="472" y="105"/>
			<point x="346" y="48"/>
			<point x="241" y="51" type="curve" smooth="yes"/>
			<point x="159" y="53"/>
			<point x="125" y="81"/>
			<point x="125" y="166" type="curve" smooth="yes"/>
			<point x="125" y="173"/>
			<point x="125" y="180"/>
			<point x="126" y="187" type="curve"/>
			<point x="317" y="187"/>
			<point x="471" y="258"/>
			<point x="471" y="346" type="curve" smooth="yes"/>
			<point x="471" y="407"/>
			<point x="437" y="444"/>
			<point x="352" y="444" type="curve" smooth="yes"/>
			<point x="213" y="444"/>
			<point x="51" y="322"/>
			<point x="51" y="162" type="curve" smooth="yes"/>
			<point x="51" y="11"/>
			<point x="136" y="-13"/>
			<point x="236" y="-13" type="curve" smooth="yes"/>
			<point x="352" y="-13"/>
			<point x="483" y="34"/>
			<point x="626" y="156" type="curve" smooth="yes"/>
			<point x="720" y="236" type="line" smooth="yes"/>
			<point x="739" y="252"/>
			<point x="752" y="273"/>
		</contour>
		<contour>
			<point x="334" y="383" type="curve" smooth="yes"/>
			<point x="374" y="383"/>
			<point x="391" y="372"/>
			<point x="391" y="344" type="curve" smooth="yes"/>
			<point x="391" y="290"/>
			<point x="280" y="252"/>
			<point x="148" y="252" type="curve"/>
			<point x="188" y="328"/>
			<point x="274" y="383"/>
		</contour>
	</outline>
</glyph>
<glyph name="odieresis" format="2">
	<advance width="600"/>
	<unicode hex="00F6"/>
	<note>
		odieresis
	</note>
	<outline>
		<contour>
			<point x="263" y="486" type="curve" smooth="yes"/>
			<point x="297" y="486"/>
			<point x="323" y="512"/>
			<point x="323" y="542" type="curve" smooth="yes"/>
			<point x="323" y="579"/>
			<point x="302" y="603"/>
			<point x="263" y="603" type="curve" smooth="yes"/>
			<point x="228" y="603"/>
			<point x="203" y="578"/>
			<point x="203" y="540" type="curve" smooth="yes"/>
			<point x="203" y="511"/>
			<point x="232" y="486"/>
		</contour>
		<contour>
			<point x="462" y="486" type="curve" smooth="yes"/>
			<point x="496" y="486"/>
			<point x="522" y="512"/>
			<point x="522" y="542" type="curve" smooth="yes"/>
			<point x="522" y="579"/>
			<point x="501" y="603"/>
			<point x="462" y="603" type="curve" smooth="yes"/>
			<point x="427" y="603"/>
			<point x="402" y="578"/>
			<point x="402" y="540" type="curve" smooth="yes"/>
			<point x="402" y="511"/>
			<point x="431" y="486"/>
		</contour>
		<contour>
			<point x="63" y="162" type="curve" smooth="yes"/>
			<point x="63" y="29"/>
			<point x="133" y="-12"/>
			<point x="216" y="-12" type="curve" smooth="yes"/>
			<point x="260" y="-12"/>
			<point x="308" y="3"/>
			<point x="356" y="35" type="curve"/>
			<point x="377" y="28"/>
			<point x="392" y="25"/>
			<point x="412" y="25" type="curve" smooth="yes"/>
			<point x="478" y="25"/>
			<point x="492" y="41"/>
			<point x="727" y="242" type="curve"/>
			<point x="744" y="259"/>
			<point x="751" y="275"/>
			<point x="742" y="292" type="curve" smooth="yes"/>
			<point x="733" y="309"/>
			<point x="712" y="311"/>
			<point x="694" y="295" type="curve" smooth="yes"/>
			<point x="465" y="100"/>
			<point x="460" y="90"/>
			<point x="422" y="90" type="curve"/>
			<point x="473" y="143"/>
			<point x="504" y="204"/>
			<point x="504" y="266" type="curve" smooth="yes"/>
			<point x="504" y="399"/>
			<point x="439" y="444"/>
			<point x="351" y="444" type="curve" smooth="yes"/>
			<point x="191" y="444"/>
			<point x="63" y="315"/>
		</contour>
		<contour>
			<point x="129" y="170" type="curve" smooth="yes"/>
			<point x="129" y="291"/>
			<point x="237" y="380"/>
			<point x="369" y="378" type="curve"/>
			<point x="284" y="357"/>
			<point x="237" y="271"/>
			<point x="237" y="204" type="curve" smooth="yes"/>
			<point x="237" y="148"/>
			<point x="257" y="101"/>
			<point x="292" y="69" type="curve"/>
			<point x="267" y="59"/>
			<point x="247" y="47"/>
			<point x="217" y="47" type="curve" smooth="yes"/>
			<point x="158" y="49"/>
			<point x="129" y="90"/>
		</contour>
		<contour>
			<point x="302" y="206" type="curve" smooth="yes"/>
			<point x="302" y="261"/>
			<point x="353" y="328"/>
			<point x="423" y="330" type="curve"/>
			<point x="435" y="316"/>
			<point x="437" y="295"/>
			<point x="437" y="266" type="curve" smooth="yes"/>
			<point x="437" y="203"/>
			<point x="398" y="145"/>
			<point x="352" y="106" type="curve"/>
			<point x="321" y="127"/>
			<point x="302" y="164"/>
		</contour>
	</outline>
</glyph>
<glyph name="oslash" format="2">
	<advance width="600"/>
	<unicode hex="00F8"/>
	<note>
		oslash
	</note>
	<outline>
		<contour>
			<point x="742" y="292" type="curve" smooth="yes"/>
			<point x="733" y="309"/>
			<point x="712" y="311"/>
			<point x="694" y="295" type="curve" smooth="yes"/>
			<point x="465" y="100"/>
			<point x="460" y="90"/>
			<point x="422" y="90" type="curve"/>
			<point x="473" y="143"/>
			<point x="504" y="204"/>
			<point x="504" y="266" type="curve" smooth="yes"/>
			<point x="504" y="300"/>
			<point x="500" y="327"/>
			<point x="492" y="350" type="curve"/>
			<point x="527" y="380" type="line" smooth="yes"/>
			<point x="544" y="394"/>
			<point x="557" y="419"/>
			<point x="536" y="435" type="curve" smooth="yes"/>
			<point x="516" y="450"/>
			<point x="489" y="445"/>
			<point x="467" y="425" type="curve"/>
			<point x="452" y="413" type="line"/>
			<point x="426" y="435"/>
			<point x="391" y="444"/>
			<point x="351" y="444" type="curve" smooth="yes"/>
			<point x="191" y="444"/>
			<point x="63" y="315"/>
			<point x="63" y="162" type="curve" smooth="yes"/>
			<point x="63" y="134"/>
			<point x="66" y="111"/>
			<point x="72" y="91" type="curve"/>
			<point x="21" y="48" type="line" smooth="yes"/>
			<point x="4" y="33"/>
			<point x="2" y="13"/>
			<point x="17" y="-2" type="curve" smooth="yes"/>
			<point x="32" y="-17"/>
			<point x="62" y="-16"/>
			<point x="81" y="1" type="curve" smooth="yes"/>
			<point x="109" y="25" type="line"/>
			<point x="137" y="-2"/>
			<point x="175" y="-12"/>
			<point x="216" y="-12" type="curve" smooth="yes"/>
			<point x="260" y="-12"/>
			<point x="308" y="3"/>
			<point x="356" y="35" type="curve"/>
			<point x="377" y="28"/>
			<point x="392" y="25"/>
			<point x="412" y="25" type="curve" smooth="yes"/>
			<point x="478" y="25"/>
			<point x="492" y="41"/>
			<point x="727" y="242" type="curve"/>
			<point x="744" y="259"/>
			<point x="751" y="275"/>
		</contour>
		<contour>
			<point x="129" y="170" type="curve" smooth="yes"/>
			<point x="129" y="291"/>
			<point x="237" y="380"/>
			<point x="369" y="378" type="curve" smooth="yes"/>
			<point x="381" y="378"/>
			<point x="391" y="375"/>
			<point x="400" y="368" type="curve"/>
			<point x="130" y="141" type="line"/>
			<point x="129" y="150"/>
			<point x="129" y="160"/>
		</contour>
		<contour>
			<point x="352" y="106" type="curve"/>
			<point x="311" y="75"/>
			<point x="257" y="47"/>
			<point x="217" y="47" type="curve"/>
			<point x="193" y="48"/>
			<point x="174" y="55"/>
			<point x="160" y="68" type="curve"/>
			<point x="434" y="301" type="line"/>
			<point x="436" y="290"/>
			<point x="437" y="279"/>
			<point x="437" y="266" type="curve" smooth="yes"/>
			<point x="437" y="203"/>
			<point x="398" y="145"/>
		</contour>
	</outline>
</glyph>
<glyph name="uacute" format="2">
	<advance width="600"/>
	<unicode hex="00FA"/>
	<note>
		uacute
	</note>
	<outline>
		<contour>
			<point x="501" y="578" type="curve" smooth="yes"/>
			<point x="499" y="588"/>
			<point x="485" y="608"/>
			<point x="462" y="602" type="curve"/>
			<point x="228" y="555" type="line" smooth="yes"/>
			<point x="203" y="550"/>
			<point x="196" y="533"/>
			<point x="198" y="521" type="curve" smooth="yes"/>
			<point x="200" y="507"/>
			<point x="210" y="492"/>
			<point x="238" y="499" type="curve"/>
			<point x="479" y="536" type="line"/>
			<point x="505" y="542"/>
			<point x="504" y="563"/>
		</contour>
		<contour>
			<point x="40" y="92" type="curve" smooth="yes"/>
			<point x="32" y="24"/>
			<point x="92" y="-13"/>
			<point x="143" y="-13" type="curve" smooth="yes"/>
			<point x="232" y="-13"/>
			<point x="304" y="79"/>
			<point x="408" y="254" type="curve"/>
			<point x="357" y="58" type="line" smooth="yes"/>
			<point x="345" y="12"/>
			<point x="355" y="-13"/>
			<point x="391" y="-13" type="curve" smooth="yes"/>
			<point x="427" y="-13"/>
			<point x="443" y="-1"/>
			<point x="485" y="35" type="curve" smooth="yes"/>
			<point x="720" y="236" type="line" smooth="yes"/>
			<point x="740" y="254"/>
			<point x="752" y="273"/>
			<point x="742" y="292" type="curve" smooth="yes"/>
			<point x="733" y="309"/>
			<point x="712" y="310"/>
			<point x="694" y="295" type="curve" smooth="yes"/>
			<point x="437" y="76" type="line"/>
			<point x="501" y="321"/>
			<point x="511" y="358"/>
			<point x="516" y="390" type="curve" smooth="yes"/>
			<point x="522" y="432"/>
			<point x="500" y="443"/>
			<point x="480" y="443" type="curve" smooth="yes"/>
			<point x="456" y="443"/>
			<point x="442" y="429"/>
			<point x="425" y="402" type="curve" smooth="yes"/>
			<point x="256" y="134"/>
			<point x="219" y="57"/>
			<point x="156" y="57" type="curve" smooth="yes"/>
			<point x="135" y="57"/>
			<point x="103" y="76"/>
			<point x="107" y="106" type="curve" smooth="yes"/>
			<point x="119" y="195"/>
			<point x="147" y="260"/>
			<point x="200" y="405" type="curve" smooth="yes"/>
			<point x="207" y="424"/>
			<point x="192" y="443"/>
			<point x="172" y="443" type="curve" smooth="yes"/>
			<point x="153" y="443"/>
			<point x="138" y="431"/>
			<point x="128" y="406" type="curve" smooth="yes"/>
			<point x="96" y="326"/>
			<point x="53" y="204"/>
		</contour>
	</outline>
</glyph>
<glyph name="udieresis" format="2">
	<advance width="600"/>
	<unicode hex="00FC"/>
	<note>
		udieresis
	</note>
	<outline>
		<contour>
			<point x="263" y="486" type="curve" smooth="yes"/>
			<point x="297" y="486"/>
			<point x="323" y="512"/>
			<point x="323" y="542" type="curve" smooth="yes"/>
			<point x="323" y="579"/>
			<point x="302" y="603"/>
			<point x="263" y="603" type="curve" smooth="yes"/>
			<point x="228" y="603"/>
			<point x="203" y="578"/>
			<point x="203" y="540" type="curve" smooth="yes"/>
			<point x="203" y="511"/>
			<point x="232" y="486"/>
		</contour>
		<contour>
			<point x="462" y="486" type="curve" smooth="yes"/>
			<point x="496" y="486"/>
			<point x="522" y="512"/>
			<point x="522" y="542" type="curve" smooth="yes"/>
			<point x="522" y="579"/>
			<point x="501" y="603"/>
			<point x="462" y="603" type="curve" smooth="yes"/>
			<point x="427" y="603"/>
			<point x="402" y="578"/>
			<point x="402" y="540" type="curve" smooth="yes"/>
			<point x="402" y="511"/>
			<point x="431" y="486"/>
		</contour>
		<contour>
			<point x="40" y="92" type="curve" smooth="yes"/>
			<point x="32" y="24"/>
			<point x="92" y="-13"/>
			<point x="143" y="-13" type="curve" smooth="yes"/>
			<point x="232" y="-13"/>
			<point x="304" y="79"/>
			<point x="408" y="254" type="curve"/>
			<point x="357" y="58" type="line" smooth="yes"/>
			<point x="345" y="12"/>
			<point x="355" y="-13"/>
			<point x="391" y="-13" type="curve" smooth="yes"/>
			<point x="427" y="-13"/>
			<point x="443" y="-1"/>
			<point x="485" y="35" type="curve" smooth="yes"/>
			<point x="720" y="236" type="line" smooth="yes"/>
			<point x="740" y="254"/>
			<point x="752" y="273"/>
			<point x="742" y="292" type="curve" smooth="yes"/>
			<point x="733" y="309"/>
			<point x="712" y="310"/>
			<point x="694" y="295" type="curve" smooth="yes"/>
			<point x="437" y="76" type="line"/>
			<point x="501" y="321"/>
			<point x="511" y="358"/>
			<point x="516" y="390" type="curve" smooth="yes"/>
			<point x="522" y="432"/>
			<point x="500" y="443"/>
			<point x="480" y="443" type="curve" smooth="yes"/>
			<point x="456" y="443"/>
			<point x="442" y="429"/>
			<point x="425" y="402" type="curve" smooth="yes"/>
			<point x="256" y="134"/>
			<point x="219" y="57"/>
			<point x="156" y="57" type="curve" smooth="yes"/>
			<point x="135" y="57"/>
			<point x="103" y="76"/>
			<point x="107" y="106" type="curve" smooth="yes"/>
			<point x="119" y="195"/>
			<point x="147" y="260"/>
			<point x="200" y="405" type="curve" smooth="yes"/>
			<point x="207" y="424"/>
			<point x="192" y="443"/>
			<point x="172" y="443" type="curve" smooth="yes"/>
			<point x="153" y="443"/>
			<point x="138" y="431"/>
			<point x="128" y="406" type="curve" smooth="yes"/>
			<point x="96" y="326"/>
			<point x="53" y="204"/>
		</contour>
	</outline>
</glyph>
<glyph name="Scaron" format="2">
	<advance width="600"/>
	<unicode hex="0160"/>
	<note>
		Scaron
	</note>
	<outline>
		<contour>
			<point x="604" y="755" type="curve" smooth="yes"/>
			<point x="600" y="768"/>
			<point x="584" y="783"/>
			<point x="564" y="774" type="curve" smooth="yes"/>
			<point x="413" y="705" type="line"/>
			<point x="262" y="774" type="line" smooth="yes"/>
			<point x="242" y="783"/>
			<point x="226" y="768"/>
			<point x="222" y="755" type="curve" smooth="yes"/>
			<point x="217" y="740"/>
			<point x="220" y="718"/>
			<point x="241" y="709" type="curve" smooth="yes"/>
			<point x="413" y="634" type="line"/>
			<point x="585" y="709" type="line" smooth="yes"/>
			<point x="606" y="718"/>
			<point x="609" y="740"/>
		</contour>
		<contour>
			<point x="32" y="0" type="curve" smooth="yes"/>
			<point x="32" y="-96"/>
			<point x="114" y="-173"/>
			<point x="219" y="-173" type="curve" smooth="yes"/>
			<point x="321" y="-173"/>
			<point x="432" y="-129"/>
			<point x="471" y="0" type="curve" smooth="yes"/>
			<point x="504" y="109"/>
			<point x="394" y="243"/>
			<point x="333" y="309" type="curve" smooth="yes"/>
			<point x="303" y="341"/>
			<point x="270" y="399"/>
			<point x="283" y="460" type="curve" smooth="yes"/>
			<point x="299" y="536"/>
			<point x="370" y="533"/>
			<point x="409" y="533" type="curve" smooth="yes"/>
			<point x="464" y="533"/>
			<point x="495" y="510"/>
			<point x="495" y="457" type="curve" smooth="yes"/>
			<point x="495" y="412"/>
			<point x="509" y="399"/>
			<point x="531" y="399" type="curve" smooth="yes"/>
			<point x="555" y="399"/>
			<point x="566" y="412"/>
			<point x="566" y="457" type="curve" smooth="yes"/>
			<point x="566" y="570"/>
			<point x="481" y="603"/>
			<point x="409" y="603" type="curve" smooth="yes"/>
			<point x="357" y="603"/>
			<point x="238" y="598"/>
			<point x="211" y="462" type="curve" smooth="yes"/>
			<point x="192" y="366"/>
			<point x="240" y="304"/>
			<point x="275" y="268" type="curve" smooth="yes"/>
			<point x="343" y="198"/>
			<point x="432" y="88"/>
			<point x="401" y="0" type="curve" smooth="yes"/>
			<point x="372" y="-83"/>
			<point x="280" y="-103"/>
			<point x="219" y="-103" type="curve" smooth="yes"/>
			<point x="159" y="-103"/>
			<point x="102" y="-60"/>
			<point x="102" y="0" type="curve" smooth="yes"/>
			<point x="102" y="44"/>
			<point x="111" y="107"/>
			<point x="198" y="107" type="curve" smooth="yes"/>
			<point x="234" y="107"/>
			<point x="254" y="118"/>
			<point x="254" y="142" type="curve" smooth="yes"/>
			<point x="254" y="172"/>
			<point x="234" y="177"/>
			<point x="198" y="177" type="curve" smooth="yes"/>
			<point x="72" y="177"/>
			<point x="32" y="88"/>
		</contour>
	</outline>
</glyph>
<glyph name="scaron" format="2">
	<advance width="600"/>
	<unicode hex="0161"/>
	<note>
		scaron
	</note>
	<outline>
		<contour>
			<point x="527" y="718" type="curve" smooth="yes"/>
			<point x="523" y="731"/>
			<point x="507" y="746"/>
			<point x="487" y="737" type="curve" smooth="yes"/>
			<point x="336" y="668" type="line"/>
			<point x="185" y="737" type="line" smooth="yes"/>
			<point x="165" y="746"/>
			<point x="149" y="731"/>
			<point x="145" y="718" type="curve" smooth="yes"/>
			<point x="140" y="703"/>
			<point x="143" y="681"/>
			<point x="164" y="672" type="curve" smooth="yes"/>
			<point x="336" y="597" type="line"/>
			<point x="508" y="672" type="line" smooth="yes"/>
			<point x="529" y="681"/>
			<point x="532" y="703"/>
		</contour>
		<contour>
			<point x="742" y="292" type="curve" smooth="yes"/>
			<point x="733" y="309"/>
			<point x="712" y="310"/>
			<point x="694" y="295" type="curve" smooth="yes"/>
			<point x="554" y="176" type="line" smooth="yes"/>
			<point x="514" y="142"/>
			<point x="471" y="127"/>
			<point x="433" y="127" type="curve" smooth="yes"/>
			<point x="399" y="127"/>
			<point x="371" y="139"/>
			<point x="350" y="155" type="curve"/>
			<point x="326" y="416" type="line"/>
			<point x="358" y="508" type="line" smooth="yes"/>
			<point x="375" y="557"/>
			<point x="303" y="561"/>
			<point x="289" y="518" type="curve" smooth="yes"/>
			<point x="263" y="438" type="line"/>
			<point x="1" y="216" type="line" smooth="yes"/>
			<point x="-18" y="200"/>
			<point x="-34" y="177"/>
			<point x="-26" y="158" type="curve" smooth="yes"/>
			<point x="-15" y="132"/>
			<point x="9" y="141"/>
			<point x="25" y="155" type="curve" smooth="yes"/>
			<point x="261" y="362" type="line"/>
			<point x="277" y="176" type="line"/>
			<point x="228" y="169"/>
			<point x="176" y="129"/>
			<point x="157" y="81" type="curve" smooth="yes"/>
			<point x="136" y="29"/>
			<point x="162" y="-14"/>
			<point x="214" y="-14" type="curve" smooth="yes"/>
			<point x="266" y="-14"/>
			<point x="326" y="28"/>
			<point x="346" y="78" type="curve"/>
			<point x="346" y="77" type="line"/>
			<point x="365" y="66"/>
			<point x="385" y="59"/>
			<point x="423" y="59" type="curve" smooth="yes"/>
			<point x="473" y="59"/>
			<point x="532" y="76"/>
			<point x="581" y="117" type="curve" smooth="yes"/>
			<point x="720" y="236" type="line" smooth="yes"/>
			<point x="740" y="253"/>
			<point x="752" y="273"/>
		</contour>
	</outline>
</glyph>
<glyph name="zcaron" format="2">
	<advance width="600"/>
	<unicode hex="017E"/>
	<note>
		zcaron
	</note>
	<outline>
		<contour>
			<point x="569" y="622" type="curve" smooth="yes"/>
			<point x="565" y="635"/>
			<point x="549" y="650"/>
			<point x="529" y="641" type="curve" smooth="yes"/>
			<point x="378" y="572" type="line"/>
			<point x="227" y="641" type="line" smooth="yes"/>
			<point x="207" y="650"/>
			<point x="191" y="635"/>
			<point x="187" y="622" type="curve" smooth="yes"/>
			<point x="182" y="607"/>
			<point x="185" y="585"/>
			<point x="206" y="576" type="curve" smooth="yes"/>
			<point x="378" y="501" type="line"/>
			<point x="550" y="576" type="line" smooth="yes"/>
			<point x="571" y="585"/>
			<point x="574" y="607"/>
		</contour>
		<contour>
			<point x="3" y="184" type="curve" smooth="yes"/>
			<point x="14" y="158"/>
			<point x="38" y="167"/>
			<point x="54" y="181" type="curve" smooth="yes"/>
			<point x="160" y="274" type="line"/>
			<point x="280" y="377" type="line"/>
			<point x="335" y="353" type="line"/>
			<point x="358" y="344"/>
			<point x="380" y="337"/>
			<point x="349" y="303" type="curve" smooth="yes"/>
			<point x="204" y="145" type="line" smooth="yes"/>
			<point x="163" y="101"/>
			<point x="220" y="75"/>
			<point x="243" y="84" type="curve" smooth="yes"/>
			<point x="343" y="123"/>
			<point x="394" y="38"/>
			<point x="350" y="0" type="curve" smooth="yes"/>
			<point x="269" y="-69" type="line" smooth="yes"/>
			<point x="239" y="-94"/>
			<point x="213" y="-109"/>
			<point x="184" y="-110" type="curve" smooth="yes"/>
			<point x="164" y="-111"/>
			<point x="149" y="-122"/>
			<point x="149" y="-139" type="curve" smooth="yes"/>
			<point x="149" y="-161"/>
			<point x="165" y="-173"/>
			<point x="191" y="-173" type="curve" smooth="yes"/>
			<point x="220" y="-173"/>
			<point x="252" y="-165"/>
			<point x="414" y="-26" type="curve" smooth="yes"/>
			<point x="720" y="236" type="line" smooth="yes"/>
			<point x="739" y="253"/>
			<point x="752" y="273"/>
			<point x="742" y="292" type="curve" smooth="yes"/>
			<point x="733" y="309"/>
			<point x="712" y="310"/>
			<point x="694" y="295" type="curve" smooth="yes"/>
			<point x="421" y="61" type="line"/>
			<point x="417" y="128"/>
			<point x="338" y="171"/>
			<point x="278" y="146" type="curve"/>
			<point x="423" y="296" type="line" smooth="yes"/>
			<point x="461" y="336"/>
			<point x="442" y="381"/>
			<point x="409" y="395" type="curve" smooth="yes"/>
			<point x="298" y="442" type="line"/>
			<point x="289" y="502" type="line" smooth="yes"/>
			<point x="284" y="537"/>
			<point x="218" y="532"/>
			<point x="226" y="483" type="curve" smooth="yes"/>
			<point x="236" y="419" type="line"/>
			<point x="147" y="341" type="line"/>
			<point x="30" y="242" type="line" smooth="yes"/>
			<point x="11" y="226"/>
			<point x="-5" y="203"/>
		</contour>
	</outline>
</glyph>
<glyph name="circumflex" format="2">
	<advance width="600"/>
	<unicode hex="02C6"/>
	<note>
		circumflex
	</note>
	<outline>
		<contour>
			<point x="121" y="487" type="curve" smooth="yes"/>
			<point x="125" y="474"/>
			<point x="141" y="459"/>
			<point x="161" y="468" type="curve" smooth="yes"/>
			<point x="312" y="537" type="line"/>
			<point x="463" y="468" type="line" smooth="yes"/>
			<point x="483" y="459"/>
			<point x="499" y="474"/>
			<point x="503" y="487" type="curve" smooth="yes"/>
			<point x="508" y="502"/>
			<point x="505" y="524"/>
			<point x="484" y="533" type="curve" smooth="yes"/>
			<point x="312" y="608" type="line"/>
			<point x="140" y="533" type="line" smooth="yes"/>
			<point x="119" y="524"/>
			<point x="116" y="502"/>
		</contour>
	</outline>
</glyph>
<glyph name="dotaccent" format="2">
	<advance width="600"/>
	<unicode hex="02D9"/>
	<note>
		dotaccent
	</note>
	<outline>
		<contour>
			<point x="300" y="486" type="curve" smooth="yes"/>
			<point x="334" y="486"/>
			<point x="360" y="512"/>
			<point x="360" y="542" type="curve" smooth="yes"/>
			<point x="360" y="579"/>
			<point x="339" y="603"/>
			<point x="300" y="603" type="curve" smooth="yes"/>
			<point x="265" y="603"/>
			<point x="240" y="578"/>
			<point x="240" y="540" type="curve" smooth="yes"/>
			<point x="240" y="511"/>
			<point x="269" y="486"/>
		</contour>
	</outline>
</glyph>
<glyph name="ogonek" format="2">
	<advance width="600"/>
	<unicode hex="02DB"/>
	<note>
		ogonek
	</note>
	<outline>
		<contour>
			<point x="462" y="99"/>
			<point x="393" y="117"/>
			<point x="375" y="66" type="curve" smooth="yes"/>
			<point x="375" y="66"/>
			<point x="349" y="7"/>
			<point x="349" y="7" type="curve"/>
			<point x="328" y="-36"/>
			<point x="286" y="-77"/>
			<point x="242" y="-114" type="curve"/>
			<point x="226" y="-126"/>
			<point x="232" y="-150"/>
			<point x="240" y="-158" type="curve" smooth="yes"/>
			<point x="250" y="-168"/>
			<point x="271" y="-180"/>
			<point x="287" y="-167" type="curve" smooth="yes"/>
			<point x="351" y="-115"/>
			<point x="414" y="-42"/>
			<point x="437" y="25" type="curve" smooth="yes"/>
		</contour>
	</outline>
</glyph>
<glyph name="hungarumlaut" format="2">
	<advance width="600"/>
	<unicode hex="02DD"/>
	<note>
		hungarumlaut
	</note>
	<outline>
		<contour>
			<point x="263" y="486" type="curve" smooth="yes"/>
			<point x="297" y="486"/>
			<point x="323" y="512"/>
			<point x="323" y="542" type="curve" smooth="yes"/>
			<point x="323" y="579"/>
			<point x="302" y="603"/>
			<point x="263" y="603" type="curve" smooth="yes"/>
			<point x="228" y="603"/>
			<point x="203" y="578"/>
			<point x="203" y="540" type="curve" smooth="yes"/>
			<point x="203" y="511"/>
			<point x="232" y="486"/>
		</contour>
		<contour>
			<point x="462" y="486" type="curve" smooth="yes"/>
			<point x="496" y="486"/>
			<point x="522" y="512"/>
			<point x="522" y="542" type="curve" smooth="yes"/>
			<point x="522" y="579"/>
			<point x="501" y="603"/>
			<point x="462" y="603" type="curve" smooth="yes"/>
			<point x="427" y="603"/>
			<point x="402" y="578"/>
			<point x="402" y="540" type="curve" smooth="yes"/>
			<point x="402" y="511"/>
			<point x="431" y="486"/>
		</contour>
	</outline>
</glyph>
<glyph name="uni03A9" format="2">
	<advance width="600"/>
	<unicode hex="03A9"/>
	<note>
		uni03A9
	</note>
	<outline>
		<contour>
			<point x="534" y="55" type="curve" smooth="yes"/>
			<point x="429" y="55" type="line"/>
			<point x="524" y="195"/>
			<point x="563" y="271"/>
			<point x="563" y="352" type="curve" smooth="yes"/>
			<point x="563" y="412"/>
			<point x="539" y="473"/>
			<point x="496" y="520" type="curve" smooth="yes"/>
			<point x="447" y="573"/>
			<point x="379" y="603"/>
			<point x="298" y="603" type="curve" smooth="yes"/>
			<point x="217" y="603"/>
			<point x="148" y="574"/>
			<point x="100" y="520" type="curve" smooth="yes"/>
			<point x="58" y="472"/>
			<point x="33" y="412"/>
			<point x="33" y="352" type="curve" smooth="yes"/>
			<point x="33" y="266"/>
			<point x="68" y="199"/>
			<point x="167" y="55" type="curve"/>
			<point x="72" y="55" type="line" smooth="yes"/>
			<point x="58" y="55"/>
			<point x="35" y="47"/>
			<point x="35" y="22" type="curve" smooth="yes"/>
			<point x="35" y="0"/>
			<point x="59" y="-13"/>
			<point x="72" y="-13" type="curve" smooth="yes"/>
			<point x="196" y="-13" type="line" smooth="yes"/>
			<point x="217" y="-13"/>
			<point x="240" y="-6"/>
			<point x="248" y="10" type="curve" smooth="yes"/>
			<point x="257" y="28"/>
			<point x="250" y="45"/>
			<point x="239" y="63" type="curve" smooth="yes"/>
			<point x="138" y="228"/>
			<point x="100" y="266"/>
			<point x="100" y="351" type="curve" smooth="yes"/>
			<point x="100" y="395"/>
			<point x="118" y="440"/>
			<point x="148" y="473" type="curve" smooth="yes"/>
			<point x="185" y="514"/>
			<point x="234" y="535"/>
			<point x="298" y="535" type="curve" smooth="yes"/>
			<point x="361" y="535"/>
			<point x="410" y="514"/>
			<point x="447" y="473" type="curve" smooth="yes"/>
			<point x="477" y="440"/>
			<point x="495" y="395"/>
			<point x="495" y="351" type="curve" smooth="yes"/>
			<point x="495" y="274"/>
			<point x="448" y="213"/>
			<point x="357" y="63" type="curve"/>
			<point x="347" y="45"/>
			<point x="339" y="28"/>
			<point x="348" y="10" type="curve" smooth="yes"/>
			<point x="356" y="-6"/>
			<point x="379" y="-13"/>
			<point x="400" y="-13" type="curve" smooth="yes"/>
			<point x="534" y="-13" type="line" smooth="yes"/>
			<point x="547" y="-13"/>
			<point x="571" y="0"/>
			<point x="571" y="22" type="curve" smooth="yes"/>
			<point x="571" y="47"/>
			<point x="548" y="55"/>
		</contour>
	</outline>
</glyph>
<glyph name="pi" format="2">
	<advance width="600"/>
	<unicode hex="03C0"/>
	<note>
		pi
	</note>
	<outline>
		<contour>
			<point x="539" y="172" type="curve" smooth="yes"/>
			<point x="521" y="180"/>
			<point x="503" y="168"/>
			<point x="496" y="152" type="curve" smooth="yes"/>
			<point x="470" y="97" type="line" smooth="yes"/>
			<point x="451" y="58"/>
			<point x="433" y="49"/>
			<point x="433" y="99" type="curve" smooth="yes"/>
			<point x="433" y="372" type="line"/>
			<point x="490" y="372" type="line" smooth="yes"/>
			<point x="503" y="372"/>
			<point x="517" y="392"/>
			<point x="517" y="407" type="curve" smooth="yes"/>
			<point x="517" y="424"/>
			<point x="506" y="443"/>
			<point x="490" y="443" type="curve" smooth="yes"/>
			<point x="69" y="443" type="line" smooth="yes"/>
			<point x="56" y="443"/>
			<point x="42" y="424"/>
			<point x="42" y="407" type="curve" smooth="yes"/>
			<point x="42" y="392"/>
			<point x="56" y="372"/>
			<point x="69" y="372" type="curve" smooth="yes"/>
			<point x="126" y="372" type="line"/>
			<point x="126" y="0" type="line"/>
			<point x="197" y="0" type="line"/>
			<point x="197" y="372" type="line"/>
			<point x="361" y="372" type="line"/>
			<point x="361" y="104" type="line" smooth="yes"/>
			<point x="361" y="54"/>
			<point x="387" y="0"/>
			<point x="439" y="0" type="curve" smooth="yes"/>
			<point x="475" y="0"/>
			<point x="507" y="23"/>
			<point x="525" y="62" type="curve" smooth="yes"/>
			<point x="553" y="124" type="line" smooth="yes"/>
			<point x="562" y="143"/>
			<point x="553" y="166"/>
		</contour>
	</outline>
</glyph>
<glyph name="quoteleft" format="2">
	<advance width="600"/>
	<unicode hex="2018"/>
	<note>
		quoteleft
	</note>
	<outline>
		<contour>
			<point x="400" y="604" type="curve" smooth="yes"/>
			<point x="365" y="604"/>
			<point x="340" y="579"/>
			<point x="340" y="541" type="curve" smooth="yes"/>
			<point x="340" y="524"/>
			<point x="351" y="508"/>
			<point x="366" y="498" type="curve"/>
			<point x="338" y="451"/>
			<point x="288" y="409"/>
			<point x="228" y="375" type="curve" smooth="yes"/>
			<point x="211" y="365"/>
			<point x="213" y="341"/>
			<point x="219" y="331" type="curve" smooth="yes"/>
			<point x="226" y="319"/>
			<point x="246" y="304"/>
			<point x="263" y="314" type="curve" smooth="yes"/>
			<point x="356" y="368"/>
			<point x="460" y="467"/>
			<point x="460" y="543" type="curve" smooth="yes"/>
			<point x="460" y="580"/>
			<point x="439" y="604"/>
		</contour>
	</outline>
</glyph>
<glyph name="quoteright" format="2">
	<advance width="600"/>
	<unicode hex="2019"/>
	<note>
		quoteright
	</note>
	<outline>
		<contour>
			<point x="274" y="310" type="curve" smooth="yes"/>
			<point x="309" y="310"/>
			<point x="334" y="335"/>
			<point x="334" y="373" type="curve" smooth="yes"/>
			<point x="334" y="390"/>
			<point x="323" y="406"/>
			<point x="308" y="416" type="curve"/>
			<point x="336" y="463"/>
			<point x="386" y="505"/>
			<point x="446" y="539" type="curve"/>
			<point x="463" y="549"/>
			<point x="461" y="573"/>
			<point x="455" y="583" type="curve" smooth="yes"/>
			<point x="448" y="595"/>
			<point x="428" y="610"/>
			<point x="411" y="600" type="curve" smooth="yes"/>
			<point x="318" y="546"/>
			<point x="214" y="447"/>
			<point x="214" y="371" type="curve" smooth="yes"/>
			<point x="214" y="334"/>
			<point x="235" y="310"/>
		</contour>
	</outline>
</glyph>
<glyph name="quotesinglbase" format="2">
	<advance width="600"/>
	<unicode hex="201A"/>
	<note>
		quotesinglbase
	</note>
	<outline>
		<contour>
			<point x="403" y="55" type="curve" smooth="yes"/>
			<point x="403" y="56" type="line" smooth="yes"/>
			<point x="403" y="93"/>
			<point x="382" y="117"/>
			<point x="343" y="117" type="curve" smooth="yes"/>
			<point x="308" y="117"/>
			<point x="283" y="92"/>
			<point x="283" y="54" type="curve" smooth="yes"/>
			<point x="283" y="35"/>
			<point x="296" y="17"/>
			<point x="313" y="8" type="curve"/>
			<point x="292" y="-35"/>
			<point x="250" y="-76"/>
			<point x="206" y="-113" type="curve"/>
			<point x="190" y="-125"/>
			<point x="196" y="-149"/>
			<point x="204" y="-157" type="curve" smooth="yes"/>
			<point x="214" y="-167"/>
			<point x="235" y="-179"/>
			<point x="251" y="-166" type="curve" smooth="yes"/>
			<point x="314" y="-112"/>
			<point x="388" y="-26"/>
			<point x="401" y="43" type="curve"/>
			<point x="402" y="47"/>
			<point x="403" y="51"/>
		</contour>
	</outline>
</glyph>
<glyph name="quotedblleft" format="2">
	<advance width="600"/>
	<unicode hex="201C"/>
	<note>
		quotedblleft
	</note>
	<outline>
		<contour>
			<point x="415" y="603" type="curve" smooth="yes"/>
			<point x="376" y="603"/>
			<point x="355" y="579"/>
			<point x="355" y="542" type="curve" smooth="yes"/>
			<point x="355" y="466"/>
			<point x="459" y="367"/>
			<point x="552" y="313" type="curve" smooth="yes"/>
			<point x="569" y="303"/>
			<point x="589" y="318"/>
			<point x="596" y="330" type="curve" smooth="yes"/>
			<point x="602" y="340"/>
			<point x="604" y="364"/>
			<point x="587" y="374" type="curve" smooth="yes"/>
			<point x="527" y="408"/>
			<point x="477" y="450"/>
			<point x="449" y="497" type="curve"/>
			<point x="464" y="507"/>
			<point x="475" y="523"/>
			<point x="475" y="540" type="curve" smooth="yes"/>
			<point x="475" y="578"/>
			<point x="450" y="603"/>
		</contour>
		<contour>
			<point x="226" y="603" type="curve" smooth="yes"/>
			<point x="187" y="603"/>
			<point x="166" y="579"/>
			<point x="166" y="542" type="curve" smooth="yes"/>
			<point x="166" y="466"/>
			<point x="270" y="367"/>
			<point x="363" y="313" type="curve" smooth="yes"/>
			<point x="380" y="303"/>
			<point x="400" y="318"/>
			<point x="407" y="330" type="curve" smooth="yes"/>
			<point x="413" y="340"/>
			<point x="415" y="364"/>
			<point x="398" y="374" type="curve" smooth="yes"/>
			<point x="338" y="408"/>
			<point x="288" y="450"/>
			<point x="260" y="497" type="curve"/>
			<point x="275" y="507"/>
			<point x="286" y="523"/>
			<point x="286" y="540" type="curve" smooth="yes"/>
			<point x="286" y="578"/>
			<point x="261" y="603"/>
		</contour>
	</outline>
</glyph>
<glyph name="bullet" format="2">
	<advance width="600"/>
	<unicode hex="2022"/>
	<note>
		bullet
	</note>
	<outline>
		<contour>
			<point x="300" y="117" type="curve" smooth="yes"/>
			<point x="357" y="117"/>
			<point x="402" y="162"/>
			<point x="402" y="212" type="curve" smooth="yes"/>
			<point x="402" y="275"/>
			<point x="365" y="315"/>
			<point x="300" y="315" type="curve" smooth="yes"/>
			<point x="240" y="315"/>
			<point x="199" y="273"/>
			<point x="199" y="208" type="curve" smooth="yes"/>
			<point x="199" y="159"/>
			<point x="247" y="117"/>
		</contour>
	</outline>
</glyph>
<glyph name="Euro" format="2">
	<advance width="600"/>
	<unicode hex="20AC"/>
	<note>
		Euro
	</note>
	<outline>
		<contour>
			<point x="454" y="128" type="curve"/>
			<point x="442" y="136"/>
			<point x="422" y="138"/>
			<point x="406" y="125" type="curve" smooth="yes"/>
			<point x="352" y="78"/>
			<point x="299" y="52"/>
			<point x="231" y="52" type="curve" smooth="yes"/>
			<point x="162" y="52"/>
			<point x="129" y="129"/>
			<point x="129" y="189" type="curve" smooth="yes"/>
			<point x="129" y="201" type="line"/>
			<point x="281" y="201" type="line" smooth="yes"/>
			<point x="300" y="201"/>
			<point x="310" y="223"/>
			<point x="310" y="235" type="curve" smooth="yes"/>
			<point x="310" y="249"/>
			<point x="302" y="271"/>
			<point x="281" y="271" type="curve" smooth="yes"/>
			<point x="135" y="271" type="line"/>
			<point x="138" y="288"/>
			<point x="142" y="305"/>
			<point x="147" y="321" type="curve"/>
			<point x="303" y="321" type="line" smooth="yes"/>
			<point x="322" y="321"/>
			<point x="332" y="343"/>
			<point x="332" y="355" type="curve" smooth="yes"/>
			<point x="332" y="369"/>
			<point x="323" y="391"/>
			<point x="303" y="391" type="curve" smooth="yes"/>
			<point x="176" y="391" type="line"/>
			<point x="189" y="415"/>
			<point x="205" y="438"/>
			<point x="225" y="459" type="curve" smooth="yes"/>
			<point x="276" y="512"/>
			<point x="346" y="533"/>
			<point x="404" y="533" type="curve" smooth="yes"/>
			<point x="423" y="533"/>
			<point x="433" y="555"/>
			<point x="433" y="567" type="curve" smooth="yes"/>
			<point x="433" y="581"/>
			<point x="424" y="603"/>
			<point x="404" y="603" type="curve" smooth="yes"/>
			<point x="315" y="603"/>
			<point x="227" y="571"/>
			<point x="173" y="507" type="curve" smooth="yes"/>
			<point x="138" y="465"/>
			<point x="113" y="427"/>
			<point x="97" y="391" type="curve"/>
			<point x="53" y="391" type="line" smooth="yes"/>
			<point x="33" y="391"/>
			<point x="24" y="369"/>
			<point x="24" y="355" type="curve" smooth="yes"/>
			<point x="24" y="343"/>
			<point x="34" y="321"/>
			<point x="53" y="321" type="curve" smooth="yes"/>
			<point x="72" y="321" type="line"/>
			<point x="68" y="304"/>
			<point x="65" y="288"/>
			<point x="63" y="271" type="curve"/>
			<point x="31" y="271" type="line" smooth="yes"/>
			<point x="11" y="271"/>
			<point x="2" y="249"/>
			<point x="2" y="235" type="curve" smooth="yes"/>
			<point x="2" y="223"/>
			<point x="12" y="201"/>
			<point x="31" y="201" type="curve" smooth="yes"/>
			<point x="59" y="201" type="line"/>
			<point x="59" y="188" type="line" smooth="yes"/>
			<point x="59" y="96"/>
			<point x="106" y="-16"/>
			<point x="231" y="-16" type="curve" smooth="yes"/>
			<point x="331" y="-16"/>
			<point x="401" y="25"/>
			<point x="462" y="83" type="curve"/>
			<point x="471" y="98"/>
			<point x="465" y="120"/>
		</contour>
	</outline>
</glyph>
<glyph name="arrowleft" format="2">
	<advance width="600"/>
	<unicode hex="2190"/>
	<outline>
		<contour>
			<point x="342" y="41" type="curve" smooth="yes"/>
			<point x="335" y="26"/>
			<point x="313" y="14"/>
			<point x="299" y="23" type="curve" smooth="yes"/>
			<point x="24" y="198" type="line" smooth="yes"/>
			<point x="8" y="208"/>
			<point x="-1" y="218"/>
			<point x="-1" y="233" type="curve" smooth="yes"/>
			<point x="-1" y="246"/>
			<point x="8" y="264"/>
			<point x="23" y="271" type="curve"/>
			<point x="329" y="86" type="line"/>
			<point x="346" y="78"/>
			<point x="349" y="56"/>
		</contour>
		<contour>
			<point x="342" y="429" type="curve" smooth="yes"/>
			<point x="349" y="414"/>
			<point x="346" y="392"/>
			<point x="329" y="384" type="curve"/>
			<point x="23" y="199" type="line"/>
			<point x="8" y="206"/>
			<point x="-1" y="224"/>
			<point x="-1" y="237" type="curve" smooth="yes"/>
			<point x="-1" y="252"/>
			<point x="8" y="262"/>
			<point x="24" y="272" type="curve" smooth="yes"/>
			<point x="299" y="447" type="line" smooth="yes"/>
			<point x="313" y="456"/>
			<point x="335" y="444"/>
		</contour>
		<contour>
			<point x="599" y="234" type="curve" smooth="yes"/>
			<point x="599" y="217"/>
			<point x="583" y="200"/>
			<point x="558" y="200" type="curve"/>
			<point x="104" y="200" type="line"/>
			<point x="89" y="207"/>
			<point x="82" y="229"/>
			<point x="82" y="242" type="curve" smooth="yes"/>
			<point x="82" y="257"/>
			<point x="79" y="268"/>
			<point x="97" y="268" type="curve" smooth="yes"/>
			<point x="558" y="268" type="line" smooth="yes"/>
			<point x="583" y="268"/>
			<point x="599" y="249"/>
		</contour>
	</outline>
</glyph>
<glyph name="arrowup" format="2">
	<advance width="600"/>
	<unicode hex="2191"/>
	<outline>
		<contour>
			<point x="105" y="192" type="curve" smooth="yes"/>
			<point x="90" y="199"/>
			<point x="78" y="221"/>
			<point x="87" y="235" type="curve" smooth="yes"/>
			<point x="262" y="510" type="line" smooth="yes"/>
			<point x="272" y="526"/>
			<point x="282" y="534"/>
			<point x="297" y="534" type="curve" smooth="yes"/>
			<point x="310" y="534"/>
			<point x="328" y="526"/>
			<point x="335" y="511" type="curve"/>
			<point x="150" y="205" type="line"/>
			<point x="142" y="188"/>
			<point x="120" y="185"/>
		</contour>
		<contour>
			<point x="493" y="192" type="curve" smooth="yes"/>
			<point x="478" y="185"/>
			<point x="456" y="188"/>
			<point x="448" y="205" type="curve"/>
			<point x="263" y="511" type="line"/>
			<point x="270" y="526"/>
			<point x="288" y="534"/>
			<point x="301" y="534" type="curve" smooth="yes"/>
			<point x="316" y="534"/>
			<point x="326" y="526"/>
			<point x="336" y="510" type="curve" smooth="yes"/>
			<point x="511" y="235" type="line" smooth="yes"/>
			<point x="520" y="221"/>
			<point x="508" y="199"/>
		</contour>
		<contour>
			<point x="298" y="-65" type="curve" smooth="yes"/>
			<point x="281" y="-65"/>
			<point x="264" y="-49"/>
			<point x="264" y="-24" type="curve"/>
			<point x="264" y="430" type="line"/>
			<point x="271" y="445"/>
			<point x="293" y="452"/>
			<point x="306" y="452" type="curve" smooth="yes"/>
			<point x="321" y="452"/>
			<point x="332" y="455"/>
			<point x="332" y="437" type="curve" smooth="yes"/>
			<point x="332" y="-24" type="line" smooth="yes"/>
			<point x="332" y="-49"/>
			<point x="313" y="-65"/>
		</contour>
	</outline>
</glyph>
<glyph name="arrowdown" format="2">
	<advance width="600"/>
	<unicode hex="2193"/>
	<outline>
		<contour>
			<point x="493" y="278" type="curve" smooth="yes"/>
			<point x="508" y="271"/>
			<point x="520" y="249"/>
			<point x="511" y="235" type="curve" smooth="yes"/>
			<point x="336" y="-41" type="line" smooth="yes"/>
			<point x="326" y="-57"/>
			<point x="316" y="-65"/>
			<point x="301" y="-65" type="curve" smooth="yes"/>
			<point x="288" y="-65"/>
			<point x="270" y="-57"/>
			<point x="263" y="-42" type="curve"/>
			<point x="448" y="265" type="line"/>
			<point x="456" y="282"/>
			<point x="478" y="285"/>
		</contour>
		<contour>
			<point x="104" y="278" type="curve" smooth="yes"/>
			<point x="119" y="285"/>
			<point x="142" y="282"/>
			<point x="150" y="265" type="curve"/>
			<point x="335" y="-42" type="line"/>
			<point x="328" y="-57"/>
			<point x="310" y="-65"/>
			<point x="297" y="-65" type="curve" smooth="yes"/>
			<point x="282" y="-65"/>
			<point x="272" y="-57"/>
			<point x="262" y="-41" type="curve" smooth="yes"/>
			<point x="86" y="235" type="line" smooth="yes"/>
			<point x="77" y="249"/>
			<point x="89" y="271"/>
		</contour>
		<contour>
			<point x="300" y="535" type="curve" smooth="yes"/>
			<point x="317" y="535"/>
			<point x="334" y="519"/>
			<point x="334" y="494" type="curve"/>
			<point x="334" y="40" type="line"/>
			<point x="327" y="25"/>
			<point x="305" y="18"/>
			<point x="292" y="18" type="curve" smooth="yes"/>
			<point x="277" y="18"/>
			<point x="266" y="15"/>
			<point x="266" y="33" type="curve" smooth="yes"/>
			<point x="266" y="494" type="line" smooth="yes"/>
			<point x="266" y="519"/>
			<point x="285" y="535"/>
		</contour>
	</outline>
</glyph>
<glyph name="uni2197" format="2">
	<advance width="600"/>
	<unicode hex="2197"/>
	<outline>
		<contour>
			<point x="132" y="342" type="curve" smooth="yes"/>
			<point x="126" y="357"/>
			<point x="133" y="381"/>
			<point x="149" y="385" type="curve" smooth="yes"/>
			<point x="468" y="455" type="line" smooth="yes"/>
			<point x="486" y="460"/>
			<point x="499" y="458"/>
			<point x="509" y="448" type="curve" smooth="yes"/>
			<point x="519" y="439"/>
			<point x="526" y="420"/>
			<point x="520" y="405" type="curve"/>
			<point x="173" y="319" type="line"/>
			<point x="155" y="313"/>
			<point x="137" y="326"/>
		</contour>
		<contour>
			<point x="406" y="67" type="curve" smooth="yes"/>
			<point x="391" y="73"/>
			<point x="377" y="91"/>
			<point x="383" y="108" type="curve"/>
			<point x="469" y="455" type="line"/>
			<point x="485" y="461"/>
			<point x="503" y="454"/>
			<point x="512" y="445" type="curve" smooth="yes"/>
			<point x="523" y="434"/>
			<point x="524" y="422"/>
			<point x="520" y="403" type="curve" smooth="yes"/>
			<point x="449" y="85" type="line" smooth="yes"/>
			<point x="446" y="69"/>
			<point x="422" y="62"/>
		</contour>
		<contour>
			<point x="87" y="23" type="curve" smooth="yes"/>
			<point x="74" y="35"/>
			<point x="74" y="59"/>
			<point x="91" y="76" type="curve"/>
			<point x="412" y="397" type="line"/>
			<point x="428" y="403"/>
			<point x="449" y="393"/>
			<point x="458" y="383" type="curve" smooth="yes"/>
			<point x="468" y="373"/>
			<point x="478" y="367"/>
			<point x="466" y="354" type="curve" smooth="yes"/>
			<point x="140" y="28" type="line" smooth="yes"/>
			<point x="122" y="11"/>
			<point x="97" y="13"/>
		</contour>
	</outline>
</glyph>
<glyph name="partialdiff" format="2">
	<advance width="600"/>
	<unicode hex="2202"/>
	<note>
		partialdiff
	</note>
	<outline>
		<contour>
			<point x="255" y="587" type="curve" smooth="yes"/>
			<point x="230" y="594"/>
			<point x="207" y="596"/>
			<point x="200" y="571" type="curve" smooth="yes"/>
			<point x="192" y="541"/>
			<point x="216" y="526"/>
			<point x="237" y="521" type="curve"/>
			<point x="327" y="496"/>
			<point x="388" y="445"/>
			<point x="422" y="366" type="curve"/>
			<point x="387" y="390"/>
			<point x="345" y="403"/>
			<point x="301" y="403" type="curve" smooth="yes"/>
			<point x="194" y="403"/>
			<point x="106" y="311"/>
			<point x="106" y="201" type="curve" smooth="yes"/>
			<point x="106" y="85"/>
			<point x="195" y="-6"/>
			<point x="305" y="-6" type="curve" smooth="yes"/>
			<point x="426" y="-6"/>
			<point x="512" y="90"/>
			<point x="512" y="223" type="curve" smooth="yes"/>
			<point x="512" y="416"/>
			<point x="423" y="543"/>
		</contour>
		<contour>
			<point x="305" y="63" type="curve" smooth="yes"/>
			<point x="233" y="63"/>
			<point x="175" y="123"/>
			<point x="175" y="201" type="curve" smooth="yes"/>
			<point x="175" y="275"/>
			<point x="231" y="334"/>
			<point x="301" y="334" type="curve" smooth="yes"/>
			<point x="376" y="334"/>
			<point x="443" y="277"/>
			<point x="443" y="214" type="curve" smooth="yes"/>
			<point x="443" y="128"/>
			<point x="384" y="63"/>
		</contour>
	</outline>
</glyph>
<glyph name="summation" format="2">
	<advance width="600"/>
	<unicode hex="2211"/>
	<note>
		summation
	</note>
	<outline>
		<contour>
			<point x="534" y="-173" type="line"/>
			<point x="96" y="-173" type="line"/>
			<point x="96" y="-105" type="line"/>
			<point x="298" y="214" type="line"/>
			<point x="96" y="535" type="line"/>
			<point x="96" y="603" type="line"/>
			<point x="535" y="603" type="line"/>
			<point x="535" y="535" type="line"/>
			<point x="183" y="535" type="line"/>
			<point x="381" y="226" type="line"/>
			<point x="388" y="216" type="line"/>
			<point x="381" y="204" type="line"/>
			<point x="182" y="-105" type="line"/>
			<point x="534" y="-106" type="line"/>
		</contour>
	</outline>
</glyph>
<glyph name="radical" format="2">
	<advance width="600"/>
	<unicode hex="221A"/>
	<note>
		radical
	</note>
	<outline>
		<contour>
			<point x="203" y="186" type="line"/>
			<point x="110" y="153" type="line" smooth="yes"/>
			<point x="95" y="148"/>
			<point x="72" y="156"/>
			<point x="66" y="173" type="curve" smooth="yes"/>
			<point x="61" y="188"/>
			<point x="74" y="210"/>
			<point x="88" y="216" type="curve"/>
			<point x="251" y="276" type="line"/>
			<point x="368" y="-65" type="line"/>
			<point x="530" y="577" type="line"/>
			<point x="537" y="595"/>
			<point x="557" y="605"/>
			<point x="576" y="601" type="curve" smooth="yes"/>
			<point x="593" y="597"/>
			<point x="603" y="576"/>
			<point x="598" y="559" type="curve" smooth="yes"/>
			<point x="404" y="-173" type="line"/>
			<point x="335" y="-173" type="line"/>
		</contour>
	</outline>
</glyph>
<glyph name="infinity" format="2">
	<advance width="600"/>
	<unicode hex="221E"/>
	<note>
		infinity
	</note>
	<outline>
		<contour>
			<point x="163" y="-13" type="curve" smooth="yes"/>
			<point x="243" y="-13"/>
			<point x="263" y="30"/>
			<point x="298" y="80" type="curve"/>
			<point x="331" y="36"/>
			<point x="376" y="-13"/>
			<point x="435" y="-13" type="curve" smooth="yes"/>
			<point x="474" y="-13"/>
			<point x="513" y="3"/>
			<point x="541" y="29" type="curve" smooth="yes"/>
			<point x="571" y="56"/>
			<point x="587" y="95"/>
			<point x="587" y="132" type="curve" smooth="yes"/>
			<point x="587" y="170"/>
			<point x="571" y="205"/>
			<point x="541" y="235" type="curve" smooth="yes"/>
			<point x="513" y="263"/>
			<point x="474" y="278"/>
			<point x="435" y="278" type="curve" smooth="yes"/>
			<point x="384" y="278"/>
			<point x="342" y="251"/>
			<point x="298" y="185" type="curve"/>
			<point x="249" y="251"/>
			<point x="210" y="278"/>
			<point x="163" y="278" type="curve" smooth="yes"/>
			<point x="124" y="278"/>
			<point x="83" y="262"/>
			<point x="56" y="236" type="curve" smooth="yes"/>
			<point x="26" y="207"/>
			<point x="10" y="171"/>
			<point x="10" y="132" type="curve" smooth="yes"/>
			<point x="10" y="95"/>
			<point x="27" y="58"/>
			<point x="56" y="29" type="curve" smooth="yes"/>
			<point x="83" y="2"/>
			<point x="123" y="-13"/>
		</contour>
		<contour>
			<point x="260" y="132" type="curve"/>
			<point x="214" y="80"/>
			<point x="194" y="50"/>
			<point x="162" y="50" type="curve" smooth="yes"/>
			<point x="115" y="50"/>
			<point x="74" y="89"/>
			<point x="74" y="132" type="curve" smooth="yes"/>
			<point x="74" y="153"/>
			<point x="82" y="172"/>
			<point x="101" y="191" type="curve" smooth="yes"/>
			<point x="116" y="206"/>
			<point x="136" y="216"/>
			<point x="158" y="216" type="curve" smooth="yes"/>
			<point x="192" y="216"/>
			<point x="210" y="199"/>
		</contour>
		<contour>
			<point x="434" y="50" type="curve" smooth="yes"/>
			<point x="406" y="50"/>
			<point x="376" y="89"/>
			<point x="336" y="133" type="curve"/>
			<point x="383" y="197"/>
			<point x="406" y="216"/>
			<point x="434" y="216" type="curve" smooth="yes"/>
			<point x="481" y="216"/>
			<point x="523" y="177"/>
			<point x="523" y="132" type="curve" smooth="yes"/>
			<point x="523" y="89"/>
			<point x="480" y="50"/>
		</contour>
	</outline>
</glyph>
<glyph name="approxequal" format="2">
	<advance width="600"/>
	<unicode hex="2248"/>
	<note>
		approxequal
	</note>
	<outline>
		<contour>
			<point x="389" y="218" type="curve" smooth="yes"/>
			<point x="465" y="218"/>
			<point x="521" y="296"/>
			<point x="521" y="396" type="curve" smooth="yes"/>
			<point x="521" y="428"/>
			<point x="510" y="443"/>
			<point x="488" y="443" type="curve" smooth="yes"/>
			<point x="466" y="443"/>
			<point x="458" y="423"/>
			<point x="458" y="396" type="curve" smooth="yes"/>
			<point x="458" y="330"/>
			<point x="427" y="282"/>
			<point x="389" y="281" type="curve" smooth="yes"/>
			<point x="321" y="279"/>
			<point x="322" y="443"/>
			<point x="199" y="443" type="curve" smooth="yes"/>
			<point x="122" y="443"/>
			<point x="76" y="367"/>
			<point x="76" y="268" type="curve" smooth="yes"/>
			<point x="76" y="231"/>
			<point x="89" y="217"/>
			<point x="109" y="217" type="curve" smooth="yes"/>
			<point x="130" y="217"/>
			<point x="139" y="233"/>
			<point x="139" y="268" type="curve" smooth="yes"/>
			<point x="139" y="332"/>
			<point x="162" y="380"/>
			<point x="199" y="380" type="curve" smooth="yes"/>
			<point x="282" y="380"/>
			<point x="280" y="218"/>
		</contour>
		<contour>
			<point x="389" y="-13" type="curve" smooth="yes"/>
			<point x="465" y="-13"/>
			<point x="521" y="65"/>
			<point x="521" y="165" type="curve" smooth="yes"/>
			<point x="521" y="197"/>
			<point x="510" y="212"/>
			<point x="488" y="212" type="curve" smooth="yes"/>
			<point x="466" y="212"/>
			<point x="458" y="192"/>
			<point x="458" y="165" type="curve" smooth="yes"/>
			<point x="458" y="99"/>
			<point x="427" y="51"/>
			<point x="389" y="50" type="curve" smooth="yes"/>
			<point x="332" y="48"/>
			<point x="320" y="212"/>
			<point x="199" y="212" type="curve" smooth="yes"/>
			<point x="122" y="212"/>
			<point x="76" y="136"/>
			<point x="76" y="37" type="curve" smooth="yes"/>
			<point x="76" y="0"/>
			<point x="89" y="-14"/>
			<point x="109" y="-14" type="curve" smooth="yes"/>
			<point x="130" y="-14"/>
			<point x="139" y="2"/>
			<point x="139" y="37" type="curve" smooth="yes"/>
			<point x="139" y="101"/>
			<point x="162" y="149"/>
			<point x="199" y="149" type="curve" smooth="yes"/>
			<point x="282" y="149"/>
			<point x="280" y="-13"/>
		</contour>
	</outline>
</glyph>
<glyph name="notequal" format="2">
	<advance width="600"/>
	<unicode hex="2260"/>
	<note>
		notequal
	</note>
	<outline>
		<contour>
			<point x="505" y="154" type="curve" smooth="yes"/>
			<point x="324" y="154" type="line"/>
			<point x="354" y="276" type="line"/>
			<point x="505" y="276" type="line" smooth="yes"/>
			<point x="525" y="276"/>
			<point x="539" y="298"/>
			<point x="539" y="310" type="curve" smooth="yes"/>
			<point x="539" y="323"/>
			<point x="526" y="346"/>
			<point x="505" y="346" type="curve" smooth="yes"/>
			<point x="371" y="346" type="line"/>
			<point x="389" y="417" type="line"/>
			<point x="392" y="438"/>
			<point x="372" y="449"/>
			<point x="356" y="449" type="curve" smooth="yes"/>
			<point x="339" y="449"/>
			<point x="317" y="438"/>
			<point x="312" y="416" type="curve" smooth="yes"/>
			<point x="295" y="346" type="line"/>
			<point x="87" y="346" type="line" smooth="yes"/>
			<point x="70" y="346"/>
			<point x="61" y="323"/>
			<point x="61" y="310" type="curve" smooth="yes"/>
			<point x="61" y="298"/>
			<point x="74" y="276"/>
			<point x="87" y="276" type="curve" smooth="yes"/>
			<point x="277" y="276" type="line"/>
			<point x="247" y="154" type="line"/>
			<point x="87" y="154" type="line" smooth="yes"/>
			<point x="74" y="154"/>
			<point x="61" y="133"/>
			<point x="61" y="120" type="curve" smooth="yes"/>
			<point x="61" y="104"/>
			<point x="74" y="84"/>
			<point x="87" y="84" type="curve" smooth="yes"/>
			<point x="230" y="84" type="line"/>
			<point x="216" y="28" type="line" smooth="yes"/>
			<point x="210" y="0"/>
			<point x="227" y="-13"/>
			<point x="242" y="-13" type="curve" smooth="yes"/>
			<point x="267" y="-13"/>
			<point x="287" y="0"/>
			<point x="293" y="28" type="curve" smooth="yes"/>
			<point x="307" y="84" type="line"/>
			<point x="505" y="84" type="line" smooth="yes"/>
			<point x="529" y="84"/>
			<point x="539" y="108"/>
			<point x="539" y="120" type="curve" smooth="yes"/>
			<point x="539" y="133"/>
			<point x="529" y="154"/>
		</contour>
	</outline>
</glyph>
<glyph name="fi" format="2">
	<advance width="1200"/>
	<unicode hex="FB01"/>
	<note>
		fi
	</note>
	<outline>
		<contour>
			<point x="992" y="489" type="curve" smooth="yes"/>
			<point x="1026" y="489"/>
			<point x="1052" y="515"/>
			<point x="1052" y="545" type="curve" smooth="yes"/>
			<point x="1052" y="582"/>
			<point x="1031" y="606"/>
			<point x="992" y="606" type="curve" smooth="yes"/>
			<point x="957" y="606"/>
			<point x="932" y="581"/>
			<point x="932" y="543" type="curve" smooth="yes"/>
			<point x="932" y="514"/>
			<point x="961" y="489"/>
		</contour>
		<contour>
			<point x="1342" y="292" type="curve" smooth="yes"/>
			<point x="1333" y="309"/>
			<point x="1312" y="310"/>
			<point x="1294" y="295" type="curve" smooth="yes"/>
			<point x="1207" y="221"/>
			<point x="1122" y="148"/>
			<point x="1036" y="74" type="curve" smooth="yes"/>
			<point x="1015" y="56"/>
			<point x="988" y="48"/>
			<point x="971" y="48" type="curve" smooth="yes"/>
			<point x="937" y="48"/>
			<point x="911" y="70"/>
			<point x="925" y="127" type="curve" smooth="yes"/>
			<point x="978" y="346" type="line" smooth="yes"/>
			<point x="991" y="399"/>
			<point x="953" y="444"/>
			<point x="899" y="444" type="curve" smooth="yes"/>
			<point x="878" y="444"/>
			<point x="858" y="435"/>
			<point x="839" y="419" type="curve" smooth="yes"/>
			<point x="554" y="176" type="line" smooth="yes"/>
			<point x="457" y="94"/>
			<point x="389" y="52"/>
			<point x="321" y="52" type="curve" smooth="yes"/>
			<point x="289" y="52"/>
			<point x="265" y="61"/>
			<point x="253" y="79" type="curve"/>
			<point x="335" y="416" type="line"/>
			<point x="407" y="472"/>
			<point x="442" y="512"/>
			<point x="442" y="551" type="curve" smooth="yes"/>
			<point x="442" y="577"/>
			<point x="425" y="603"/>
			<point x="388" y="603" type="curve" smooth="yes"/>
			<point x="336" y="603"/>
			<point x="295" y="571"/>
			<point x="281" y="512" type="curve" smooth="yes"/>
			<point x="263" y="438" type="line"/>
			<point x="13" y="226" type="line" smooth="yes"/>
			<point x="1" y="216"/>
			<point x="-6" y="201"/>
			<point x="10" y="183" type="curve" smooth="yes"/>
			<point x="27" y="164"/>
			<point x="45" y="173"/>
			<point x="58" y="183" type="curve"/>
			<point x="245" y="345" type="line"/>
			<point x="175" y="68" type="line" smooth="yes"/>
			<point x="144" y="-56"/>
			<point x="114" y="-97"/>
			<point x="90" y="-113" type="curve" smooth="yes"/>
			<point x="73" y="-124"/>
			<point x="66" y="-140"/>
			<point x="74" y="-155" type="curve" smooth="yes"/>
			<point x="85" y="-175"/>
			<point x="104" y="-178"/>
			<point x="127" y="-165" type="curve" smooth="yes"/>
			<point x="148" y="-153"/>
			<point x="196" y="-102"/>
			<point x="233" y="8" type="curve"/>
			<point x="254" y="-7"/>
			<point x="282" y="-13"/>
			<point x="307" y="-13" type="curve" smooth="yes"/>
			<point x="387" y="-13"/>
			<point x="464" y="16"/>
			<point x="581" y="117" type="curve" smooth="yes"/>
			<point x="710" y="227" type="line"/>
			<point x="712" y="229" type="line"/>
			<point x="858" y="354" type="line" smooth="yes"/>
			<point x="874" y="368"/>
			<point x="882" y="374"/>
			<point x="892" y="374" type="curve" smooth="yes"/>
			<point x="909" y="374"/>
			<point x="916" y="360"/>
			<point x="910" y="336" type="curve" smooth="yes"/>
			<point x="856" y="110" type="line" smooth="yes"/>
			<point x="838" y="35"/>
			<point x="887" y="-13"/>
			<point x="959" y="-13" type="curve" smooth="yes"/>
			<point x="999" y="-13"/>
			<point x="1046" y="2"/>
			<point x="1085" y="35" type="curve" smooth="yes"/>
			<point x="1320" y="236" type="line" smooth="yes"/>
			<point x="1340" y="254"/>
			<point x="1352" y="273"/>
		</contour>
	</outline>
</glyph>
<glyph name=".notdef" format="2">
	<advance width="1200"/>
	<note>
		.notdef
	</note>
	<outline>
		<contour>
			<point x="160" y="600" type="line"/>
			<point x="160" y="700" type="line"/>
			<point x="150" y="700" type="line"/>
			<point x="150" y="600" type="line"/>
		</contour>
		<contour>
			<point x="200" y="600" type="line"/>
			<point x="200" y="645" type="line"/>
			<point x="240" y="645" type="line"/>
			<point x="240" y="655" type="line"/>
			<point x="200" y="655" type="line"/>
			<point x="200" y="690" type="line"/>
			<point x="260" y="690" type="line"/>
			<point x="260" y="700" type="line"/>
			<point x="190" y="700" type="line"/>
			<point x="190" y="600" type="line"/>
		</contour>
		<contour>
			<point x="325" y="645" type="line"/>
			<point x="325" y="600" type="line"/>
			<point x="335" y="600" type="line"/>
			<point x="335" y="645" type="line"/>
			<point x="370" y="645" type="line"/>
			<point x="370" y="700" type="line"/>
			<point x="360" y="700" type="line"/>
			<point x="360" y="655" type="line"/>
			<point x="300" y="655" type="line"/>
			<point x="300" y="700" type="line"/>
			<point x="290" y="700" type="line"/>
			<point x="290" y="645" type="line"/>
		</contour>
		<contour>
			<point x="400" y="700" type="line"/>
			<point x="400" y="600" type="line"/>
			<point x="475" y="600" type="line"/>
			<point x="475" y="700" type="line"/>
		</contour>
		<contour>
			<point x="505" y="700" type="line"/>
			<point x="505" y="600" type="line"/>
			<point x="585" y="600" type="line"/>
			<point x="585" y="700" type="line"/>
			<point x="575" y="700" type="line"/>
			<point x="575" y="610" type="line"/>
			<point x="515" y="610" type="line"/>
			<point x="515" y="700" type="line"/>
		</contour>
		<contour>
			<point x="1060" y="700" type="line"/>
			<point x="615" y="700" type="line"/>
			<point x="615" y="600" type="line"/>
			<point x="1060" y="600" type="line"/>
		</contour>
		<contour>
			<point x="410" y="690" type="line"/>
			<point x="465" y="690" type="line"/>
			<point x="465" y="610" type="line"/>
			<point x="410" y="610" type="line"/>
		</contour>
		<contour>
			<point x="150" y="550" type="line"/>
			<point x="150" y="450" type="line"/>
			<point x="240" y="450" type="line"/>
			<point x="240" y="550" type="line"/>
			<point x="230" y="550" type="line"/>
			<point x="230" y="460" type="line"/>
			<point x="200" y="460" type="line"/>
			<point x="200" y="515" type="line"/>
			<point x="190" y="515" type="line"/>
			<point x="190" y="460" type="line"/>
			<point x="160" y="460" type="line"/>
			<point x="160" y="550" type="line"/>
		</contour>
		<contour>
			<point x="275" y="450" type="line"/>
			<point x="275" y="480" type="line"/>
			<point x="350" y="480" type="line"/>
			<point x="350" y="450" type="line"/>
			<point x="360" y="450" type="line"/>
			<point x="360" y="490" type="line"/>
			<point x="345" y="490" type="line"/>
			<point x="345" y="520" type="line"/>
			<point x="330" y="520" type="line"/>
			<point x="330" y="550" type="line"/>
			<point x="295" y="550" type="line"/>
			<point x="295" y="520" type="line"/>
			<point x="280" y="520" type="line"/>
			<point x="280" y="490" type="line"/>
			<point x="265" y="490" type="line"/>
			<point x="265" y="450" type="line"/>
		</contour>
		<contour>
			<point x="395" y="450" type="line"/>
			<point x="395" y="540" type="line"/>
			<point x="405" y="540" type="line"/>
			<point x="405" y="510" type="line"/>
			<point x="420" y="510" type="line"/>
			<point x="420" y="480" type="line"/>
			<point x="435" y="480" type="line"/>
			<point x="435" y="450" type="line"/>
			<point x="465" y="450" type="line"/>
			<point x="465" y="550" type="line"/>
			<point x="455" y="550" type="line"/>
			<point x="455" y="460" type="line"/>
			<point x="445" y="460" type="line"/>
			<point x="445" y="490" type="line"/>
			<point x="430" y="490" type="line"/>
			<point x="430" y="520" type="line"/>
			<point x="415" y="520" type="line"/>
			<point x="415" y="550" type="line"/>
			<point x="385" y="550" type="line"/>
			<point x="385" y="450" type="line"/>
		</contour>
		<contour>
			<point x="520" y="540" type="line"/>
			<point x="520" y="450" type="line"/>
			<point x="530" y="450" type="line"/>
			<point x="530" y="540" type="line"/>
			<point x="565" y="540" type="line"/>
			<point x="565" y="550" type="line"/>
			<point x="485" y="550" type="line"/>
			<point x="485" y="540" type="line"/>
		</contour>
		<contour>
			<point x="615" y="450" type="line"/>
			<point x="615" y="540" type="line"/>
			<point x="625" y="540" type="line"/>
			<point x="625" y="510" type="line"/>
			<point x="640" y="510" type="line"/>
			<point x="640" y="480" type="line"/>
			<point x="655" y="480" type="line"/>
			<point x="655" y="450" type="line"/>
			<point x="665" y="450" type="line"/>
			<point x="665" y="480" type="line"/>
			<point x="680" y="480" type="line"/>
			<point x="680" y="510" type="line"/>
			<point x="695" y="510" type="line"/>
			<point x="695" y="540" type="line"/>
			<point x="705" y="540" type="line"/>
			<point x="705" y="450" type="line"/>
			<point x="715" y="450" type="line"/>
			<point x="715" y="550" type="line"/>
			<point x="685" y="550" type="line"/>
			<point x="685" y="520" type="line"/>
			<point x="670" y="520" type="line"/>
			<point x="670" y="490" type="line"/>
			<point x="650" y="490" type="line"/>
			<point x="650" y="520" type="line"/>
			<point x="635" y="520" type="line"/>
			<point x="635" y="550" type="line"/>
			<point x="605" y="550" type="line"/>
			<point x="605" y="450" type="line"/>
		</contour>
		<contour>
			<point x="745" y="550" type="line"/>
			<point x="745" y="450" type="line"/>
			<point x="820" y="450" type="line"/>
			<point x="820" y="550" type="line"/>
		</contour>
		<contour>
			<point x="900" y="500" type="line"/>
			<point x="900" y="550" type="line"/>
			<point x="845" y="550" type="line"/>
			<point x="845" y="450" type="line"/>
			<point x="855" y="450" type="line"/>
			<point x="855" y="490" type="line"/>
			<point x="920" y="490" type="line"/>
			<point x="920" y="450" type="line"/>
			<point x="930" y="450" type="line"/>
			<point x="930" y="500" type="line"/>
		</contour>
		<contour>
			<point x="960" y="540" type="line"/>
			<point x="1020" y="540" type="line"/>
			<point x="1020" y="550" type="line"/>
			<point x="950" y="550" type="line"/>
			<point x="950" y="450" type="line"/>
			<point x="1020" y="450" type="line"/>
			<point x="1020" y="460" type="line"/>
			<point x="960" y="460" type="line"/>
			<point x="960" y="495" type="line"/>
			<point x="1000" y="495" type="line"/>
			<point x="1000" y="505" type="line"/>
			<point x="960" y="505" type="line"/>
		</contour>
		<contour>
			<point x="290" y="490" type="line"/>
			<point x="290" y="510" type="line"/>
			<point x="305" y="510" type="line"/>
			<point x="305" y="540" type="line"/>
			<point x="320" y="540" type="line"/>
			<point x="320" y="510" type="line"/>
			<point x="335" y="510" type="line"/>
			<point x="335" y="490" type="line"/>
		</contour>
		<contour>
			<point x="755" y="540" type="line"/>
			<point x="810" y="540" type="line"/>
			<point x="810" y="460" type="line"/>
			<point x="755" y="460" type="line"/>
		</contour>
		<contour>
			<point x="890" y="500" type="line"/>
			<point x="855" y="500" type="line"/>
			<point x="855" y="540" type="line"/>
			<point x="890" y="540" type="line"/>
		</contour>
		<contour>
			<point x="1045" y="435" type="line"/>
			<point x="1055" y="435" type="line"/>
			<point x="1055" y="465" type="line"/>
			<point x="1040" y="465" type="line"/>
			<point x="1040" y="450" type="line"/>
			<point x="1045" y="450" type="line"/>
		</contour>
		<contour>
			<point x="160" y="300" type="line"/>
			<point x="160" y="345" type="line"/>
			<point x="200" y="345" type="line"/>
			<point x="200" y="355" type="line"/>
			<point x="160" y="355" type="line"/>
			<point x="160" y="390" type="line"/>
			<point x="220" y="390" type="line"/>
			<point x="220" y="400" type="line"/>
			<point x="150" y="400" type="line"/>
			<point x="150" y="300" type="line"/>
		</contour>
		<contour>
			<point x="315" y="300" type="line"/>
			<point x="315" y="400" type="line"/>
			<point x="240" y="400" type="line"/>
			<point x="240" y="300" type="line"/>
		</contour>
		<contour>
			<point x="400" y="350" type="line"/>
			<point x="400" y="400" type="line"/>
			<point x="345" y="400" type="line"/>
			<point x="345" y="300" type="line"/>
			<point x="355" y="300" type="line"/>
			<point x="355" y="340" type="line"/>
			<point x="420" y="340" type="line"/>
			<point x="420" y="300" type="line"/>
			<point x="430" y="300" type="line"/>
			<point x="430" y="350" type="line"/>
		</contour>
		<contour>
			<point x="480" y="355" type="line"/>
			<point x="465" y="355" type="line"/>
			<point x="465" y="400" type="line"/>
			<point x="455" y="400" type="line"/>
			<point x="455" y="300" type="line"/>
			<point x="465" y="300" type="line"/>
			<point x="465" y="345" type="line"/>
			<point x="480" y="345" type="line"/>
			<point x="480" y="330" type="line"/>
			<point x="505" y="330" type="line"/>
			<point x="505" y="300" type="line"/>
			<point x="530" y="300" type="line"/>
			<point x="530" y="310" type="line"/>
			<point x="515" y="310" type="line"/>
			<point x="515" y="340" type="line"/>
			<point x="490" y="340" type="line"/>
			<point x="490" y="360" type="line"/>
			<point x="515" y="360" type="line"/>
			<point x="515" y="390" type="line"/>
			<point x="530" y="390" type="line"/>
			<point x="530" y="400" type="line"/>
			<point x="505" y="400" type="line"/>
			<point x="505" y="370" type="line"/>
			<point x="480" y="370" type="line"/>
		</contour>
		<contour>
			<point x="605" y="300" type="line"/>
			<point x="605" y="390" type="line"/>
			<point x="615" y="390" type="line"/>
			<point x="615" y="360" type="line"/>
			<point x="630" y="360" type="line"/>
			<point x="630" y="330" type="line"/>
			<point x="645" y="330" type="line"/>
			<point x="645" y="300" type="line"/>
			<point x="655" y="300" type="line"/>
			<point x="655" y="330" type="line"/>
			<point x="670" y="330" type="line"/>
			<point x="670" y="360" type="line"/>
			<point x="685" y="360" type="line"/>
			<point x="685" y="390" type="line"/>
			<point x="695" y="390" type="line"/>
			<point x="695" y="300" type="line"/>
			<point x="705" y="300" type="line"/>
			<point x="705" y="400" type="line"/>
			<point x="675" y="400" type="line"/>
			<point x="675" y="370" type="line"/>
			<point x="660" y="370" type="line"/>
			<point x="660" y="340" type="line"/>
			<point x="640" y="340" type="line"/>
			<point x="640" y="370" type="line"/>
			<point x="625" y="370" type="line"/>
			<point x="625" y="400" type="line"/>
			<point x="595" y="400" type="line"/>
			<point x="595" y="300" type="line"/>
		</contour>
		<contour>
			<point x="810" y="400" type="line"/>
			<point x="740" y="400" type="line"/>
			<point x="740" y="300" type="line"/>
			<point x="810" y="300" type="line"/>
			<point x="810" y="310" type="line"/>
			<point x="750" y="310" type="line"/>
			<point x="750" y="345" type="line"/>
			<point x="790" y="345" type="line"/>
			<point x="790" y="355" type="line"/>
			<point x="750" y="355" type="line"/>
			<point x="750" y="390" type="line"/>
			<point x="810" y="390" type="line"/>
		</contour>
		<contour>
			<point x="945" y="300" type="line"/>
			<point x="945" y="400" type="line"/>
			<point x="870" y="400" type="line"/>
			<point x="870" y="300" type="line"/>
		</contour>
		<contour>
			<point x="1060" y="300" type="line"/>
			<point x="1060" y="350" type="line"/>
			<point x="1030" y="350" type="line"/>
			<point x="1030" y="400" type="line"/>
			<point x="975" y="400" type="line"/>
			<point x="975" y="300" type="line"/>
			<point x="985" y="300" type="line"/>
			<point x="985" y="340" type="line"/>
			<point x="1050" y="340" type="line"/>
			<point x="1050" y="300" type="line"/>
		</contour>
		<contour>
			<point x="305" y="310" type="line"/>
			<point x="250" y="310" type="line"/>
			<point x="250" y="390" type="line"/>
			<point x="305" y="390" type="line"/>
		</contour>
		<contour>
			<point x="390" y="350" type="line"/>
			<point x="355" y="350" type="line"/>
			<point x="355" y="390" type="line"/>
			<point x="390" y="390" type="line"/>
		</contour>
		<contour>
			<point x="880" y="390" type="line"/>
			<point x="935" y="390" type="line"/>
			<point x="935" y="310" type="line"/>
			<point x="880" y="310" type="line"/>
		</contour>
		<contour>
			<point x="1020" y="350" type="line"/>
			<point x="985" y="350" type="line"/>
			<point x="985" y="390" type="line"/>
			<point x="1020" y="390" type="line"/>
		</contour>
		<contour>
			<point x="150" y="250" type="line"/>
			<point x="150" y="150" type="line"/>
			<point x="215" y="150" type="line"/>
			<point x="215" y="160" type="line"/>
			<point x="160" y="160" type="line"/>
			<point x="160" y="240" type="line"/>
			<point x="215" y="240" type="line"/>
			<point x="215" y="250" type="line"/>
		</contour>
		<contour>
			<point x="240" y="250" type="line"/>
			<point x="240" y="150" type="line"/>
			<point x="315" y="150" type="line"/>
			<point x="315" y="250" type="line"/>
		</contour>
		<contour>
			<point x="395" y="180" type="line"/>
			<point x="395" y="150" type="line"/>
			<point x="425" y="150" type="line"/>
			<point x="425" y="250" type="line"/>
			<point x="415" y="250" type="line"/>
			<point x="415" y="160" type="line"/>
			<point x="405" y="160" type="line"/>
			<point x="405" y="190" type="line"/>
			<point x="390" y="190" type="line"/>
			<point x="390" y="220" type="line"/>
			<point x="375" y="220" type="line"/>
			<point x="375" y="250" type="line"/>
			<point x="345" y="250" type="line"/>
			<point x="345" y="150" type="line"/>
			<point x="355" y="150" type="line"/>
			<point x="355" y="240" type="line"/>
			<point x="365" y="240" type="line"/>
			<point x="365" y="210" type="line"/>
			<point x="380" y="210" type="line"/>
			<point x="380" y="180" type="line"/>
		</contour>
		<contour>
			<point x="520" y="240" type="line"/>
			<point x="520" y="250" type="line"/>
			<point x="440" y="250" type="line"/>
			<point x="440" y="240" type="line"/>
			<point x="475" y="240" type="line"/>
			<point x="475" y="150" type="line"/>
			<point x="485" y="150" type="line"/>
			<point x="485" y="240" type="line"/>
		</contour>
		<contour>
			<point x="585" y="220" type="line"/>
			<point x="585" y="250" type="line"/>
			<point x="550" y="250" type="line"/>
			<point x="550" y="220" type="line"/>
			<point x="535" y="220" type="line"/>
			<point x="535" y="190" type="line"/>
			<point x="520" y="190" type="line"/>
			<point x="520" y="150" type="line"/>
			<point x="530" y="150" type="line"/>
			<point x="530" y="180" type="line"/>
			<point x="605" y="180" type="line"/>
			<point x="605" y="150" type="line"/>
			<point x="615" y="150" type="line"/>
			<point x="615" y="190" type="line"/>
			<point x="600" y="190" type="line"/>
			<point x="600" y="220" type="line"/>
		</contour>
		<contour>
			<point x="645" y="240" type="line"/>
			<point x="700" y="240" type="line"/>
			<point x="700" y="250" type="line"/>
			<point x="635" y="250" type="line"/>
			<point x="635" y="150" type="line"/>
			<point x="700" y="150" type="line"/>
			<point x="700" y="160" type="line"/>
			<point x="645" y="160" type="line"/>
		</contour>
		<contour>
			<point x="720" y="250" type="line"/>
			<point x="720" y="240" type="line"/>
			<point x="755" y="240" type="line"/>
			<point x="755" y="150" type="line"/>
			<point x="765" y="150" type="line"/>
			<point x="765" y="240" type="line"/>
			<point x="800" y="240" type="line"/>
			<point x="800" y="250" type="line"/>
		</contour>
		<contour>
			<point x="820" y="250" type="line"/>
			<point x="820" y="150" type="line"/>
			<point x="1060" y="150" type="line"/>
			<point x="1060" y="250" type="line"/>
		</contour>
		<contour>
			<point x="305" y="160" type="line"/>
			<point x="250" y="160" type="line"/>
			<point x="250" y="240" type="line"/>
			<point x="305" y="240" type="line"/>
		</contour>
		<contour>
			<point x="575" y="210" type="line"/>
			<point x="590" y="210" type="line"/>
			<point x="590" y="190" type="line"/>
			<point x="545" y="190" type="line"/>
			<point x="545" y="210" type="line"/>
			<point x="560" y="210" type="line"/>
			<point x="560" y="240" type="line"/>
			<point x="575" y="240" type="line"/>
		</contour>
		<contour>
			<point x="175" y="60" type="line"/>
			<point x="175" y="30" type="line"/>
			<point x="190" y="30" type="line"/>
			<point x="190" y="0" type="line"/>
			<point x="200" y="0" type="line"/>
			<point x="200" y="30" type="line"/>
			<point x="215" y="30" type="line"/>
			<point x="215" y="60" type="line"/>
			<point x="230" y="60" type="line"/>
			<point x="230" y="90" type="line"/>
			<point x="245" y="90" type="line"/>
			<point x="245" y="100" type="line"/>
			<point x="220" y="100" type="line"/>
			<point x="220" y="70" type="line"/>
			<point x="205" y="70" type="line"/>
			<point x="205" y="40" type="line"/>
			<point x="185" y="40" type="line"/>
			<point x="185" y="70" type="line"/>
			<point x="170" y="70" type="line"/>
			<point x="170" y="100" type="line"/>
			<point x="145" y="100" type="line"/>
			<point x="145" y="90" type="line"/>
			<point x="160" y="90" type="line"/>
			<point x="160" y="60" type="line"/>
		</contour>
		<contour>
			<point x="265" y="0" type="line"/>
			<point x="335" y="0" type="line"/>
			<point x="335" y="10" type="line"/>
			<point x="275" y="10" type="line"/>
			<point x="275" y="45" type="line"/>
			<point x="315" y="45" type="line"/>
			<point x="315" y="55" type="line"/>
			<point x="275" y="55" type="line"/>
			<point x="275" y="90" type="line"/>
			<point x="335" y="90" type="line"/>
			<point x="335" y="100" type="line"/>
			<point x="265" y="100" type="line"/>
		</contour>
		<contour>
			<point x="435" y="0" type="line"/>
			<point x="435" y="10" type="line"/>
			<point x="375" y="10" type="line"/>
			<point x="375" y="100" type="line"/>
			<point x="365" y="100" type="line"/>
			<point x="365" y="0" type="line"/>
		</contour>
		<contour>
			<point x="465" y="0" type="line"/>
			<point x="475" y="0" type="line"/>
			<point x="475" y="30" type="line"/>
			<point x="490" y="30" type="line"/>
			<point x="490" y="60" type="line"/>
			<point x="505" y="60" type="line"/>
			<point x="505" y="90" type="line"/>
			<point x="520" y="90" type="line"/>
			<point x="520" y="100" type="line"/>
			<point x="495" y="100" type="line"/>
			<point x="495" y="70" type="line"/>
			<point x="480" y="70" type="line"/>
			<point x="480" y="40" type="line"/>
			<point x="460" y="40" type="line"/>
			<point x="460" y="70" type="line"/>
			<point x="445" y="70" type="line"/>
			<point x="445" y="100" type="line"/>
			<point x="420" y="100" type="line"/>
			<point x="420" y="90" type="line"/>
			<point x="435" y="90" type="line"/>
			<point x="435" y="60" type="line"/>
			<point x="450" y="60" type="line"/>
			<point x="450" y="30" type="line"/>
			<point x="465" y="30" type="line"/>
		</contour>
		<contour>
			<point x="550" y="90" type="line"/>
			<point x="610" y="90" type="line"/>
			<point x="610" y="100" type="line"/>
			<point x="540" y="100" type="line"/>
			<point x="540" y="0" type="line"/>
			<point x="610" y="0" type="line"/>
			<point x="610" y="10" type="line"/>
			<point x="550" y="10" type="line"/>
			<point x="550" y="45" type="line"/>
			<point x="590" y="45" type="line"/>
			<point x="590" y="55" type="line"/>
			<point x="550" y="55" type="line"/>
		</contour>
		<contour>
			<point x="665" y="0" type="line"/>
			<point x="675" y="0" type="line"/>
			<point x="675" y="90" type="line"/>
			<point x="710" y="90" type="line"/>
			<point x="710" y="100" type="line"/>
			<point x="630" y="100" type="line"/>
			<point x="630" y="90" type="line"/>
			<point x="665" y="90" type="line"/>
		</contour>
		<contour>
			<point x="765" y="0" type="line"/>
			<point x="775" y="0" type="line"/>
			<point x="775" y="45" type="line"/>
			<point x="810" y="45" type="line"/>
			<point x="810" y="100" type="line"/>
			<point x="800" y="100" type="line"/>
			<point x="800" y="55" type="line"/>
			<point x="740" y="55" type="line"/>
			<point x="740" y="100" type="line"/>
			<point x="730" y="100" type="line"/>
			<point x="730" y="45" type="line"/>
			<point x="765" y="45" type="line"/>
		</contour>
		<contour>
			<point x="860" y="70" type="line"/>
			<point x="860" y="100" type="line"/>
			<point x="830" y="100" type="line"/>
			<point x="830" y="0" type="line"/>
			<point x="840" y="0" type="line"/>
			<point x="840" y="90" type="line"/>
			<point x="850" y="90" type="line"/>
			<point x="850" y="60" type="line"/>
			<point x="865" y="60" type="line"/>
			<point x="865" y="30" type="line"/>
			<point x="880" y="30" type="line"/>
			<point x="880" y="0" type="line"/>
			<point x="910" y="0" type="line"/>
			<point x="910" y="100" type="line"/>
			<point x="900" y="100" type="line"/>
			<point x="900" y="10" type="line"/>
			<point x="890" y="10" type="line"/>
			<point x="890" y="40" type="line"/>
			<point x="875" y="40" type="line"/>
			<point x="875" y="70" type="line"/>
		</contour>
		<contour>
			<point x="945" y="90" type="line"/>
			<point x="1005" y="90" type="line"/>
			<point x="1005" y="100" type="line"/>
			<point x="935" y="100" type="line"/>
			<point x="935" y="0" type="line"/>
			<point x="1005" y="0" type="line"/>
			<point x="1005" y="10" type="line"/>
			<point x="945" y="10" type="line"/>
			<point x="945" y="45" type="line"/>
			<point x="985" y="45" type="line"/>
			<point x="985" y="55" type="line"/>
			<point x="945" y="55" type="line"/>
		</contour>
		<contour>
			<point x="250" y="-60" type="line"/>
			<point x="250" y="-50" type="line"/>
			<point x="180" y="-50" type="line"/>
			<point x="180" y="-150" type="line"/>
			<point x="190" y="-150" type="line"/>
			<point x="190" y="-105" type="line"/>
			<point x="230" y="-105" type="line"/>
			<point x="230" y="-95" type="line"/>
			<point x="190" y="-95" type="line"/>
			<point x="190" y="-60" type="line"/>
		</contour>
		<contour>
			<point x="360" y="-150" type="line"/>
			<point x="360" y="-100" type="line"/>
			<point x="330" y="-100" type="line"/>
			<point x="330" y="-50" type="line"/>
			<point x="275" y="-50" type="line"/>
			<point x="275" y="-150" type="line"/>
			<point x="285" y="-150" type="line"/>
			<point x="285" y="-110" type="line"/>
			<point x="350" y="-110" type="line"/>
			<point x="350" y="-150" type="line"/>
		</contour>
		<contour>
			<point x="395" y="-50" type="line"/>
			<point x="395" y="-150" type="line"/>
			<point x="1060" y="-150" type="line"/>
			<point x="1060" y="-50" type="line"/>
		</contour>
		<contour>
			<point x="320" y="-100" type="line"/>
			<point x="285" y="-100" type="line"/>
			<point x="285" y="-60" type="line"/>
			<point x="320" y="-60" type="line"/>
		</contour>
		<contour>
			<point x="140" y="-135" type="line"/>
			<point x="140" y="-150" type="line"/>
			<point x="155" y="-150" type="line"/>
			<point x="155" y="-135" type="line"/>
		</contour>
	</outline>
</glyph>
